<svg id="Layer_1" data-name="Layer 1" xmlns="http://www.w3.org/2000/svg" viewBox="0 0 155 36"><defs><style>.cls-1{fill:#38383c;}.cls-2{isolation:isolate;}.cls-3,.cls-4{fill:none;}.cls-4{stroke:#707070;}</style></defs><path class="cls-1" d="M124.78,14.9V12.39a1.2,1.2,0,0,1,1.13-1.26h1.14V8h-2.27a3.6,3.6,0,0,0-3.4,3.77V14.9h-2.27V18h2.27v10h3.4V18h2.27l1.13-3.14Z"/><g class="cls-2"><g class="cls-2"><path class="cls-1" d="M32.25,15.36a2.72,2.72,0,0,1,.89,2.18,3,3,0,0,1-.89,2.31,3.51,3.51,0,0,1-2.49.82h-1.5V23h-2.2V14.59h3.7A3.69,3.69,0,0,1,32.25,15.36Zm-1.56,3.22a1.25,1.25,0,0,0,.37-1,1.21,1.21,0,0,0-.37-.94,1.51,1.51,0,0,0-1-.33H28.26v2.58h1.39A1.47,1.47,0,0,0,30.69,18.58Z"/><path class="cls-1" d="M42.17,23l-.58-1.49H38L37.37,23H35.11l3.61-8.41H41L44.51,23Zm-3.56-3.17h2.33l-1.15-3Z"/><path class="cls-1" d="M52.72,23l-1.23-2.33H49.86V23h-2.2V14.59h3.78a3.92,3.92,0,0,1,2.59.77A2.7,2.7,0,0,1,55,17.54a3.29,3.29,0,0,1-.39,1.64,2.55,2.55,0,0,1-1.11,1.07L55.2,23Zm-2.86-4.08h1.6a1.44,1.44,0,0,0,1-.34,1.22,1.22,0,0,0,.37-1,1.18,1.18,0,0,0-.37-.94,1.48,1.48,0,0,0-1-.33h-1.6Z"/><path class="cls-1" d="M58,14.59h7.21V16.4H62.71V23H60.52V16.4H58Z"/><path class="cls-1" d="M73.8,23l-.58-1.49H69.59L69,23H66.74l3.61-8.41h2.26L76.14,23Zm-3.55-3.17h2.33l-1.16-3Z"/><path class="cls-1" d="M84.63,18.7h1.9v3.35a5.51,5.51,0,0,1-1.65.8,6.34,6.34,0,0,1-1.85.31,4.64,4.64,0,0,1-2.3-.57,4.22,4.22,0,0,1-2.2-3.8,4.2,4.2,0,0,1,.6-2.22A4.3,4.3,0,0,1,80.8,15a4.94,4.94,0,0,1,2.37-.56A5.36,5.36,0,0,1,85,14.8a4.85,4.85,0,0,1,1.59.92l-1.25,1.53a3.64,3.64,0,0,0-1-.68,3,3,0,0,0-1.17-.25,2.26,2.26,0,0,0-1.21.32,2.37,2.37,0,0,0-.86.89,2.61,2.61,0,0,0-.31,1.26,2.72,2.72,0,0,0,.31,1.28,2.35,2.35,0,0,0,2.09,1.21,3.28,3.28,0,0,0,1.45-.4Z"/><path class="cls-1" d="M90.38,14.59H97v1.75H92.58v1.57h4v1.74h-4v1.59h4.56V23H90.38Z"/><path class="cls-1" d="M105.93,23l-1.22-2.33h-1.63V23h-2.2V14.59h3.78a3.94,3.94,0,0,1,2.59.77,2.7,2.7,0,0,1,.92,2.18,3.29,3.29,0,0,1-.39,1.64,2.61,2.61,0,0,1-1.11,1.07L108.42,23Zm-2.85-4.08h1.59a1.45,1.45,0,0,0,1-.34,1.22,1.22,0,0,0,.37-1,1.18,1.18,0,0,0-.37-.94,1.49,1.49,0,0,0-1-.33h-1.59Z"/></g></g><rect class="cls-3" width="155" height="36" rx="9"/><rect class="cls-4" x="0.5" y="0.5" width="154" height="35" rx="8.5"/></svg>