<svg id="Layer_1" data-name="Layer 1" xmlns="http://www.w3.org/2000/svg" viewBox="0 0 125 36"><defs><style>.cls-1{fill:#38383c;}.cls-2{isolation:isolate;}.cls-3,.cls-4{fill:none;}.cls-4{stroke:#707070;}</style></defs><path class="cls-1" d="M94.78,14.9V12.39a1.2,1.2,0,0,1,1.13-1.26h1.14V8H94.78a3.6,3.6,0,0,0-3.4,3.77V14.9H89.11V18h2.27v10h3.4V18h2.27l1.13-3.14Z"/><g class="cls-2"><g class="cls-2"><path class="cls-1" d="M30.76,16.47a4.14,4.14,0,0,0-1.28-.25,1.19,1.19,0,0,0-.64.15.48.48,0,0,0-.23.44.58.58,0,0,0,.2.46,1.75,1.75,0,0,0,.5.3c.2.08.5.17.89.29a11.21,11.21,0,0,1,1.45.51,2.58,2.58,0,0,1,1,.77A2.16,2.16,0,0,1,33,20.5a2.33,2.33,0,0,1-.44,1.44,2.73,2.73,0,0,1-1.22.89,4.7,4.7,0,0,1-1.72.3,6.28,6.28,0,0,1-2.08-.36,5.84,5.84,0,0,1-1.8-1l.86-1.71a5.34,5.34,0,0,0,1.5.92,4.14,4.14,0,0,0,1.54.36,1.45,1.45,0,0,0,.78-.18.58.58,0,0,0,.28-.53.63.63,0,0,0-.21-.48,1.6,1.6,0,0,0-.53-.3c-.21-.08-.51-.17-.89-.27a10.18,10.18,0,0,1-1.43-.49,2.5,2.5,0,0,1-1-.74A2.11,2.11,0,0,1,26.3,17a2.32,2.32,0,0,1,.42-1.37,2.56,2.56,0,0,1,1.17-.9,4.62,4.62,0,0,1,1.77-.32,6.48,6.48,0,0,1,1.8.26,5.85,5.85,0,0,1,1.56.69l-.83,1.75A7.44,7.44,0,0,0,30.76,16.47Z"/><path class="cls-1" d="M36.55,14.59h2.2V18h3.39V14.59h2.2V23h-2.2V19.77H38.75V23h-2.2Z"/><path class="cls-1" d="M54.55,23,54,21.51H50.34L49.75,23H47.49l3.62-8.41h2.25L56.89,23ZM51,19.83h2.33l-1.16-3Z"/><path class="cls-1" d="M65.1,23l-1.23-2.33H62.24V23H60.05V14.59h3.78a3.91,3.91,0,0,1,2.58.77,2.7,2.7,0,0,1,.92,2.18A3.4,3.4,0,0,1,67,19.18a2.63,2.63,0,0,1-1.12,1.07L67.58,23Zm-2.86-4.08h1.6a1.47,1.47,0,0,0,1-.34,1.25,1.25,0,0,0,.36-1,1.21,1.21,0,0,0-.36-.94,1.51,1.51,0,0,0-1-.33h-1.6Z"/><path class="cls-1" d="M71.13,14.59h6.64v1.75H73.33v1.57h4v1.74h-4v1.59h4.56V23H71.13Z"/></g></g><rect class="cls-3" width="125" height="36" rx="9"/><rect class="cls-4" x="0.5" y="0.5" width="124" height="35" rx="8.5"/></svg>