<svg alt="Instagram" xmlns="http://www.w3.org/2000/svg" viewBox="0 0 72.25 72.25"><path id="Path_13" data-name="Path 13" class="fill" d="M49.67,0H22.57A22.57,22.57,0,0,0,0,22.58V49.67A22.57,22.57,0,0,0,22.57,72.25h27.1A22.58,22.58,0,0,0,72.25,49.67V22.58A22.58,22.58,0,0,0,49.67,0Zm15.8,49.67a15.82,15.82,0,0,1-15.8,15.8H22.57a15.82,15.82,0,0,1-15.8-15.8V22.58A15.82,15.82,0,0,1,22.57,6.77h27.1a15.83,15.83,0,0,1,15.8,15.8Z"/><path id="Path_14" data-name="Path 14" class="fill" d="M36.12,18.08a18,18,0,1,0,18.08,18A18.05,18.05,0,0,0,36.12,18.08Zm0,29.32a11.28,11.28,0,1,1,11.3-11.28A11.3,11.3,0,0,1,36.12,47.4Z"/><path id="Path_15" data-name="Path 15" class="fill" d="M58,16.7a2.4,2.4,0,0,1-2.4,2.41h0a2.4,2.4,0,0,1-2.4-2.4h0a2.4,2.4,0,0,1,2.4-2.4h0A2.41,2.41,0,0,1,58,16.7Z"/></svg>