<svg id="Layer_1" data-name="Layer 1" xmlns="http://www.w3.org/2000/svg" xmlns:xlink="http://www.w3.org/1999/xlink" viewBox="0 0 136 56.53"><defs><style>.cls-1{fill:none;}.cls-2{clip-path:url(#clip-path);}.cls-3{fill:#fff;}</style><clipPath id="clip-path"><rect class="cls-1" width="136" height="56.53"/></clipPath></defs><g id="logo"><g class="cls-2"><g id="Group_31" data-name="Group 31"><g id="Group_8" data-name="Group 8"><path id="Path_4" data-name="Path 4" class="cls-3" d="M62.52,15.32H60.43v.9c.22.24.41.53.53.67.39-.76.49-.17,1.49-.27.48-.38.3-.85.07-1.3m-.34,1.29h0Z"/></g><g id="Group_9" data-name="Group 9"><path id="Path_5" data-name="Path 5" class="cls-3" d="M60.43,19.32v1.05l0,0c0-.41,0-.73,0-1"/></g><g id="Group_10" data-name="Group 10"><path id="Path_6" data-name="Path 6" class="cls-3" d="M95.44,18.25V15.38H89.85c-.07.15-.3.13-.46.18a.2.2,0,0,1,.12-.18H87V27.13c.09-.12.3-.1.45-.15,0,.24-.26.21-.45.26v2.88h.34c.25.15.17.24,0,.27h-.1a.65.65,0,0,1-.24,0l0,0V42l-.36-.56,0,0L79.41,30.28a.37.37,0,0,1-.4.15.8.8,0,0,1,0-.69L69.78,15.32h-7a.3.3,0,0,0,.35.24h0c-.48.84.47,1.86-1,1.86,0,.68,1.15.37.49,1.06-.8.23-.34-.87-.74-1.06a2.21,2.21,0,0,0-1.52,0v.92a.64.64,0,0,1,.29.41.18.18,0,0,0,.15-.1.63.63,0,0,1,0-.27c-.09-.22-.2-.5.13-.7.22.16.44.32.5,0,.23.88-.69,2.79-1,4h0v3.25l.28-.05c0,.17-.14.2-.28.22V56.53h5.4c.1,0,.22,0,.32-.06s0,0,0,.06H68.9V44.21l0,0s0,0,0-.06h.05V29.84L86.09,56.53h9.35V19.7a1.8,1.8,0,0,1-.37-1.48.4.4,0,0,1,.37,0M61.21,23.81s0-.06,0-.09l0,0,0,.1h0m.58.51v0l-.25-.37c.23.15.24.16.25.37v0h0Zm7.08,28.1h0Zm8.9-23.85c.37-.94.46.49.24.53s-.31-.37-.24-.53m.07,2.65,0,0a.22.22,0,0,0,0-.08l0,0,0,.07m-1.7-4.51h0s0,.09,0,.13h-.07l0-.13m-.6,1.05.06.13,0,0s0-.08-.07-.13l.06,0m-.23-.14v.07h0a.17.17,0,0,0,0-.07Zm-.18.17a.08.08,0,0,1,0,0l0,0h0m-.24-1.16s0,0,0,.05l-.13.05v-.1Zm-1.48-3.94h-.06l0-.08.1.06m-.78,1.8a.08.08,0,0,1,.11,0c.11.06.18.31.12.37a.1.1,0,0,1-.12,0c-.11-.07-.17-.32-.11-.37m-.24,2.25a1,1,0,0,0,0-.24,1.45,1.45,0,0,0,0-.29c.15.21.15.21,0,.53m.09,4.58v.07l0,0,0-.06M69.35,18h0v.1h0Zm-.46.37.09.24-.14.05,0-.25.1,0m-.53,8.87,0,.12-.16-.13,0-.07.17.08M68,20.08c.3.12.11.34,0,.32s-.11-.34,0-.32m-.12,5.22.15.35L68,25.7l-.17-.34.1-.06M67,18.93c.31,0,.71.61.46,1.05a.87.87,0,0,1-.33-.38,1.26,1.26,0,0,0-.2.27,1.15,1.15,0,0,1,.07-.45.59.59,0,0,0-.26-.21c.06-.19.15-.27.25-.28m-.23,9.86a.08.08,0,0,1,.11,0,.27.27,0,0,1,.1.16c0,.09,0,.18,0,.21s-.31-.29-.22-.36m0-8.61.07,0a.22.22,0,0,1,0,.08l-.06-.05m.19,8.19,0-.06.26.08v.08a.44.44,0,0,1-.16,0,.34.34,0,0,1-.12-.12M65.76,16.81a.82.82,0,0,1,.22,0l.11.08c.13.13,0,.2-.2.2a.55.55,0,0,1-.22,0c-.29-.18-.13-.27.09-.28m-.08,17.46h0v0h0s0,0,0,0m-.81-18.6a.51.51,0,0,1,.17,0,1.6,1.6,0,0,1-.47.31,2.23,2.23,0,0,1-.43.16C64,16.11,64,16.05,64,16s.57-.34.92-.33M63.74,20l.06.08-.12.1,0-.05a.64.64,0,0,0,.1-.13m-1,1.72c.24-.82.4.58.74.53.14-.82,1-.83,1-1.85h.74a.78.78,0,0,1,0-.58.14.14,0,0,1,0-.06l0,0s0,0,0,0a.58.58,0,0,1,.06-.17h-.06l.11-.12c.1-.22.15-.37-.1-.39.5-.63.47-.07.43.46l0,.05h0c0,.34,0,.64.07.55a2.74,2.74,0,0,1-1.48,1.32c0,.48.3.56.25,1.07,1,0,0,.5-.25,0-.88.08-.61.73-1.48.26-.24-.49.74-.89,0-1.06m2.57,18a2.33,2.33,0,0,1-.15.21c0-.12,0-.19-.05-.33l.2.12m-.06-1.5a0,0,0,0,1,0,0h0s0,0,0,0a0,0,0,0,1,0,0M65,37.76c.08-.17.08-.17.3,0l-.3,0M64.48,40l-.17.2c0-.12-.07-.22,0-.24a.71.71,0,0,1,.18-.08.76.76,0,0,1,0,.11m-.24,1.2h-.11l0-.17h.07c0,.06,0,.12,0,.18M64,48l-.4,0c.25-.29.26-.29.4,0m-.45-5.83s0-.07,0-.1l.21,0v.09l-.22,0m-.21-18.91-.07.06-.08-.07.06-.07.09.07M62,23.59h0v.06h0v0m0,25a.24.24,0,0,0,0-.08l.16,0s0,0,0,.07l-.16,0m.15-19.7c.75-.1.52.87.75,1.33-.75.1-.52-.86-.75-1.33m1,14.4.08.17,0,0a1.71,1.71,0,0,0-.11-.14Zm.06,7.57-.1-.1,0,0,.09.1,0,0m.27-2.67v.07l-.06,0,.07,0m0,4.1,0-.07,0,.07Zm1.9,3.95c-.43-.06-.56-.46-.49-1.06h.74c0,.47-.3.56-.25,1.06m.07-2.64a.47.47,0,0,0,0,.2h-.35a1,1,0,0,1-.15-.42.36.36,0,0,1,.06-.2c-.35,0-.38.12-.59.12a.86.86,0,0,1-.28,0,.51.51,0,0,0-.09-.18c-.12-.14-.28-.22-.09-.52l0,0a.28.28,0,0,1-.12.19.24.24,0,0,1-.09-.33l0,0a.79.79,0,0,1-.14-.5h0l.29,0c.07,0,.11,0,.12-.2.1.07.1.23.24.26a.36.36,0,0,0,.2,0c-.08.12-.28.12-.44.16.24.16.54.26.66.52a.75.75,0,0,1,0,.33c.13,0,.22-.11.35-.15s-.11-.16-.09-.31a.46.46,0,0,1,.3-.08h.4c0,.09,0,.14.09.15,0,.54-.28.68-.34,1m.36-15.65,0-.07.14-.06,0,.07-.16.06m.26-3.29h0l.24.08c-.2.06-.2.06-.24-.07m.25,19.52-.19-.43a.29.29,0,0,1,.21.37.14.14,0,0,1,0,.06m.48-37.71c0,.08,0,.15,0,.2s-.29-.07-.37-.36l.42.17m-.22,17.29-.1,0s0-.05,0-.07l.1,0Zm-.18.35v0Zm0,.33h0v.37h-.07l0-.34m.22,21.33-.11-.1,0-.07.11.12,0,0m.24.48-.07-.11,0,0,.07.11,0,0m-.22-1.86a.54.54,0,0,1-.21,0,.45.45,0,0,1,.09-.39h.06s0-.08,0-.12a.94.94,0,0,1,.23.16l0,0L67,54a.3.3,0,0,1,.15.2h0a4.33,4.33,0,0,1,.53,1.43,2.52,2.52,0,0,1-.92-1.3m1-13.71h0Zm.11,9.09s0,0-.07-.06l.08-.07s0,.07,0,.11,0,0,0,0m0-.3a.26.26,0,0,1,.36-.09.16.16,0,0,1,.07.07c-.15.19-.27.14-.43,0m.33-15,.31.32c-.25,0-.25,0-.31-.32m.33-6.7a.43.43,0,0,1,0,0l.11,0a.28.28,0,0,0,0,.09Zm.27,21.5v0h0Zm.51-27.6a.4.4,0,0,1-.24,0,2.89,2.89,0,0,1-.62-.47c0-.2.11-.29.21-.31.28-.08.75.42.86.51s-.11.28-.21.3M69.69,18c0-.07,0-.12,0-.22l.15.15-.18.07m.42,7.1c.05-.3.25-.15.25,0s-.25.15-.25,0M71.51,31l0-.06a.07.07,0,0,0,0,.05h0m.44,3.5a.43.43,0,0,0,0-.07s0,0,0,0l.06,0,0,.06m-.44-11.32c-.05,0-.14,0-.36,0,.23-.15.37-.27.51-.35h0l0-.09s0-.07,0-.11v-.07a.11.11,0,0,1,0-.08s0,0,0,0a.19.19,0,0,1,.16-.05.23.23,0,0,1,.14.15s0,0,0,0a.41.41,0,0,1,0,.19v0l0,.08.05,0c-.17.1-.32.21-.5.3M72.15,34a.05.05,0,0,0,0,0l.08,0a.07.07,0,0,1,0,0l-.08,0m.92-1.72c-.72.23-.27.4-.24,1.07h-.74a.72.72,0,0,1,.49-.8c-.38-.39-.24-1.39.49-1.33,0,.21-.24.26-.24.53s.21.47.49.53c0,.3-.25.15-.25,0m.25,1.59c.6.24.66,1.07.74,1.86-.57-.27-.79-.91-.74-1.86m.49-8c.11-.38.22,0,.5,0a.26.26,0,0,1-.26.24.26.26,0,0,1-.24-.24m1,10.89c-.12-.13.18-.34.25-.26s-.18.34-.25.26m-.24-6.64c-.68-.57,0-1.88,1-1.6-.13.76-1.3.39-1,1.6m1,1.07c0-.3.24-.15.24,0s-.25.14-.24,0m.84,4a.12.12,0,0,1-.1,0c-.07,0-.08-.16-.26-.12,0-.13,0-.16.13-.16h.31a.37.37,0,0,0-.09.27v0M77,32.86v-.3l.29.19-.29.11m.2-.89s-.11-.1-.1-.11a1.76,1.76,0,0,1,.24-.3,1.43,1.43,0,0,1,.14.22,1.79,1.79,0,0,1-.28.2m.55,2h-.06c0-.06,0-.11,0-.17h.06V34m.27-.63a.25.25,0,0,1,.5,0c-.22.17-.45.32-.5,0m.76-2.94-.36.22a.45.45,0,0,1,.34.07,2.38,2.38,0,0,1-.24,1.59h-1c0-.35.39-1.46.49-.8.44.08.15-.64.34-.83l-.22.13a.47.47,0,0,1-.13-.15,4.59,4.59,0,0,1,.55-.53s.18.05.28.09l-.06.21m1,16.22c-.13-.14.18-.34.25-.26s-.18.34-.25.26M80,33.36a1.1,1.1,0,0,1,1-.54c-.22.47-.55,1-1,.54m1,2.28a.09.09,0,0,1,.11,0,.37.37,0,0,1,.12.34.06.06,0,0,1,0,0,.09.09,0,0,1-.11,0c-.11-.07-.18-.32-.11-.37m.55,9.67a.08.08,0,0,1-.11,0c-.11-.07-.18-.33-.11-.38a.1.1,0,0,1,.12,0c.1.07.17.32.1.37m-.06-2.13c-.13-.13.18-.33.24-.26s-.17.34-.24.26m.15-1.53a.55.55,0,0,1-.18,0c-.12,0-.2-.07-.32-.08H81c0-.34.12-.64.41-.74a1,1,0,0,1,.38,0,2.66,2.66,0,0,1-.18.85m4.08,6.21a.21.21,0,0,1,0-.06l.15-.09,0,.06-.15.09m1.25.45h-.12c0-.06,0-.13,0-.2H87Zm.26,6.94h0s0-.1,0-.14l.09,0Zm7.11-39.16c.13.14-.18.34-.25.27s.18-.34.25-.27m-.17,22.73h0v0Zm-2-18.48a10.18,10.18,0,0,1-.5,3.19c-.31-.46.08-1.42-1-1.6.06-.46.43-.6,1-.53a.62.62,0,0,1,0-.89.61.61,0,0,1,.47-.17M90.87,19c-.06.38-.74.1-.74.53-.76-.35.43-1.21.74-.53M88.4,20.34c.1-.51.09-1.14.74-1.06a1.94,1.94,0,0,1-1.73,1.86c.07-.55.66-.53,1-.8m.25,1.86c0-.26.3-.21.49-.27,0,.26-.3.21-.49.27m.53,19.46s0,.07,0,.11l-.06,0a.76.76,0,0,0-.08-.11l.12,0M88.65,21.4c0-.3.24-.14.24,0,0,.3-.24.15-.24,0m-1.27,3.22h0s0,0,0,0h0s0,0,0,0m-.16.87s0,0,0-.07l-.14.08c0-.1-.12-.2-.12-.29s.1-.18.16-.26l.19.41-.06,0,.23,0v.09l-.26,0m.19,4.68c-.44-.2,0-.48,0-.8.44.2,0,.48,0,.8M87.66,32c0-.3.24-.15.24,0s-.24.15-.24,0M88.8,41a.1.1,0,0,1-.12,0,.35.35,0,0,1-.13-.27.15.15,0,0,1,0-.11h.12c.11.07.17.32.11.37m0-5.76,0,0,.1-.08,0,0-.08.09m.07-8a.2.2,0,0,1-.22.1.22.22,0,0,1-.13-.1.33.33,0,0,1-.07-.23.18.18,0,0,1,.22-.14h0a.21.21,0,0,1,.13.1.36.36,0,0,1,.06.2s0,0,0,0,0,0,0,0m.2,21.87-.11,0c0-.07,0-.14-.07-.22a.2.2,0,0,0,.08,0l.17.12-.07.12m.09.69.17,0c0,.16,0,.16-.17,0M90.38,31.5c.75-.73-.68.8,0,0m.2,5.56h0v0l0,0v.05m.16,5.85s0,0,0,0-.2-.13-.21-.26a.11.11,0,0,1,0-.1.08.08,0,0,1,.09,0h0c.1.06.17.32.11.37m-.12-17.52c-.13-.14.18-.34.25-.27s-.18.34-.25.27m-.74-.53c-.25.17-.26.61-.74.53V24.06c.83.25,1.68-.82,2.22,0,.09.89-1.07.44-1.48.8m2.34,16.35s0,0,0,0v0h0a0,0,0,0,1,0,0m-.86-4.93c.12-.24.22-.48.5-.53,0-.53-.67-.34-.5-1.07a1.24,1.24,0,0,1,1.25,1.22.37.37,0,0,1,0,.11,1.48,1.48,0,0,1-1.24.27m0-2.92c.57.37,1.55.29,1.49,1.33-.66-.27-1.41-.44-1.49-1.33m1.5,6.72s0,0,0,0l.07,0h-.08m.56,7.47h0c-.11,0-.15-.1-.15-.16a.09.09,0,0,1,0,0,.18.18,0,0,1,.19-.1c.27.11.13.3,0,.3m.22,6.84,0-.06.09,0,0,.06-.09,0M93.84,36c-.13-.14.17-.34.24-.27s-.18.34-.24.27m.25,17.22a.94.94,0,0,1-.1-.1c0-.17.13-.25.36-.23l-.26.33m.49-2h-.5v0h.51v0m-.1-12.62v0h.1v0h-.1m-.15-6c-.13-.14.18-.34.25-.27s-.18.34-.25.27m.57,4.38s0,.05,0,.06a.13.13,0,0,1-.12,0c-.1-.07-.17-.32-.11-.38a.1.1,0,0,1,.12,0,.38.38,0,0,1,.12.32M95,51.26a.32.32,0,0,1,0-.09l0,0a.47.47,0,0,0,0,.1l-.07,0m.28-29.87c.13.14-.18.34-.25.27s.18-.34.25-.27"/></g><g id="Group_11" data-name="Group 11"><path id="Path_7" data-name="Path 7" class="cls-3" d="M122.76,16.36c0,.66-.39.82-.5,1.33,0,.21.25.26.25.53.77.12.7-.67,1-1.07.1-.66-.3-.78-.55-1.07l-.4-.1c0,.18.07.33.2.38"/></g><g id="Group_12" data-name="Group 12"><path id="Path_8" data-name="Path 8" class="cls-3" d="M124.24,16.52l-.24-.09a1.57,1.57,0,0,1-.25,1c.39-.06.52-.39.49-.9"/></g><g id="Group_13" data-name="Group 13"><path id="Path_9" data-name="Path 9" class="cls-3" d="M107.18,30.17c-.06-.07-.37.13-.24.26s.37-.12.24-.26"/></g><g id="Group_14" data-name="Group 14"><path id="Path_10" data-name="Path 10" class="cls-3" d="M117.82,31.92h-.23c0,.11.13.07.23,0"/></g><g id="Group_15" data-name="Group 15"><path id="Path_11" data-name="Path 11" class="cls-3" d="M135.89,43.63a12.61,12.61,0,0,0-.62-2.77,14.07,14.07,0,0,0-1.66-3.34,9.71,9.71,0,0,0-3.21-3c.22-.35.4-.67.57-1l0,0H131c.05-.1.12-.2.16-.29a7.8,7.8,0,0,0,.58-1.2,8.52,8.52,0,0,0,.38-1.4,10.74,10.74,0,0,0,.13-1.88,12.66,12.66,0,0,0-4.73-10.35c-.2-.16-.42-.3-.63-.46a3.06,3.06,0,0,0-.43,1c-.79-.2-.67-.9-.44-1.6-.33-.2-.67-.38-1-.55l0,0a4.43,4.43,0,0,1,.49,3.46c-.61-.28-1-1.6-.24-1.86,0-.22-.25-.27-.25-.53a2.86,2.86,0,0,1-.74.32.39.39,0,0,1,.06.13l-.11-.12a2.92,2.92,0,0,0-.9.4h.13c0,.31,0,.31-.36.29a.61.61,0,0,0,0-.12L123,19c.33.62.6,1.31,1.49,1.33.36,1.19-.73.81-.5,1.86-.53,0-.11-.94-.24-1.33-.23.15-.38.74-.5.27-.38.3-.51.86-1.24.8-.28-1.06-.61-1.47-1.72-1.07.83-1,1.57,0,2.71-.53-1-.39,0-1.84-1.23-1.59a6.72,6.72,0,0,0,.2-2.92,14.44,14.44,0,0,0-3.2-.39h-3.94l-.44.29s-.13-.12-.19-.18l.18-.11H105v6.72l.08,0a.55.55,0,0,1,.08.1l-.16.1v2.84a0,0,0,0,1,0,0,.34.34,0,0,1,.11.33v0a.1.1,0,0,1-.12,0v.11h0a1.87,1.87,0,0,0,.34.9h0a1.6,1.6,0,0,0,.87.41c-.07.36-.62.22-1,.27.07-.48-.23-.55-.24-.27h0v2.39c.42-.1.46.21.49.53,1.38-.67,1.81.5,3.22,0-.53.68-.07,2.41-1.24,2.39-.07-.7.09-1.14.74-1.06-.1-.9-1,.71-.74-.53-.76-.2-.48.73-1.24.53-.39.11-.21.84-1,.53.27-.24.08-1,.74-.8,0-.41-.63-.24-1-.33v25.9h15.37l-.2-.22c.08-.06.16-.18.25-.18s.2.09.31.15l-.25.25,1.81,0a27,27,0,0,0,3.81-.33,18.84,18.84,0,0,0,3.69-1,9.92,9.92,0,0,0,3.18-2,9.42,9.42,0,0,0,2.23-3.28,12.79,12.79,0,0,0,.85-5c0-.07,0-.5-.11-1.29m-4.74-13.75a.57.57,0,0,1,.18,0,.71.71,0,0,1,.15.08l0,.08-.3-.06Zm-7.05-10.8a1.59,1.59,0,0,0-.07-.2l.12,0,0,.2-.08,0m-2.2-3s0,0,0,0,0,0,0,0h0a0,0,0,0,0,0,0m-13.73,9.59c.13.14-.18.34-.25.27s.18-.34.25-.27m-.59-4.54h0v.07h0v-.07m.13,1.07-.34-.06c.18-.13.18-.13.34.06m-.28,1.88c-.13-.14.17-.34.24-.27s-.18.34-.24.27m0,3.72c-.13-.14.17-.34.24-.27s-.18.34-.24.27m-.1-6s0,0,0,.06l-.06,0,.07,0m-.3-.67v.07h0v-.07Zm-.29.8a1.71,1.71,0,0,0,.11.14l-.1.06c0-.05,0-.11-.08-.17Zm-.58-.68h0l0,.1-.09,0ZM105,24.06c.16-.8.53.25,1,0-.22.89-.55.23-1,0m.82,1.24a.14.14,0,0,1-.11,0,.23.23,0,0,1-.1-.07l0,0a.11.11,0,0,1,0-.11.16.16,0,0,1,.13-.09h.06a.32.32,0,0,1,.13.1.14.14,0,0,1-.06.19h0m-.08,4.07c0-.48.3-.56.25-1.06.44-.09.44,1.48-.25,1.06m.25-1.6c0-.25.3-.2.49-.26,0,.26-.3.21-.49.26m.61-1.58-.1,0a.75.75,0,0,1,0,.21h-1c-.17-.86.78-1,1-.41h0l.13,0h0l.07,0h0a.18.18,0,0,1-.07.08m-.12-1.61c.11-.38.22,0,.49,0a.23.23,0,0,1-.26.23.25.25,0,0,1-.23-.23m.74-1.33c-.67-.8.75.73,0,0m.15,5.89h0c-.17-.07-.17-.16-.12-.24a.18.18,0,0,1,.17-.07.25.25,0,0,1,.1.08c.11.11,0,.26-.15.23m.57-.83c-1.37.52-.23-.66.27,0,.2.27-.44.11-.27,0m.3-7.45,0,0,0,0,.06,0-.06,0m-1,10.37c.13.14-.18.34-.24.27s.18-.34.24-.27m-.74.53c.47,0-.2,1-.24,1.33-.33-.09-.39-.47-.75-.53-.1-.73.92-.25,1-.8m-1,1.59c0,.26-.3.21-.49.27,0-.26.3-.21.49-.27m-.2,22.14,0,0v0Zm.08-9.65-.1-.1a.3.3,0,0,1-.1-.31s0,0,0,0,.25.2.25.33a.17.17,0,0,1-.07.13m.37-12.75c.49.44.31,0,1,0-.32.46-.51,1-1.24,1.06a1.53,1.53,0,0,0,.25-1.06m.08,3.1a.09.09,0,0,1,.11,0,.31.31,0,0,1,.09.11c0,.1.07.23,0,.26a.08.08,0,0,1-.11,0c-.11-.06-.18-.32-.11-.37M105.89,48l0-.06.17-.12,0,.06-.18.12m.19-8.88L106,39l.08,0,0,.13,0,0m.1-1.86a.1.1,0,0,1-.12,0c-.1-.07-.17-.32-.11-.38a.09.09,0,0,1,.12,0c.11.06.18.32.11.37m.94,18.8,0,0,.15,0-.14.07m-.1-7.55a2.76,2.76,0,0,0,.08-.27l.1,0,0,.28-.14,0m.41,8h-.06a.83.83,0,0,0,0-.15l.1,0Zm-.14-21.75a.1.1,0,0,1-.05,0l-.32.14.06,0,0,0c-.14.06-.07.32-.31.29h0a.24.24,0,0,1-.07-.13v0a.15.15,0,0,1,0-.09.08.08,0,0,1,0,0,.23.23,0,0,1,.07-.07l0,0a.29.29,0,0,1,0-.1h0a4.71,4.71,0,0,1,.48-.29l.3.09c0,.07-.11.13-.17.2m.85,2.73h0l0,0h0a.08.08,0,0,1,0,0m.09,10.88a.51.51,0,0,0,0-.13h.05s0,.09,0,.13h0m.29,1.47,0-.07h.06l0,.07m19-30.55h.17a.1.1,0,0,0,.09-.08.14.14,0,0,1,.08.13.25.25,0,0,1-.09.2.21.21,0,0,1-.25.06Zm-4,4.9.5.22,0,.07-.51-.18,0-.11m.46,9.3a2.26,2.26,0,0,1-.29.25s-.14,0-.29-.12a4.15,4.15,0,0,1,.43-.19s.1,0,.15.06m-.92-11.71s.11,0,.16,0a4,4,0,0,1-.08.5.65.65,0,0,1-.16.22l-.14-.26c.07-.16.14-.32.22-.47m-.28,2.07.09.17h0s0,0,0,0v0l-.17-.09.07-.07m-2.32-2.06c.14.14.24.2.23.23a2.86,2.86,0,0,1-.15.41c-.06,0-.15-.08-.15-.12a4.63,4.63,0,0,1,.07-.52m.81-5.42c.34.08.21.66.25,1.06-.22-.17-.44-.32-.5,0-.73-.23.58-.4.25-1.06m-.49,1.86c-.55.14-.35-.51-.74-.53.1-.67.95,0,.74.53m-.6,2.15a1.31,1.31,0,0,1,.13.16l-.32.14-.08-.06.27-.24m-.64,2.1h.5c.11.57-.36.51-.74.53,0-.22.24-.26.24-.53m-.74-.53h.49v.53h-.49Zm0,.53.25-4.25c0-.22.25-.26.24-.53h.5c.12.57-.35.5-.74.53m.25-1.33c.13.14-.18.34-.25.26s.18-.33.25-.26m-.25,1.59c.13.14-.18.34-.25.27s.18-.34.25-.27m-1-.8s.89-.36.5.25c0-.16-.71-.19-.53,0-.16-.13-.18-.19,0-.25m.07,5.74-.38.35c-.07-.08-.2-.18-.19-.25s.14-.21.26-.36l.31.26m-1.31-3.61c.5-1,.71.91.25,1.06h.49c-.36.79-1-.35-1.73,0,.23-.31,1.53-.8,1-1.06m-.71-1.09,0,0a.54.54,0,0,1,0-.11l.06,0-.06.12m1.06-1.19.39.25c-.11.08-.18.15-.22.14a.55.55,0,0,1-.28-.15s.07-.16.11-.24m.39,1.21a.69.69,0,0,1-.74.54c-.11-.57.35-.51.74-.54m-1.23-1.06c0,.26-.3.21-.5.27,0-.26.3-.21.5-.27M115.59,19h.49v.53h-.49Zm3.18,5.28a10.74,10.74,0,0,1,1.25.11,4.8,4.8,0,0,1,1.63.57,3.94,3.94,0,0,1,1.41,1.34,4.36,4.36,0,0,1,.6,2.47,3.56,3.56,0,0,1-.51,2.13,2.34,2.34,0,0,1-1.26.87l-.13,0c0,.41-.4.57-.39.07a6.39,6.39,0,0,1-1.08.07l-1.52,0h-.69a1.23,1.23,0,0,1,0,.38h-1v-.38h-.57c-.1.08-.28.07-.42.11a.22.22,0,0,1,0-.11h-1a.6.6,0,0,0,.5.11c-.47.58-1.25.62-.74,1.6h-.11l0,.1a.42.42,0,0,0,.09.14,1,1,0,0,0-.24,0h-.06a1.34,1.34,0,0,0-.4.06v-.06a.49.49,0,0,1,0-.12s0,0,0,0l0-.06s0,0,0,0l.06,0,.13,0a.57.57,0,0,0-.33-.16v-.53c1,0,.46-1.2-.24-.53a.59.59,0,0,1,0-.37h-.36V24.3ZM123,34.7l-.06,0,0-.1H123l0,.09m-1.64,3,0,0,0-.2.1,0-.1.17m.08.91,0,.06s0,0,0-.08l0,0m-.18-.69-.13.16-.08-.06.13-.16.08.06M120.66,39l.06.09-.27.16-.06-.1.27-.15m-.33-6.2.06-.12.06,0-.06.12-.06,0m-.82,6.82v.07l0,0,0-.05m-.76.33v0s0,0,0,0h0m0,.63h0v-.1h0a.34.34,0,0,0,0,.1m-.22-8.24c0,.3-.24.14-.24,0,0-.3.24-.15.24,0m-.72.58c-.07.06-.24,0-.26.15h-.08l0,0v0l0-.05,0-.06v0a0,0,0,0,1,0,0,.05.05,0,0,0,0,0s0,0,0,0,.08-.1,0-.12c.09-.15.39-.12.35-.39l.09,0a1.23,1.23,0,0,0,.26.12.27.27,0,0,0-.06.12.61.61,0,0,0,0,.27m-2.49,2.61c-.52-1.07-.48.4-1.48.27a1.87,1.87,0,0,1,.24-1.33c.24.44.82.83,1,0,.25.17.26.61.74.53.78.08-.62-.77.25-.8h.5c.12,1-.88.83-1.24,1.33m.7,4-.2.05s0-.07,0-.1l.2,0a.29.29,0,0,0,0,.09m-1.11-1.8v0H115v0h-.11m0,.7v.09h0a.28.28,0,0,1,0-.09h0m-.14-1.12h-.15v-.07h.15Zm0-.07-.43.31s0,0,0,0h0a.05.05,0,0,1,0,0h0m1.46-3.61c0-.26.3-.21.49-.27,0,.26-.3.21-.49.27m-2.48-9.83c.83-.64-.6.89,0,0m.5-3.45c.13.13-.18.34-.25.26s.18-.34.25-.26m-.5-1.33c-.33-.08-.2-.67-.24-1.06.86-.24.42.86.24,1.06m-.44,9.07.12.06c-.07.17-.15.33-.22.49a1.11,1.11,0,0,1-.13-.07c.08-.16.16-.32.23-.48m-.33-7.22h0v.07h0Zm-.22,2.93c.83-.64-.6.89,0,0m0,.8c.13.14-.18.34-.25.27s.18-.34.25-.27m-1,4.93s.12.11.18.18a2.59,2.59,0,0,1-.39.25s-.15-.07-.35-.16a5.77,5.77,0,0,1,.56-.27m0,4.63h-.5v-.53h.5Zm0-.53L111,32.25a.64.64,0,0,1,0-.07l.26,0a.29.29,0,0,0,0,.09Zm-.37,2.9a.35.35,0,0,1,.23-.18h0c.12,0,.2.18.29.18s.07,0,.1-.1a.08.08,0,0,1,0,.06c0,.06-.08.12-.19.17l-.22.08,0,0-.2.12,0-.08.11,0-.14,0a.55.55,0,0,1-.06-.22.17.17,0,0,1,0-.07m-.6.94,0,0h0ZM110.23,32l0,0,0,0s0,0,0,0,0,0,0,0m0,3.16v.11H110s0-.05,0-.07l.19,0m-1.09-18.44a.09.09,0,0,1,.11,0c.11.07.18.32.11.37h0c-.16.14-.31-.29-.22-.36m.34,24.16-.06.06-.13-.13.07-.06.12.13m-.64,9.36c-.19-.14-.17-.26,0-.41.17.14.18.26,0,.41m.1-25.65c-.13-.13.18-.34.25-.26s-.18.34-.25.26m.14,8.74-.07,0,.09-.14.07.05-.09.13m.09,5.2h.1a1.36,1.36,0,0,0,0,.17h-.07Zm.1,10.83c-.1-.09-.1-.09,0-.29l.1.25c-.08,0-.12,0-.14,0m.33,1a1.77,1.77,0,0,0-.23-.16l.28-.11,0,.27m.09-28.13c.83-.64-.6.89,0,0m.25,2.39c-.13-.13.18-.34.25-.26s-.18.34-.25.26m.32,24.6c-.32,0-.34-.57-.17-.7a.17.17,0,0,1,.1,0c.16,0-.15.21.16.23-.23.1-.17.25-.09.47m1-.47h0c-.07,0-.1,0-.1-.06s.16-.15.1-.25-.1-.06-.17-.08V48.1h.61v0c0,.32-.38.3-.44.57m1.08-5.49c-.5.08-1,.17-1.49.24-.15,0-.31,0-.47,0a1.48,1.48,0,0,0-.29.12,1.49,1.49,0,0,1,.23-.27,3.7,3.7,0,0,1,.47-.29h0a.6.6,0,0,1,0-.23,5.05,5.05,0,0,1,.25-.45s0,.09,0,.1c-.16.16.23.57-.27.58h0c.16.32.46.08.68.11a2.77,2.77,0,0,0,.81-.1.58.58,0,0,1,.18,0s-.07.11-.12.11m-.38-9.07c.11-.38.22,0,.49,0a.23.23,0,0,1-.26.23.24.24,0,0,1-.23-.23m.13-2.07h0l0,0a.44.44,0,0,0-.09.18l-.09,0-.1.07a1.56,1.56,0,0,1-.16-.2l0,0a.78.78,0,0,1-.18-.58,1.47,1.47,0,0,1,1.23-.27c.18.69-.35.63-.61.85m1.6,0c-.07.54-.67.52-.74,1.06-.66-.31,0-1.41.74-1.06m-.56,7v0l.2,0Zm.37-6c0-.09-.07-.21-.1-.22l0,0q-.09-.06-.09-.12a.11.11,0,0,1,0-.07c.08-.1.28-.19.32-.28a.08.08,0,0,1,.07.1c0,.19-.3.58,0,.53,0,.12-.09.16-.12.15s-.07-.06-.1-.12m.35,22.52s0,0,0-.07l.17,0a.31.31,0,0,1,0,.08l-.17,0m.86-1.79-.39.47c0-.37,0-.37.39-.47m-.35-1.86v-.1h.52v.06Zm.48,3.4h-.16a.14.14,0,0,1,.1-.18A1,1,0,0,1,115,55c.06.2,0,.24-.19.25m.5-3.34a1.17,1.17,0,0,0-.05-.11l.08,0,0,.1-.06,0m5.12.75-.1,0c0-.1,0-.2.07-.3l.11,0c0,.1,0,.2-.08.3m.89,1.5-.21,0h0a1,1,0,0,0,0,.16H121c0-.05,0-.11,0-.17h.21Zm.24-.14-.08,0a1.8,1.8,0,0,1,0-.19l.08,0a1.46,1.46,0,0,1,0,.2m1.38-.44.46-.27c-.12.25-.12.25-.46.27M124.82,47a15.14,15.14,0,0,1-5.35.7h-6V41h6a15.65,15.65,0,0,1,5.36.67,2.59,2.59,0,0,1,1.66,2.64A2.68,2.68,0,0,1,124.83,47m2.11-9.25-.13-.07a2.5,2.5,0,0,1,.24-.16s0,0,.08,0l-.19.2m.26,7c0-.26.3-.21.5-.27,0,.26-.3.21-.5.27m.36-9.55a.15.15,0,0,1,.07-.11c.1,0,.11.26.14.23a.4.4,0,0,0,0-.15c.08,0,.12.15.15.15h0s0-.05,0-.07V35.2h0l0,0c.13.05.05.28.29.22a.13.13,0,0,1-.09.12.69.69,0,0,1-.32,0h-.2c0-.17-.15-.26-.15-.35m.76,8.08c-.1.07-.24.11-.31.21a.43.43,0,0,0,0,.07.16.16,0,0,1-.13-.08.3.3,0,0,1,0-.16.5.5,0,0,1,.1-.31.41.41,0,0,1,.18,0c.09,0,.14.06.21.12l.14.08a.27.27,0,0,1-.09.12m.11,5.27c0-.09,0-.13-.05-.18l.1.06s0,.05-.05.12m1.94-18.93h0s0,0,0,0h-.06s0,0,0,0m0,1.84a5.74,5.74,0,0,1,.49.4l-.24.35c-.14-.19-.3-.39-.43-.59a.65.65,0,0,1,.18-.15m-.06,1.75.22.19h-.4l.18-.19m.1.69-.06,0s0,0,.06,0Zm-.87.38,0,0a.52.52,0,0,1-.1.11l-.05,0Zm-.81,15.91a.19.19,0,0,1,0-.1h.05a.28.28,0,0,1,0,.09l0,0m.09-15.78.48.09a4.93,4.93,0,0,0-.46.23c0-.14,0-.23,0-.32m.27,15.73c0,.21,0,.35.06.53-.32-.16-.32-.17-.06-.53m.26-12.75a1.77,1.77,0,0,0,0-.24c.15.08.15.08,0,.24m.52-.09c-.26,0-.84-.51-.84-.84a2.71,2.71,0,0,1,.55-.41c.08,0,.33.1.41.21a8.11,8.11,0,0,1,.45.88,3.43,3.43,0,0,1-.57.17m1.93,1.2a.58.58,0,0,1-.19,0l-.53.1.62-.31h.13l.16.06a.76.76,0,0,1-.19.12m2.49,9.73a.4.4,0,0,1-.15,0c.06-.29.12-.57.2-.85,0-.08.13-.13.21-.19l.12.28c-.12.26-.24.53-.38.79"/></g><g id="Group_16" data-name="Group 16"><path id="Path_12" data-name="Path 12" class="cls-3" d="M67,3.39a.78.78,0,0,1,0-.12s0,.09,0,.12h.27V1.91h-.6a1.46,1.46,0,0,1-.12,1.43c-.53-.44-.09-.93-.1-1.43h-.5V0H64.49V1.91H62.72V.39l-.06,0a.65.65,0,0,1,0-.13h0V.15h0a.11.11,0,0,1,0-.15H61.52V.13H61.4s0-.08.05-.13h-.29V1.91H59.83v.72h0s0,.07,0,.07h0v.68h1.32V6.17H59.83V7.64h1.33V9.55h.62v0h.11v0h.83V7.64h1.77V9.55h1.56V7.64h1.32V6.17H66.05V3.39ZM60.11,2.2v0Zm0,4.23a.5.5,0,0,0,0-.12h0l.06.1-.09,0M65.3,1l0,.05-.1.09,0-.05L65.3,1M65,1.31s.08,0,.17,0L65,1.47s0,0,0-.05A.41.41,0,0,1,65,1.31m-.6.7c.75-1,.84.81,0,0m-.11,1.24c-.23,0-.23,0-.32-.32l.32.32M62.45,1c.12.13-.18.34-.25.26s.18-.34.25-.26m-.94,1.81v0Zm.34,0,0,0a.31.31,0,0,0,0,.09.21.21,0,0,1,0-.06M61.71,2c.75-.72-.68.81,0,0m.83,3.31,0,0v0Zm.15-.92H62.2V3.87h.49Zm-.24-.8c-.44-.13-.29-.41-.14-.72V2.66l0,.15a.77.77,0,0,0,.11-.53c1.1,0,.14,1.08,0,1.33M64.31,7s0,0,0,0h0c-.05.09-.18.1-.23.2-.2-.07-.39-.22-.39-.39a.2.2,0,0,1,.06-.14s0-.07.07-.09l.16,0a.63.63,0,0,1,.26.16.52.52,0,0,1,.1.11.13.13,0,0,1,0,.06m.18-2.73v1.9H62.72V3.39h1.77v.53l.18,0a.73.73,0,0,1-.18.4m.54.79V5l0,.06,0,0m.41,2a1.48,1.48,0,0,1-.12.29,2.48,2.48,0,0,1-.19-.26c0-.07,0-.15,0-.31s0-.11,0-.2a1.64,1.64,0,0,1,.21.25.46.46,0,0,1,.06.23m.22,1.74h0s0,0,0,0h0v0m-.74-4.68a1.66,1.66,0,0,0,.25-1.06c0-.26-.31-.21-.5-.27.08-.36.62-.22,1-.27,0,.81.14,1.75-.74,1.6m.16-1,.08,0a.15.15,0,0,0,0,.07l-.06,0m2,3.43.06.08L67,6.7l0,0,.1-.09"/></g><g id="Group_17" data-name="Group 17"><path id="Path_13" data-name="Path 13" class="cls-3" d="M75.29,2.09V.14h-.86l-.14.12a.74.74,0,0,1,0-.12H72.33c.19.14.21.52-.24.55-.14,0-.33-.11-.25-.27a.6.6,0,0,1,.24-.28H71c-.18.22-.54.54-.18,0H70a.39.39,0,0,1-.1.08.52.52,0,0,1-.21,0H69.5l-.32,0a.16.16,0,0,1,0-.07h-.09V9.55h6.16v-2H71V6h4.1V4H71V2.09Zm-2-1.38a1.11,1.11,0,0,0,0,.17h-.07c0-.05,0-.11,0-.17h.07M72.83,1l.27.21-.3.1c0-.11,0-.18,0-.31M69.69,3.35l-.06-.1h.09l0,.11M70.26.61V.41a.26.26,0,0,1,.13.1.68.68,0,0,1,0,.37v.2c-.2,0-.18-.26-.18-.47"/></g><g id="Group_18" data-name="Group 18"><path id="Path_14" data-name="Path 14" class="cls-3" d="M83.7,1.4V1.21h.1L84.43.14H82.25l-1.76,3L79,.64H79a.1.1,0,0,0,0-.05L78.73.14H76.54L79.39,5,77.56,8.12h1a1.35,1.35,0,0,0-.24.8c-.27-.33-.8.06-1.08-.17l0,.06s0,.08.1.14l-.17,0-.36.62h2.2l1.55-2.66,1.57,2.66h2.2L81.59,5ZM77.91,8.09l0,0v0ZM80.84,3.2v0h.1v0l-.1,0m.63-1.1h0V2.05l0,0v0"/></g><g id="Group_19" data-name="Group 19"><path id="Path_15" data-name="Path 15" class="cls-3" d="M93,2.79l-.11,0a.21.21,0,0,1,.1-.17,4,4,0,0,0-.15-.45.67.67,0,0,1-.18-.11l.16,0a1.39,1.39,0,0,0-.06-.19,2.19,2.19,0,0,0-.11-.19,1.06,1.06,0,0,0-.25,0,.23.23,0,0,1,.15-.19A2.85,2.85,0,0,0,92,.89a2.82,2.82,0,0,0-1-.58,3.14,3.14,0,0,0-1-.18H85.61V2.29h.07a.18.18,0,0,1-.07.15V8.12h.07s0,.09-.07.13V9.56h1.88V8.28c-.18-.13-.14-.14,0-.09v-1h2.67a3.1,3.1,0,0,0,.53-.1,4.06,4.06,0,0,0,.65-.27A2.62,2.62,0,0,0,92,6.3a3.74,3.74,0,0,0,1-2.81,4.14,4.14,0,0,0-.06-.7m-6.55,2.6a.09.09,0,0,1-.12,0c-.11-.06-.17-.31-.11-.37l0,0h.07c.11.06.17.32.11.37m.52,3c-.13-.14.17-.34.24-.26s-.18.34-.24.26m.81-1.66-.06-.07.25-.26.34.07-.53.26M91,4.44a1.39,1.39,0,0,1-.33.53.83.83,0,0,1-.4.24,1.33,1.33,0,0,1-.34,0H87.49V2.08H90a1,1,0,0,1,.34.06.8.8,0,0,1,.36.2.92.92,0,0,1,.28.42,1.8,1.8,0,0,1,.11.73,2.36,2.36,0,0,1-.14,1"/></g><g id="Group_20" data-name="Group 20"><path id="Path_16" data-name="Path 16" class="cls-3" d="M96.24,7.58v-.9c-.08.06-.18,0-.18-.15s.12-.19.18-.14V3.49c-.08.06-.18,0-.18-.15s.12-.19.18-.14V2.82a.55.55,0,0,1-.18,0,2,2,0,0,1,.18-.32V2.25c-.12-.07-.07-.17,0-.31V.14h-1.9V1.23a.13.13,0,0,1,0,.12V3.86c0-.24.3-.2.49-.26,0,.26-.3.21-.49.27V9.56h4.49a1.48,1.48,0,0,1,.69-.11.38.38,0,0,1,.23.11h.78v-2ZM96.06.68c-.22.17-.44.33-.49,0a.24.24,0,0,1,.26-.23.26.26,0,0,1,.23.23m-.74,1.07h.49v.8a1.11,1.11,0,0,0-.74-.27c.05-.21.25-.26.25-.53m.25,1.86c-.13-.14.17-.34.24-.27s-.18.34-.24.27m1.9,4.15-.08,0,0,0,.07.06,0,0m1.31.63c0-.26.3-.21.5-.27,0,.26-.3.21-.5.27M100,7.67V7.61h.16v.06H100"/></g><g id="Group_21" data-name="Group 21"><path id="Path_17" data-name="Path 17" class="cls-3" d="M110.16,3a5,5,0,0,0-1-1.5,4.68,4.68,0,0,0-1.45-1,4.42,4.42,0,0,0-3.54,0,4.56,4.56,0,0,0-1.45,1,5,5,0,0,0-1,1.5,4.83,4.83,0,0,0,0,3.66,4.94,4.94,0,0,0,1,1.49,4.59,4.59,0,0,0,1.45,1,4.32,4.32,0,0,0,1.77.37,4.37,4.37,0,0,0,1.78-.37,4.72,4.72,0,0,0,1.44-1,5.12,5.12,0,0,0,.5-.63.19.19,0,0,1-.1,0c-.22,0-.46-.36-.68-.59a.73.73,0,0,0-.31-.24c.18-.44.38-.55.56-.49a.62.62,0,0,1,.19.12,2.49,2.49,0,0,1,.52.87,6,6,0,0,0,.3-.56,4.81,4.81,0,0,0,.36-1.83A4.61,4.61,0,0,0,110.16,3m-1.85-1.54h0s0,.06,0,.1h0Zm-1.5-.23.08.05-.09.1,0,0,.06-.11m1.62,4.68a2.65,2.65,0,0,1-.58.87,2.53,2.53,0,0,1-.85.6,2.45,2.45,0,0,1-1,.22,2.54,2.54,0,0,1-1-.22,2.49,2.49,0,0,1-.84-.6,2.82,2.82,0,0,1-.58-.87,2.7,2.7,0,0,1-.21-1.08,2.67,2.67,0,0,1,.21-1.08,2.86,2.86,0,0,1,.58-.88,2.64,2.64,0,0,1,.84-.6,2.71,2.71,0,0,1,1-.22,2.65,2.65,0,0,1,1,.22,2.85,2.85,0,0,1,.85.6,3,3,0,0,1,.58.88,2.86,2.86,0,0,1,.22,1.08,2.71,2.71,0,0,1-.22,1.08"/></g><g id="Group_22" data-name="Group 22"><path id="Path_18" data-name="Path 18" class="cls-3" d="M120,8.71a4.69,4.69,0,0,0-.24-.89,4.61,4.61,0,0,0-.43-.86,3.44,3.44,0,0,0-.62-.75,2.72,2.72,0,0,0,.58-.91A3.46,3.46,0,0,0,119.49,4a4.82,4.82,0,0,0-.32-1.8c-.18.22-.55.24-.87.31.18-.31.2-.78.62-.83a3.37,3.37,0,0,0-.46-.61,3,3,0,0,0-.72-.55l-.45-.19c-.1.09-.15.1-.08,0l-.16-.07a3.45,3.45,0,0,0-.54-.11l-.28,0h-4.12V9.56h1a2.41,2.41,0,0,0,0-.38,3.93,3.93,0,0,0,.31.38H114V7.25h2.24a1.94,1.94,0,0,1,.79.14h0a1.12,1.12,0,0,0,.3-.87c.56.11,0,1.46.74,1.33a2.1,2.1,0,0,1-.27.24l.12.17a3.31,3.31,0,0,1,.18.53,3.55,3.55,0,0,1,.08.47c0,.14,0,.24,0,.3h1.88a4.8,4.8,0,0,0-.08-.85m-2.42-7c.12.13-.18.34-.25.26s.18-.34.25-.26M116.33,2c-.33-.08-.2-.66-.24-1.06.86-.24.42.86.24,1.06m-.92-.88-.21.21c0-.13,0-.19-.07-.29l.28.08m-.31.35c.12.14-.18.34-.25.27s.18-.34.25-.27m-.73-.19.11.06c0,.07-.07.14-.1.22l-.14-.07a2.39,2.39,0,0,1,.13-.21M113.61,1c.13.14-.17.34-.24.26s.18-.34.24-.26m0,1.33c.13.13-.17.34-.24.26s.18-.34.24-.26m-.48,2.2.09.15-.06,0-.11-.13.08-.07m-.76,2.05c-.12-.14.18-.34.25-.27s-.18.34-.25.27m.5-.53c0-.3.25-.15.25,0s-.25.14-.25,0m.25,2.92c-.13-.14.17-.34.24-.27s-.18.34-.24.27m.24-1.33c-.13-.14.18-.34.25-.26s-.18.33-.25.26m.34-4.07-.25,0,.06-.13.2.09a.14.14,0,0,1,0,.07m2.7,2.77L116,6.21a.15.15,0,0,1,0-.07l.4-.16Zm1.07-1.59a1.09,1.09,0,0,1-.38.39,1.3,1.3,0,0,1-.46.18,1.72,1.72,0,0,1-.39,0H114V3s0,0-.08,0a.2.2,0,0,1-.09-.17.33.33,0,0,1,.17-.24V2.07h2.24a1.42,1.42,0,0,1,.36.05,1.14,1.14,0,0,1,.47.26,1.67,1.67,0,0,1,.4.59A3,3,0,0,1,117.62,4a1.3,1.3,0,0,1-.16.67m1.18,1.79c.06.09.1.12.1.15a1.3,1.3,0,0,1-.16.18c0-.15,0-.21.06-.33m-.19-2.07h0v.06h0Zm.35,3.17c-.11.39-.22,0-.5,0a.25.25,0,0,1,.27-.23.24.24,0,0,1,.23.23m-.25,1.06a.26.26,0,0,1,.27-.22.26.26,0,0,1,.23.22c-.22.17-.44.32-.5,0"/></g><g id="Group_23" data-name="Group 23"><path id="Path_19" data-name="Path 19" class="cls-3" d="M127.57,2.09V.14h-4.44s-.1,0-.13,0h-1.14c-.16.56-.22.81-.34,1.34a1.53,1.53,0,0,1-.11-.42V9.55h6.16v-2H123.3V6h4.09v0h0V4H123.3V2.09ZM127.49.16h0v.1h0a.31.31,0,0,1,0-.1m-5.85,3.06v0l0,0Zm.07.54-.19,0a.19.19,0,0,1,0-.07l.18,0s0,.05,0,.07m.06-1.22c-.13-.13.18-.34.24-.26s-.17.34-.24.26m.49-1.33a.25.25,0,0,1,.5,0c-.11.39-.22,0-.5,0m4.19,4c0,.09,0,.15,0,.3-.1-.14-.16-.2-.24-.3Zm-1.61-1v0h-.08v0Z"/></g><g id="Group_24" data-name="Group 24"><path id="Path_20" data-name="Path 20" class="cls-3" d="M39.63,0,36.27,3.46v9.78l3.36-3.46,4.44,4.58c0-.11.09-.23.14-.34,0,.06.13.13.12.18a1.7,1.7,0,0,1-.1.32l5.81,6,4.75-4.89Zm1.26,5.26c0,.27-.13.41-.36.36s-.24-.13-.23-.35.13-.41.37-.37a.3.3,0,0,1,.22.36m1,6.16s-.1-.09-.09-.12l.09-.24a.64.64,0,0,1,.1.13,2.29,2.29,0,0,1-.1.23M48.06,10a1.06,1.06,0,0,1,.09.25s-.06.07-.09.12a1.06,1.06,0,0,1-.09-.25S48,10,48.06,10m-3.8,1.82a1.06,1.06,0,0,1-.09-.25s.06-.08.09-.12a1.06,1.06,0,0,1,.09.25s-.06.08-.09.12M48.06,18c0-.05-.1-.09-.09-.12a1.06,1.06,0,0,1,.09-.25l.1.13-.1.24M48.27,14c-.05-.06-.14-.14-.13-.19a1.63,1.63,0,0,1,.13-.37l.14.2-.14.36m3.5.18a.16.16,0,0,1,0-.12.26.26,0,0,1,.38-.09.22.22,0,0,1,.1.09c0,.05,0,.1,0,.13a.28.28,0,0,1-.38.09.32.32,0,0,1-.1-.1"/></g><g id="Group_25" data-name="Group 25"><path id="Path_21" data-name="Path 21" class="cls-3" d="M46.78,20.56c0,.06-.08.13-.1.12a1,1,0,0,1-.24-.26.37.37,0,0,1,0-.21l0,0a.38.38,0,0,1-.15,0c-.07-.11-.2-.28-.18-.33h0l-6.46-6.66-3.36,3.47v9.78L39.63,23,50,33.7l4.75-4.89ZM36.84,22.9l-.15-.2a1,1,0,0,1,.28-.17s.08.11.13.17l-.26.2m3.71-3.84a2.43,2.43,0,0,0-.14-.2c0-.12.1-.24.14-.36.05.06.14.14.13.18a1.71,1.71,0,0,1-.13.38M42,24.35c-.08.09-.2.27-.23.24-.25-.2-.08-.35.06-.48a.14.14,0,0,1,.17,0s0,.15,0,.24m.18-.26a.14.14,0,0,1-.17,0,.31.31,0,0,1,0-.23,2,2,0,0,1,.23-.27,1,1,0,0,1,.13.17,1.19,1.19,0,0,1-.19.33m2.06,2.81c-.05-.06-.14-.13-.13-.18a1.71,1.71,0,0,1,.13-.38l.14.2-.14.36m0-3.94-.1-.13a1,1,0,0,1,.2-.11s.06.07.09.12l-.19.12m.33-3.44s-.09-.12-.13-.18a1.27,1.27,0,0,1,.27-.18s.09.12.14.18a1.34,1.34,0,0,1-.28.18m.89,7.39c0-.07-.14-.14-.13-.19a1.71,1.71,0,0,1,.13-.38l.14.2c0,.12-.1.24-.14.36M47.8,27a.3.3,0,0,1-.26,0,.28.28,0,0,1-.21-.35h0c0-.22-.09-.48.1-.66.36,0,.07.49.29.62s.31.17.08.36m1.08,2.47.26-.2.15.2a1.34,1.34,0,0,1-.28.18s-.08-.11-.13-.18m.79,2.37c0,.18-.11.3-.29.29s-.33-.17-.29-.45.1-.3.29-.29.32.17.3.46"/></g><g id="Group_26" data-name="Group 26"><path id="Path_22" data-name="Path 22" class="cls-3" d="M39.63,26.36l-.68.7.19,0c-.2.46-.4.4-.58.37l-2.3,2.37v9.78l1.5-1.54a.11.11,0,0,1,0-.08s.06-.08.09-.12l0,.1,1.35-1.39s0,0,0,0,.06-.08.09-.12l0,.06.32-.34L42.44,39c.07-.08.2,0,.46.05a1.17,1.17,0,0,1-.15.27l2.46,2.54c0-.3,0-.6.06-1l1.14.76c-.07.11-.14.3-.22.31a6.07,6.07,0,0,1-.85,0L50,46.88l1.14-1.17,0,0a.44.44,0,0,1,.25-.2l.44-.45s-.09-.11-.08-.13c.09-.18.16-.11.22,0L54.79,42Zm-2.74,6.7a2.29,2.29,0,0,1-.12-.37s.08-.12.12-.19a1.9,1.9,0,0,1,.13.38s-.08.12-.13.18m.78-3.34c.2-.26.39-.26.59,0-.2.26-.39.26-.59,0m1.39-.22a1.81,1.81,0,0,1-.33.2c-.2,0-.4,0-.34-.36s.51-.3.66,0a.22.22,0,0,1,0,.18m3.52,3a1.63,1.63,0,0,1,.13.37s-.08.13-.13.19c0-.12-.09-.25-.13-.38s.09-.12.13-.18M40.5,30.56a.82.82,0,0,1-.2-.12,1.47,1.47,0,0,0,.1-.13l.19.13s-.07.12-.1.12m.85,3a1.15,1.15,0,0,1-.1-.23l.1-.13a1.06,1.06,0,0,1,.09.25s-.06.08-.09.12m.29-4a1.17,1.17,0,0,1,.09.24s-.06.08-.09.12-.07-.16-.1-.23a1.47,1.47,0,0,1,.1-.13m-.07,6.58c.65-.73.86.22,1.23.6-.65.74-.86-.2-1.23-.6m3.38-3.45-.24.13c-.14,0-.29,0-.25-.24s.37-.19.48,0a.17.17,0,0,1,0,.12M45.37,40s-.06-.07-.1-.11l.19-.13a.64.64,0,0,1,.1.13l-.2.11m.79.27s-.08-.12-.13-.18l.26-.2.15.2a1.67,1.67,0,0,1-.28.18m1.64-.62-.18-.13s.07-.12.1-.11l.2.11a.64.64,0,0,0-.1.13m.54,4a.85.85,0,0,1-.09-.24s.06-.08.09-.12a1.06,1.06,0,0,1,.09.25s-.06.07-.09.11m1-2.65a.28.28,0,0,1-.38.1.27.27,0,0,1-.1-.11.17.17,0,0,1,0-.12.27.27,0,0,1,.39-.08.26.26,0,0,1,.09.09s0,.1,0,.12"/></g><g id="Group_27" data-name="Group 27"><path id="Path_23" data-name="Path 23" class="cls-3" d="M42.81,52.4H43V42.85l-.4-.41c-.09.15-.25.22-.35.13a2.32,2.32,0,0,1-.4-.48s0-.22.08-.23H42l-2.38-2.39-3.36,3.38v13.5H43V53.21c-.13.18-.27.34-.54.2-.19-.3.16-.32.2-.5s-.09-.38.16-.51m-4.6-2a.28.28,0,0,1-.38.1.22.22,0,0,1-.1-.09.17.17,0,0,1,0-.12.28.28,0,0,1,.38-.11.32.32,0,0,1,.1.1s0,.08,0,.12m.19-8.21s-.1-.09-.09-.12a1.17,1.17,0,0,1,.09-.24.64.64,0,0,1,.1.13c0,.07-.07.15-.1.23M41,54.9a1.17,1.17,0,0,1-.09-.24s0-.08.09-.12a1.17,1.17,0,0,1,.09.24s-.06.08-.09.12m1.46-6.16c0-.08-.07-.16-.1-.23l.1-.13a1.17,1.17,0,0,1,.09.24s-.06.08-.09.12"/></g><g id="Group_29" data-name="Group 29"><path id="Path_25" data-name="Path 25" class="cls-3" d="M30.94,8.3,25.18,17,9,41.6h11l0-.05.06.05H30.94V18.83a2.11,2.11,0,0,1-.05-.71.82.82,0,0,0,0-.31.6.6,0,0,1,.08-.08ZM10.85,41.49a1.47,1.47,0,0,1-.1-.13c0-.07.07-.15.1-.23s.1.09.09.12a.85.85,0,0,1-.09.24m4.69-8.43c0-.06-.14-.13-.13-.18a1.63,1.63,0,0,1,.13-.37l.14.2c0,.11-.1.23-.14.36m3.6-4-.24.13c-.14,0-.28,0-.24-.24s.36-.19.47,0a.17.17,0,0,1,0,.12m3.71-7.73c.18,0,.42,0,.51.17a1.6,1.6,0,0,1,0,.72c0,.06-.08.13-.19.27a9.1,9.1,0,0,1-.48-.81.55.55,0,0,1,.12-.35M22,23.54l.14.2c0,.12-.1.24-.14.36-.05-.06-.14-.13-.13-.18a1.71,1.71,0,0,1,.13-.38M20.41,37c-.05-.06-.14-.14-.13-.19a2.32,2.32,0,0,1,.13-.37,1.73,1.73,0,0,1,.14.2c0,.11-.1.24-.14.36m.81-10.65A1.77,1.77,0,0,1,21.1,26s.08-.13.12-.19a1.71,1.71,0,0,1,.13.38s-.08.12-.13.18m.69.19c0-.05.08-.13.13-.19a2.4,2.4,0,0,1,.12.38s-.08.12-.12.18a1.82,1.82,0,0,1-.13-.37m.3.4s-.07-.07-.1-.11a.82.82,0,0,1,.2-.12s.06.08.1.12a.78.78,0,0,1-.2.11m.62,3c-.13,0-.31.09-.37-.12a1.24,1.24,0,0,1,0-.47c0-.05.06-.09.1-.13.13.17.27.33.39.5s-.07.21-.12.22m.23-.47a.69.69,0,0,1,.22-.23.3.3,0,0,1-.23-.13.17.17,0,0,1,0-.12.27.27,0,0,1,.38-.11.35.35,0,0,1,.11.1.48.48,0,0,1,0,.12s0,.05-.06.07c.13,0,.27.1.4.3-.27.4-.54.4-.82,0m1.3,9.48-.19-.13s.07-.12.1-.11l.2.11-.1.13m.6-4.26a1,1,0,0,1-.27-.18l.14-.2.27.2c-.05.07-.1.19-.14.18m3.77-17.73a.91.91,0,0,1,.1.13,1,1,0,0,1-.2.11s-.06-.07-.1-.11l.19-.13m-.3,1c-.05-.07-.14-.18-.13-.2.1-.22.19-.07.25.05a.19.19,0,0,1,0,.15s-.08,0-.12,0m.13,0a.09.09,0,0,1,.12,0,.8.8,0,0,1,.15.21s-.08.12-.1.11a.91.91,0,0,1-.17-.17.2.2,0,0,1,0-.15m0,4.89c0-.05.07-.12.1-.12a.82.82,0,0,1,.2.12l-.1.12-.19-.12M29,35.27s-.07-.08-.1-.12L29,35l.1.12a1.06,1.06,0,0,1-.2.12m.43-22.15c-.11.18-.43.18-.47,0s.1-.25.24-.24l.24.13a.26.26,0,0,1,0,.12m.49-2.06a1.17,1.17,0,0,1-.09-.24s.06-.08.09-.12.07.16.1.23l-.1.13m.3-.4a2.43,2.43,0,0,1-.13-.38s.09-.12.13-.18a1.82,1.82,0,0,1,.13.37s-.08.13-.13.19"/></g><g id="Group_30" data-name="Group 30"><path id="Path_26" data-name="Path 26" class="cls-3" d="M24.29,46.6h0a1.62,1.62,0,0,0-.1.18s-.09-.07-.08-.09a.19.19,0,0,1,0-.1H0l2,3.48a12.19,12.19,0,0,0,10.6,6.27H17.5a.32.32,0,0,1-.17-.09.24.24,0,0,1,.35,0l0,0a.31.31,0,0,1-.18.09H28v0l0,0h2.17l0,0,0,0h.71V46.6ZM2,47.48a.22.22,0,0,1-.31,0h0a.06.06,0,0,1,0-.06.22.22,0,0,1,.32,0H2s0,0,0,.06m.81-.24a.3.3,0,0,1-.41,0l0,0a.14.14,0,0,1,0-.09.28.28,0,0,1,.4,0l0,0s0,.06,0,.09m4.69.86S7.48,48,7.45,48l.17-.1.1.1-.18.09m.81,2.78s-.06,0-.06-.05l.06-.12.07.06-.07.11m.94,3.45-.22.1c-.13,0-.27,0-.23-.18s.34-.15.44,0,0,.08,0,.09m1.26-3.86s0,0-.09.09a2.68,2.68,0,0,1-.23-.26s0-.11,0-.11a.47.47,0,0,1,.25.05s0,.15,0,.23m-.06-1.82s-.06-.06-.09-.09l.18-.08s.06.05.09.08a.76.76,0,0,1-.18.09m.6,5.5S11,54,11,54s.17-.05.24,0a.21.21,0,0,1,0,.11s-.08,0-.12,0m.28.25-.16-.13a.11.11,0,0,1,0-.11.13.13,0,0,1,.12,0l.13.15s-.08.09-.09.09m1,.52s-.06,0-.09-.08l.18-.1.1.1-.18.08M13,48.76a.24.24,0,0,1-.06-.11s0,0,.06-.06l.06.11-.06.06m.5,5.38-.1-.1.1-.17s.08.07.08.09a1.42,1.42,0,0,1-.08.18M14.7,56l-.06-.05.13-.06.06.06L14.7,56m1.21-4-.1-.1.1-.17s.09.06.08.08a1.08,1.08,0,0,1-.08.19m0-4.64s-.1,0-.1-.08a.76.76,0,0,1,.09-.18l.1.1-.1.18m.22,8.4s-.06-.06-.09-.09l.18-.08s.06,0,.09.08l-.18.09m.31-1a1.08,1.08,0,0,1-.08-.19s0,0,.08-.09a1.62,1.62,0,0,1,.1.18l-.1.1m0-2.26s0,0-.06,0l.13-.06s0,0,.06.06l-.13,0m.27,1.44a1.42,1.42,0,0,1-.08-.18s.05-.06.08-.09a.66.66,0,0,1,.09.19s-.06.05-.09.08m.57-4.08-.13,0,.07-.07.12.07s0,.06-.06,0m6.92,3.55a.75.75,0,0,0,.07.12l-.07.06a.34.34,0,0,1-.06-.12s0,0,.06-.06M18,53.88a1.08,1.08,0,0,1-.08-.19s.05-.06.08-.09a.66.66,0,0,1,.09.19s-.06.06-.09.09m.8.27-.1-.1.1-.18s.09.07.09.09a.61.61,0,0,1-.09.18m.07-2.84c0-.1.24-.1.32,0s0,.05,0,.05l-.16.07c-.1,0-.19,0-.16-.12m.19.94a.06.06,0,0,1,0-.06.23.23,0,0,1,.32,0h0s0,0,0,.06a.21.21,0,0,1-.31,0h0m.76,2.95s-.06,0-.09-.08L20,55l.1.1-.18.08m1.72-7.32c-.17,0-.27-.19-.2-.38s.14-.13.16-.11.25.24.4.39a1.36,1.36,0,0,1-.36.1m.24-.71-.07-.07L21.9,47s0,0,.07.05l-.13.07m.22,6.54s-.06,0-.06-.06l.06-.12.07.07-.07.11m.23-6.32.18.09-.1.1-.17-.1s.06-.09.09-.09m0,.68a1.42,1.42,0,0,1,.08-.18l.1.1a1.62,1.62,0,0,1-.1.18s-.09-.07-.08-.09m.23,3.13-.13-.05.07-.07.12.07s0,.06-.06.05M23.61,53l-.07-.06.07-.12s.06,0,.06.06l-.06.12m0-6,.1-.17s.09.06.08.09a1.42,1.42,0,0,1-.08.18l-.1-.1m.16,1.51c0-.1.24-.09.31,0a0,0,0,0,1,0,.06l-.15.06c-.1,0-.19,0-.16-.12m.51,5.7-.16.06c-.1,0-.19,0-.16-.11s.24-.1.31,0,0,.05,0,.05m3.17.52.1.1a1.62,1.62,0,0,1-.1.18s-.09-.07-.08-.09a1,1,0,0,1,.08-.18m-.53-3.63h.37s.06.07.07.11a.11.11,0,0,1-.06.06H26.9s-.06-.07-.08-.11,0-.06.07-.06M25.3,47.61a.11.11,0,0,1,.11,0s0,.07,0,.11-.14.13-.16.12-.05-.17,0-.23m.07,3.24a.67.67,0,0,1-.12-.06s.05-.06.06,0l.13,0-.07.06m.16-3.25a.08.08,0,0,1-.11-.11.87.87,0,0,1,.15-.13s.09.07.08.08a.61.61,0,0,1-.12.16m.39,8.57-.06-.12.06,0a.24.24,0,0,1,.06.11s0,0-.06.06m.2-5.47a.24.24,0,0,1-.06-.11s0,0,.06-.06l.07.11-.07.06M27,55.9a.23.23,0,0,1-.3.08l-.06,0s.06-.09.1-.1H27a.09.09,0,0,1,0,.07m0-.07a.5.5,0,0,1,.62-.36l.11.05a1.41,1.41,0,0,1-.73.31m1.83-7.42a.34.34,0,0,1,.06.12s0,0-.06.06l-.06-.12.06-.06m-.38-.52.06.11s0,0-.06.06L28.37,48l.07-.06m-.39,3.17s.06,0,.06.06l-.06.12L28,51.17l.07-.11m.45,4.17-.21.07c-.13,0-.24,0-.3-.07a.06.06,0,0,1,0-.06.57.57,0,0,1,.51,0,.06.06,0,0,1,0,.06m.32-4-.06-.06.06-.12.07.06-.07.12m.39-2.91a1.62,1.62,0,0,1,.1-.18s.09.07.08.09a1,1,0,0,1-.08.18l-.1-.1m.19,3.62-.07-.11.07-.07a.34.34,0,0,1,.06.12l-.06.06M29.59,56l-.06-.12s0,0,.06-.06l.07.12-.07.06"/></g></g></g></g></svg>