<svg xmlns="http://www.w3.org/2000/svg" viewBox="0 0 58.64 72.18"><path id="Path_12" data-name="Path 12" class="fill" d="M30.3,0C10.52,0,0,12.68,0,26.5c0,6.41,3.58,14.4,9.32,16.94.87.39,1.34.22,1.54-.58.17-.62.92-3.57,1.29-5a1.28,1.28,0,0,0-.31-1.25,16.43,16.43,0,0,1-3.42-10c0-9.64,7.67-19,20.71-19C40.41,7.67,48.3,15,48.3,25.47c0,11.84-6.27,20-14.41,20-4.51,0-7.86-3.54-6.8-7.92C28.38,32.38,30.9,26.78,30.9,23c0-3.37-1.9-6.16-5.8-6.16-4.58,0-8.31,4.55-8.31,10.65A15.15,15.15,0,0,0,18.17,34L12.78,55.76c-1.42,5.8.2,15.18.34,16a.47.47,0,0,0,.52.42A.44.44,0,0,0,14,72c.45-.59,5.93-8.41,7.47-14.07.56-2.06,2.86-10.42,2.86-10.42,1.51,2.73,5.87,5,10.52,5,13.82,0,23.81-12.14,23.81-27.22C58.59,10.81,46.22,0,30.3,0Z"/></svg>