<svg xmlns="http://www.w3.org/2000/svg" width="125" height="36" viewBox="0 0 125 36"><g transform="translate(-993 -2086)"><g transform="translate(-1)"><g transform="translate(1078.151 2095)"><path d="M977.1-207.228a10.047,10.047,0,0,1-2.779.762,4.8,4.8,0,0,0,2.121-2.666,9.626,9.626,0,0,1-3.058,1.168,4.833,4.833,0,0,0-3.523-1.526,4.821,4.821,0,0,0-4.819,4.824,4.951,4.951,0,0,0,.112,1.1,13.647,13.647,0,0,1-9.94-5.044,4.853,4.853,0,0,0-.66,2.438,4.829,4.829,0,0,0,2.142,4.008,4.761,4.761,0,0,1-2.179-.594v.053a4.845,4.845,0,0,0,3.864,4.739,4.831,4.831,0,0,1-1.264.159,4.263,4.263,0,0,1-.913-.082,4.868,4.868,0,0,0,4.506,3.359,9.69,9.69,0,0,1-5.979,2.057,9.021,9.021,0,0,1-1.154-.066,13.578,13.578,0,0,0,7.4,2.164A13.631,13.631,0,0,0,974.7-204.1c0-.213-.007-.419-.018-.624a9.622,9.622,0,0,0,2.417-2.5Zm0,0" transform="translate(-953.58 209.49)" fill="#38383c"/></g><text transform="translate(1038 2109)" fill="#38383c" font-size="12" font-family="Montserrat-Bold, Montserrat" font-weight="700" letter-spacing="0.2em"><tspan x="-26.946" y="0">TWEET</tspan></text></g><g transform="translate(993 2086)" fill="none" stroke="#707070" stroke-width="1"><rect width="125" height="36" rx="9" stroke="none"/><rect x="0.5" y="0.5" width="124" height="35" rx="8.5" fill="none"/></g></g></svg>