<svg id="Layer_1" data-name="Layer 1" xmlns="http://www.w3.org/2000/svg" width="125" height="36" viewBox="0 0 125 36"><defs><style>.cls-1{fill:#38383c;}.cls-2{isolation:isolate;}.cls-3,.cls-4{fill:none;}.cls-4{stroke:#707070;}</style></defs><path class="cls-1" d="M107.67,11.26a9.89,9.89,0,0,1-2.78.76A4.75,4.75,0,0,0,107,9.36,9.8,9.8,0,0,1,104,10.53a4.82,4.82,0,0,0-8.34,3.29h0a5.78,5.78,0,0,0,.11,1.1,13.65,13.65,0,0,1-9.94-5,5,5,0,0,0-.66,2.44,4.86,4.86,0,0,0,2.15,4,4.75,4.75,0,0,1-2.18-.6v.06A4.83,4.83,0,0,0,89,20.52a4.49,4.49,0,0,1-1.26.16,4,4,0,0,1-.91-.08A4.85,4.85,0,0,0,91.28,24a9.74,9.74,0,0,1-6,2.06A8.88,8.88,0,0,1,84.15,26a13.72,13.72,0,0,0,21.12-11.37v-.19c0-.21,0-.42,0-.62a9.75,9.75,0,0,0,2.42-2.5Z"/><g class="cls-2"><g class="cls-2"><path class="cls-1" d="M17.14,14.59h7.21V16.4H21.83V23h-2.2V16.4H17.14Z"/><path class="cls-1" d="M38,14.59H40.2L37.36,23H35.1l-1.59-5.72L31.89,23H29.63L26.8,14.59h2.36l1.66,6.14,1.65-6.14h2.15l1.68,6.14Z"/><path class="cls-1" d="M43.39,14.59H50v1.75H45.59v1.57h4v1.74h-4v1.59h4.56V23H43.39Z"/><path class="cls-1" d="M53.89,14.59h6.64v1.75H56.09v1.57h4v1.74h-4v1.59h4.56V23H53.89Z"/><path class="cls-1" d="M63.66,14.59h7.21V16.4H68.35V23H66.16V16.4h-2.5Z"/></g></g><rect class="cls-3" width="125" height="36" rx="9"/><rect class="cls-4" x="0.5" y="0.5" width="124" height="35" rx="8.5"/></svg>