<svg id="Logo_option_1" data-name="Logo option 1" xmlns="http://www.w3.org/2000/svg" width="456.71" height="82.69" viewBox="0 0 456.71 82.69"><defs><style>.cls-1{fill:#38383c;}</style></defs><path class="cls-1" d="M384.41,45.56l3.52,8.28h1.28L393,45.56c.45-.94.65-1.22,1.31-1.3v-.32h-3.76v.32a.82.82,0,0,1,.89.83,2.72,2.72,0,0,1-.21.83l-2.05,4.68-1.9-4.83a2,2,0,0,1-.19-.7.82.82,0,0,1,.81-.81v-.32h-4.87v.32c.66.08,1,.46,1.35,1.3"/><path class="cls-1" d="M237.69,76.3c-1.62,1.21-4.14,1.52-6.23,1.52-3.68,0-3.73-2.1-3.73-4.67v-9h3.62a10.29,10.29,0,0,1,5.71,1.26A6.48,6.48,0,0,1,240,71.16a6.31,6.31,0,0,1-2.31,5.14m-10-27.79h2.2a13.42,13.42,0,0,1,5.3.68c2.09,1,3,2.78,3,5.24,0,4.73-4.14,5.77-7.71,5.77h-2.78Zm10.38,13.11c4-1,7.5-3.36,7.5-8.28a7.89,7.89,0,0,0-5-7.71c-2-.84-4.56-1-7.81-1H217.4v.79c3.2.42,3.2,2.25,3.2,5V76.09c0,2.88-.36,4.24-3.2,4.77v.78h15.84c2.83,0,6.44,0,9.54-1.88a9.66,9.66,0,0,0,4.66-8.39c0-5.77-4.29-8.7-9.33-9.75"/><path class="cls-1" d="M256.88,61V56.48l-10.12,5.3.26.57c3.3,0,3.35,2.57,3.35,5.24v7.76a10.54,10.54,0,0,1-.41,3.36,4,4,0,0,1-2.68,2.2v.74h12.79v-.74c-2.88-1-3.19-1.67-3.19-5.56V68.17a6.82,6.82,0,0,1,1-4.25A4.91,4.91,0,0,1,262,61.83a4.19,4.19,0,0,1,3.88,2.57h.63l1.1-7a8.22,8.22,0,0,0-3-.58c-4,0-6.09,2.36-7.71,4.2"/><path class="cls-1" d="M295.45,72.84V57l-9.65,1.94v.74c2.57.36,3.09,1.36,3.09,3.87V72a5.4,5.4,0,0,1-5.82,6,4.52,4.52,0,0,1-4.66-3.14A9.12,9.12,0,0,1,278,72V57l-9.49,1.94v.74c2.67.36,2.94,1.73,2.94,4.51v9.17a9.51,9.51,0,0,0,1.67,6.24c.68.89,2.63,3,7,3a11.25,11.25,0,0,0,9.12-4.67,8,8,0,0,0,3.46,4.82l5.77-4.3-.32-.52c-2.72-.52-2.72-2.46-2.72-5"/><path class="cls-1" d="M326.06,75.62v-9c0-2.31-.05-4.67-1.62-6.66a8.44,8.44,0,0,0-6.87-3c-4.51,0-7.13,2.47-8.87,4.09V56.48l-10.17,5.3.37.62c3.2.11,3.25,1.79,3.25,5.14v8c0,2.62,0,4.93-3.15,5.4v.73h12.7l-.06-.73c-2.83-.79-2.94-1.94-2.94-4.77v-9a5,5,0,0,1,1.89-4.46,6.06,6.06,0,0,1,3.73-1.15c5.14,0,5.19,4.3,5.19,5.61v9c0,2.73-.05,4.14-2.89,4.77v.73h12.59v-.73c-3.1-.57-3.15-2-3.15-5.29"/><path class="cls-1" d="M343,67.91l-2-.94c-1.68-.79-3.67-1.74-3.67-3.78,0-1.73,1.63-3.09,4-3.09,3.77,0,4.5,2.62,4.87,3.93H347V58.21A18.74,18.74,0,0,0,340.21,57c-6,0-9.28,3.36-9.28,7.34,0,3.67,2.68,5.14,4.09,5.93l2.2,1c1.84.94,4.15,2.14,4.15,4.45,0,2.62-2.41,3.62-4.62,3.62-3.93,0-4.87-2.73-5.34-4.25h-.79v6.24a20.6,20.6,0,0,0,7.13,1.21c4.14,0,6.45-1.36,7.6-2.36a7.68,7.68,0,0,0,2.57-5.66c0-4.3-3.61-6-4.88-6.61"/><path class="cls-1" d="M392.13,57.84H382.8v.74a2.22,2.22,0,0,1,2.2,2.2,5.06,5.06,0,0,1-.53,1.84l-5.08,11.53-4.83-11.53a7.19,7.19,0,0,1-.36-1.74,2.24,2.24,0,0,1,2.1-2.3v-.74H364.18v.74c1.37.26,2,.63,2.84,2.36l1.2,2.56L363.4,74.15l-4.67-11.38a5.2,5.2,0,0,1-.47-1.89,2.19,2.19,0,0,1,2.15-2.3v-.74H348.25v.74c2,.68,2.25,1.1,3.41,3.77l8.59,19.77h3.09L370,67.86l6.3,14.26h3.09l9.28-19.77c1.1-2.36,1.42-3.09,3.46-3.77Z"/><path class="cls-1" d="M276.3,45.77l3.48,8H281l2.7-5.78,2.55,5.78h1.25l3.76-8c.45-1,.58-1.26,1.41-1.53v-.3h-3.79v.3a.91.91,0,0,1,.9.89,2,2,0,0,1-.22.74l-2.06,4.68-1.95-4.68a2.92,2.92,0,0,1-.15-.7.9.9,0,0,1,.85-.93v-.3h-4.91v.3c.55.1.81.25,1.15.95l.49,1.05-2,4.31-1.88-4.61a2.08,2.08,0,0,1-.2-.77.88.88,0,0,1,.87-.93v-.3h-4.93v.3c.81.27.92.44,1.39,1.53"/><path class="cls-1" d="M401.86,76V56.48L391.8,61.41l.31.58c3.09-.16,3.25,1.25,3.25,4v9.75c0,3,0,4.25-3.15,5.19v.74h12.9v-.74c-2.83-.68-3.25-1.42-3.25-4.88"/><path class="cls-1" d="M426.88,73.78c-1.57,1.57-3.67,3.68-7.65,3.68-6.14,0-8.23-5.15-8.23-9.08,0-4.19,2.09-8.39,7.18-8.39,4.72,0,5.87,3.31,6.71,5.61h.73l1.21-6A14.58,14.58,0,0,0,418.18,57c-8,0-13.05,6-13.05,13.42,0,5.25,3,12.17,11.53,12.17,4,0,8-1.42,11-8.34Z"/><path class="cls-1" d="M453.3,78l-10-10.53,7.34-6.55c2-1.79,2.1-1.84,3.57-2.31v-.74H444v.74c.47.1,1.47.31,1.47,1.26,0,.68-.47,1.15-1.47,2.15l-7.34,6.44V44l-10.12,5.2.32.62a3.72,3.72,0,0,1,1-.15c2.26,0,2.31,2,2.31,4.14V76.72c0,2.25-.26,3.72-3,4.19v.74h12.48v-.74c-2.94-.63-3-2.25-3-4.66V69.38L444.76,78c2.62,2.73,3.62,3.62,8.18,3.68h3.77v-.74A10.14,10.14,0,0,1,453.3,78"/><path class="cls-1" d="M348.84,53.33c-.88-.19-1.28-.4-1.28-1.85v-10l10.57,12.28h1.28v-13c0-1.19.19-1.64,1.28-1.85v-.33h-4.25v.33c1.2.21,1.32.74,1.32,1.94V49l-8.92-10.45h-4.25v.33a1.28,1.28,0,0,1,1.17.72,2.58,2.58,0,0,1,.13,1V51.48a2,2,0,0,1-.38,1.49,1.41,1.41,0,0,1-.92.36v.3h4.25Z"/><path class="cls-1" d="M253.26,53.33c-.88-.19-1.28-.4-1.28-1.85v-10l10.57,12.28h1.28v-13c0-1.19.19-1.64,1.28-1.85v-.33h-4.25v.33c1.2.21,1.33.74,1.33,1.94V49l-8.93-10.45H249v.33a1.29,1.29,0,0,1,1.18.72,2.79,2.79,0,0,1,.12,1V51.48a2,2,0,0,1-.38,1.49,1.41,1.41,0,0,1-.92.36v.3h4.25Z"/><path class="cls-1" d="M364.27,45.68a2.19,2.19,0,0,1,1.7-.87,2.26,2.26,0,0,1,1.61.71,5.36,5.36,0,0,1,1,3.46c0,.72-.06,2.77-1.34,3.54a2.11,2.11,0,0,1-1,.26c-2,0-2.73-2.37-2.73-4.27a4.71,4.71,0,0,1,.75-2.83m-2.18,6.86A5,5,0,0,0,365.93,54c4,0,5.51-2.75,5.51-5.25a5,5,0,0,0-5.31-5.17,5.18,5.18,0,0,0-5.45,5.28,5.29,5.29,0,0,0,1.41,3.69"/><path class="cls-1" d="M372.63,46.5v3.74a3.88,3.88,0,0,0,.68,2.54A3.36,3.36,0,0,0,376.15,54a4.58,4.58,0,0,0,3.72-1.9,3.28,3.28,0,0,0,1.41,2l2.35-1.76-.13-.21c-1.11-.21-1.11-1-1.11-2.05V43.57l-3.93.79v.3c1,.15,1.26.56,1.26,1.58v3.44a2.37,2.37,0,0,1-.51,1.66,2.41,2.41,0,0,1-1.86.78,1.85,1.85,0,0,1-1.9-1.29,3.57,3.57,0,0,1-.15-1.15V43.57l-3.87.79v.3c1.09.15,1.2.71,1.2,1.84"/><path class="cls-1" d="M396.55,45.71a2.4,2.4,0,0,1,1.95-.9,2.16,2.16,0,0,1,1.9.94,2.87,2.87,0,0,1,.44,1.52h-5a3.71,3.71,0,0,1,.7-1.56m2,8.28c2.71,0,3.8-1.53,4.68-3.33l-.33-.21a4.92,4.92,0,0,1-3.62,1.49,3.19,3.19,0,0,1-3.25-2,4.05,4.05,0,0,1-.24-1.46h7.67a6,6,0,0,0-.79-2.86,4.42,4.42,0,0,0-4-2,5.08,5.08,0,0,0-5.25,5.26A4.91,4.91,0,0,0,398.56,54"/><path class="cls-1" d="M268.38,45.71a2.37,2.37,0,0,1,1.94-.9,2.16,2.16,0,0,1,1.9.94,3,3,0,0,1,.45,1.52h-5a3.73,3.73,0,0,1,.71-1.56m2,8.28c2.72,0,3.8-1.53,4.68-3.33l-.32-.21a5,5,0,0,1-3.63,1.49,3.19,3.19,0,0,1-3.25-2,4,4,0,0,1-.23-1.46h7.67a6.06,6.06,0,0,0-.8-2.86,4.42,4.42,0,0,0-4-2,5.08,5.08,0,0,0-5.25,5.26A4.91,4.91,0,0,0,270.38,54"/><path class="cls-1" d="M408.38,49.06a4.85,4.85,0,0,0,1.6-.77V51a3,3,0,0,1-2.13,1.19,1.31,1.31,0,0,1-1.37-1.3c0-1.22,1.35-1.67,1.9-1.86M406.91,54a4.29,4.29,0,0,0,3.27-1.58A2.64,2.64,0,0,0,411.43,54l2.4-1.8-.15-.25c-1.12-.47-1.14-1-1.14-2.18V47.5a4,4,0,0,0-.61-2.73,3.89,3.89,0,0,0-3.18-1.22,10.66,10.66,0,0,0-3.68.69l-.34,2.26h.34a4.44,4.44,0,0,1,1.17-1.09,4,4,0,0,1,2-.56,1.44,1.44,0,0,1,1.73,1.48c0,1-1.05,1.37-2.07,1.64l-.73.17c-1,.26-3.31.86-3.31,3.08A2.75,2.75,0,0,0,406.91,54"/><path class="cls-1" d="M414.65,46.5v3.74a3.88,3.88,0,0,0,.68,2.54A3.36,3.36,0,0,0,418.17,54a4.58,4.58,0,0,0,3.72-1.9,3.28,3.28,0,0,0,1.41,2l2.35-1.76-.13-.21c-1.11-.21-1.11-1-1.11-2.05V43.57l-3.93.79v.3c1,.15,1.26.56,1.26,1.58v3.44a2.37,2.37,0,0,1-.51,1.66,2.41,2.41,0,0,1-1.86.78,1.86,1.86,0,0,1-1.9-1.29,3.57,3.57,0,0,1-.15-1.15V43.57l-3.87.79v.3c1.09.15,1.2.71,1.2,1.84"/><path class="cls-1" d="M313.5,46.73c-9.22.4-22.05,7.17-22.05,7.17a63,63,0,0,1,14.88-4.3,2.62,2.62,0,0,0-.82,2.27c.39,1.9,4.52,3.09,8.12,2.35a18.5,18.5,0,0,0,2.81-.95c-.75.28-6.68,0-6.56-2.29.08-1.72,4-2.59,6.87-1.56,2.39.87,4.14,4,3.51,5.37a6.44,6.44,0,0,0,.36-.63c1.09-2.37.16-7.74-7.12-7.43"/><path class="cls-1" d="M343.13,48.84c-.37-1.91-3.59-2.9-7.2-2.2a12.81,12.81,0,0,0-4,1.55,50.81,50.81,0,0,0-6.12,4.59A22.83,22.83,0,0,1,329,51c1.52-.7,8.57-3.48,9.41-1.09.38,1.07-.95,2.54-4.57,3a6,6,0,0,1-2.89-.26c1.26,1,3.69,1.37,6.32.87,3.61-.7,6.24-2.81,5.87-4.71"/><path class="cls-1" d="M289.94,53.21s28.93-15.12,43.27-12.91a99.75,99.75,0,0,1-11.92,14.57c9.1-6.09,14.67-12.36,18-18.14-18-7.16-49.36,16.48-49.36,16.48"/><path class="cls-1" d="M338.48,30.83c-2.91-4.55-6.21-5.31-6.21-5.31-8.39-2.24-22,9.07-22,9.07C328.33,13,321.88,7,321.88,7,335.52,7,341,14.21,341,14.21c1.7,5.25-.23,11.22-2.56,16.62m4-17.72s-3-3.91-9.95-6.69A31.8,31.8,0,0,0,330.88,0a21.2,21.2,0,0,1,.29,5.89,43.94,43.94,0,0,0-16.9-2.11s15.18,7.1-15.59,40.48c0,0,25.2-17.28,33.59-15,0,0,3.6.5,7.29,6.72,6.81-12.75,3-22.84,3-22.84"/><path class="cls-1" d="M329.72.64c-8-1.15-12.4,1.26-12.9,1.54,8.33.23,10,1.12,13,1.87a15.69,15.69,0,0,0-.07-3.41"/><polygon class="cls-1" points="110.73 29.72 110.73 61.28 84.88 29.72 74.93 29.72 74.93 81.71 86.81 81.71 86.81 50.14 112.73 81.71 122.61 81.71 122.61 29.72 110.73 29.72"/><path class="cls-1" d="M164.72,66.26c0-4.38-3.34-6.46-9.58-6.46h-14V72.65h14c6.24,0,9.58-1.93,9.58-6.39M141.11,38.78V51h11.95c5.87,0,9.07-2.08,9.07-6.17s-3.2-6.09-9.07-6.09Zm35.72,28.74c0,9-7.13,14.19-20.8,14.19H129.15v-52h25.4c13,0,19.68,5.42,19.68,13.52a12.47,12.47,0,0,1-6.91,11.43c5.8,1.86,9.51,6.32,9.51,12.85"/><polygon class="cls-1" points="43.05 66.06 43.05 81.6 51.03 81.6 51.03 66.06 47.04 62.17 43.05 66.06"/><polygon class="cls-1" points="59.4 70.7 47.04 58.34 43.05 62.33 43.05 51.07 47.04 47.08 65.03 65.07 59.4 70.7"/><polygon class="cls-1" points="59.4 55.53 65.03 49.9 47.04 31.91 43.05 35.9 43.05 47.16 47.04 43.17 59.4 55.53"/><polygon class="cls-1" points="59.4 40.35 47.04 27.99 43.05 31.98 43.05 20.72 47.04 16.73 65.03 34.72 59.4 40.35"/><polygon class="cls-1" points="36.72 26.29 36.72 64.62 10.63 64.62 36.72 26.29"/><path class="cls-1" d="M0,70.38H36.71V81.6H15A14.81,14.81,0,0,1,2.18,74.18Z"/><polygon class="cls-1" points="97.09 19.96 97.09 22.19 87.8 22.19 87.8 10.19 96.86 10.19 96.86 12.42 90.56 12.42 90.56 15.02 96.13 15.02 96.13 17.18 90.56 17.18 90.56 19.96 97.09 19.96"/><polygon class="cls-1" points="106.74 22.19 103.84 18.02 101 22.19 97.81 22.19 102.25 16.09 98.03 10.19 101.19 10.19 103.95 14.08 106.66 10.19 109.66 10.19 105.47 15.98 109.95 22.19 106.74 22.19"/><path class="cls-1" d="M118.64,14.54c0-1.32-.86-2.09-2.55-2.09h-2.27v4.17h2.27c1.69,0,2.55-.78,2.55-2.08m2.81,0c0,2.68-2,4.34-5.21,4.34h-2.42v3.31h-2.77v-12h5.19c3.21,0,5.21,1.66,5.21,4.35"/><polygon class="cls-1" points="123.42 10.19 126.2 10.19 126.2 19.93 132.22 19.93 132.22 22.19 123.42 22.19 123.42 10.19"/><path class="cls-1" d="M143.14,16.19a3.76,3.76,0,1,0-7.51,0,3.76,3.76,0,1,0,7.51,0m-10.32,0c0-3.57,2.78-6.21,6.57-6.21A6.2,6.2,0,0,1,146,16.19c0,3.58-2.79,6.2-6.56,6.2s-6.57-2.64-6.57-6.2"/><path class="cls-1" d="M153.09,12.45h-2.27v4.18h2.27c1.69,0,2.55-.78,2.55-2.09s-.86-2.09-2.55-2.09m2.6,9.74-2.31-3.34h-2.56v3.34h-2.77v-12h5.19c3.21,0,5.21,1.66,5.21,4.35A3.91,3.91,0,0,1,156,18.33l2.7,3.86Z"/><polygon class="cls-1" points="169.94 19.96 169.94 22.19 160.65 22.19 160.65 10.19 169.72 10.19 169.72 12.42 163.41 12.42 163.41 15.02 168.98 15.02 168.98 17.18 163.41 17.18 163.41 19.96 169.94 19.96"/><rect class="cls-1" x="81.09" y="10.2" width="2.24" height="11.98"/><rect class="cls-1" x="76.61" y="10.2" width="2.24" height="11.98"/><rect class="cls-1" x="74.77" y="12.31" width="10.01" height="2.24"/><rect class="cls-1" x="74.77" y="17.82" width="10.01" height="2.24"/></svg>