<svg id="Layer_1" data-name="Layer 1" xmlns="http://www.w3.org/2000/svg" viewBox="0 0 248.73 85.95"><defs><style>.cls-1{fill:#fff;}</style></defs><g id="gnb"><path id="Path_135" data-name="Path 135" class="cls-1" d="M173.58,47.35,177.24,56h1.33l4-8.61c.47-1,.67-1.26,1.36-1.35v-.33H180V46a.86.86,0,0,1,.93.8v.07a2.87,2.87,0,0,1-.22.86l-2.13,4.86-2-5a2.55,2.55,0,0,1-.2-.73.86.86,0,0,1,.85-.84v-.33h-5.06V46c.69.09,1,.49,1.4,1.35"/><path id="Path_136" data-name="Path 136" class="cls-1" d="M21.53,64c4.14-1.09,7.79-3.48,7.79-8.6a8.22,8.22,0,0,0-5.18-8c-2.12-.87-4.74-1-8.12-1H0v.82c3.32.43,3.32,2.34,3.32,5.17v26.7c0,3-.38,4.42-3.32,5v.82H16.46c2.94,0,6.7,0,9.92-2a10,10,0,0,0,4.85-8.72c0-6-4.47-9.05-9.7-10.14M10.74,50.42H13a14,14,0,0,1,5.5.71c2.18,1,3.11,2.89,3.11,5.45,0,4.91-4.3,6-8,6H10.74ZM21.09,79.3c-1.69,1.26-4.3,1.58-6.48,1.58-3.82,0-3.87-2.18-3.87-4.85V66.66H14.5A10.81,10.81,0,0,1,20.44,68a6.79,6.79,0,0,1,3,6,6.56,6.56,0,0,1-2.4,5.33"/><path id="Path_137" data-name="Path 137" class="cls-1" d="M41,63.39V58.71l-10.52,5.5.28.6c3.43,0,3.48,2.67,3.48,5.44v8.07a10.83,10.83,0,0,1-.43,3.49,4.09,4.09,0,0,1-2.78,2.28v.77H44.35v-.77C41.35,83,41,82.35,41,78.32V70.86a7,7,0,0,1,1.09-4.42,5.1,5.1,0,0,1,4.25-2.18,4.37,4.37,0,0,1,4,2.67h.66l1.14-7.3A8.78,8.78,0,0,0,49,59c-4.14,0-6.32,2.45-8,4.36"/><path id="Path_138" data-name="Path 138" class="cls-1" d="M81.12,75.71V59.2l-10,2V62c2.67.39,3.21,1.42,3.21,4v8.77a5.62,5.62,0,0,1-5,6.2,5.36,5.36,0,0,1-1.06,0,4.7,4.7,0,0,1-4.85-3.27A9.39,9.39,0,0,1,63,74.78V59.2l-9.87,2V62c2.78.39,3.06,1.8,3.06,4.69V76.2c0,2,.1,4.41,1.74,6.48.71.93,2.73,3.11,7.25,3.11a11.72,11.72,0,0,0,9.48-4.85,8.3,8.3,0,0,0,3.59,5l6-4.47L84,80.94c-2.83-.55-2.83-2.56-2.83-5.23"/><path id="Path_139" data-name="Path 139" class="cls-1" d="M112.94,78.59V69.22c0-2.4,0-4.85-1.69-6.92a8.74,8.74,0,0,0-7.13-3.1c-4.69,0-7.42,2.56-9.22,4.25V58.71l-10.57,5.5.38.65c3.33.11,3.38,1.85,3.38,5.34v8.29c0,2.72,0,5.12-3.27,5.61v.76H98L98,84.1c-2.95-.82-3.06-2-3.06-5V69.82a5.21,5.21,0,0,1,2-4.63,6.24,6.24,0,0,1,3.87-1.2c5.34,0,5.4,4.47,5.4,5.83v9.32c0,2.83-.06,4.3-3,5v.76h13.08V84.1c-3.22-.6-3.28-2.13-3.28-5.51"/><path id="Path_140" data-name="Path 140" class="cls-1" d="M130.59,70.58l-2.07-1c-1.75-.81-3.82-1.8-3.82-3.92,0-1.8,1.69-3.21,4.15-3.21,3.92,0,4.68,2.72,5.06,4.08h.76v-6a19.4,19.4,0,0,0-7-1.31c-6.26,0-9.64,3.49-9.64,7.63,0,3.81,2.78,5.34,4.25,6.16l2.29,1.08c1.91,1,4.31,2.24,4.31,4.64,0,2.72-2.5,3.76-4.8,3.76-4.09,0-5.07-2.84-5.56-4.42h-.82v6.49a21.53,21.53,0,0,0,7.41,1.25c4.3,0,6.7-1.42,7.9-2.45a7.92,7.92,0,0,0,2.67-5.89c0-4.46-3.76-6.26-5.07-6.86"/><path id="Path_141" data-name="Path 141" class="cls-1" d="M181.61,60.12h-9.7v.77a2.31,2.31,0,0,1,2.29,2.28,5.26,5.26,0,0,1-.55,1.91l-5.28,12-5-12a6.88,6.88,0,0,1-.38-1.8,2.33,2.33,0,0,1,2.18-2.4v-.76h-12.6v.76c1.42.27,2.07.66,2.94,2.46L156.75,66l-5,11.07-4.85-11.83a5.55,5.55,0,0,1-.49-2,2.29,2.29,0,0,1,2.16-2.4h.08v-.76H136v.76c2.07.71,2.34,1.15,3.54,3.92l8.94,20.55h3.21l6.92-14.83,6.54,14.83h3.22L178,64.8c1.15-2.45,1.48-3.21,3.6-3.92Z"/><path id="Path_142" data-name="Path 142" class="cls-1" d="M61.21,47.57l3.63,8.32h1.3l2.8-6,2.65,6h1.3l3.91-8.32c.46-1,.6-1.3,1.46-1.59v-.31H74.32V46a.94.94,0,0,1,.93.93,2.07,2.07,0,0,1-.22.77l-2.14,4.86-2-4.86A3.08,3.08,0,0,1,70.7,47a1,1,0,0,1,.89-1v-.31h-5.1V46c.57.11.84.26,1.19,1l.51,1.09-2,4.48-2-4.8A2.3,2.3,0,0,1,64,47a.93.93,0,0,1,.88-1h0v-.31H59.78V46c.84.29.95.46,1.43,1.59"/><path id="Path_143" data-name="Path 143" class="cls-1" d="M191.72,79V58.71l-10.46,5.12.33.6c3.21-.16,3.38,1.31,3.38,4.14V78.7c0,3.11,0,4.42-3.27,5.4v.77h13.4V84.1c-2.94-.71-3.37-1.47-3.37-5.07"/><path id="Path_144" data-name="Path 144" class="cls-1" d="M217.73,76.69c-1.63,1.63-3.81,3.82-7.95,3.82-6.38,0-8.56-5.35-8.56-9.43,0-4.36,2.18-8.72,7.47-8.72,4.9,0,6.1,3.43,7,5.83h.77L217.68,62a15.16,15.16,0,0,0-9-2.78c-8.29,0-13.57,6.26-13.57,14,0,5.45,3.16,12.64,12,12.64,4.2,0,8.28-1.47,11.44-8.66Z"/><path id="Path_145" data-name="Path 145" class="cls-1" d="M245.19,81.05l-10.4-11,7.63-6.81c2.12-1.85,2.17-1.91,3.7-2.4v-.76H235.5v.76c.49.11,1.52.33,1.52,1.31,0,.71-.49,1.2-1.52,2.23l-7.63,6.7V45.74l-10.52,5.39.33.65a4,4,0,0,1,1-.16c2.34,0,2.4,2.13,2.4,4.3V79.74c0,2.34-.27,3.86-3.11,4.36v.76h13V84.1c-3.05-.66-3.1-2.35-3.1-4.85V72.11L236.31,81c2.73,2.84,3.76,3.76,8.5,3.82h3.92V84.1A10.63,10.63,0,0,1,245.19,81"/><path id="Path_146" data-name="Path 146" class="cls-1" d="M136.61,55.43c-.91-.2-1.33-.42-1.33-1.93V43.11l11,12.76h1.33V42.34c0-1.24.2-1.71,1.33-1.93v-.34h-4.42v.34c1.25.22,1.38.78,1.38,2v8.5l-9.28-10.86H132.2v.34a1.34,1.34,0,0,1,1.22.75,2.68,2.68,0,0,1,.13,1.09V53.5a2.08,2.08,0,0,1-.4,1.56,1.51,1.51,0,0,1-1,.37v.31h4.42Z"/><path id="Path_147" data-name="Path 147" class="cls-1" d="M37.27,55.43c-.91-.2-1.33-.42-1.33-1.93V43.11l11,12.77h1.33V42.34c0-1.24.2-1.71,1.33-1.93v-.34H45.17v.34c1.24.22,1.38.78,1.38,2v8.5L37.27,40.07H32.85v.34a1.36,1.36,0,0,1,1.23.75,2.87,2.87,0,0,1,.13,1.09V53.5a2.13,2.13,0,0,1-.4,1.56,1.55,1.55,0,0,1-1,.37v.31h4.42Z"/><path id="Path_148" data-name="Path 148" class="cls-1" d="M150.38,54.61a5.16,5.16,0,0,0,4,1.51c4.11,0,5.73-2.86,5.73-5.46a5.15,5.15,0,0,0-4.91-5.38,4.3,4.3,0,0,0-.62,0,5.37,5.37,0,0,0-5.65,5.08c0,.13,0,.27,0,.4a5.55,5.55,0,0,0,1.46,3.84m2.27-7.13a2.26,2.26,0,0,1,1.77-.91,2.33,2.33,0,0,1,1.67.74,5.52,5.52,0,0,1,1.06,3.6c0,.75-.06,2.88-1.4,3.68a2.06,2.06,0,0,1-1,.26c-2,0-2.84-2.46-2.84-4.43a4.94,4.94,0,0,1,.78-2.94"/><path id="Path_149" data-name="Path 149" class="cls-1" d="M161.34,48.33v3.88a4,4,0,0,0,.71,2.65A3.51,3.51,0,0,0,165,56.12a4.78,4.78,0,0,0,3.87-2,3.41,3.41,0,0,0,1.46,2l2.44-1.82-.13-.22c-1.15-.22-1.15-1-1.15-2.13V45.29l-4.09.82v.31c1.09.16,1.31.58,1.31,1.64v3.58a2.29,2.29,0,0,1-2.05,2.52,1.86,1.86,0,0,1-.41,0,1.93,1.93,0,0,1-2-1.34,3.7,3.7,0,0,1-.15-1.2V45.29l-4,.82v.31c1.13.16,1.24.73,1.24,1.91"/><path id="Path_150" data-name="Path 150" class="cls-1" d="M188.29,56.12c2.82,0,4-1.6,4.86-3.46l-.33-.22A5.09,5.09,0,0,1,189.05,54a3.31,3.31,0,0,1-3.38-2.11,4.05,4.05,0,0,1-.24-1.51h8a6.39,6.39,0,0,0-.83-3,4.59,4.59,0,0,0-4.15-2.08,5.28,5.28,0,0,0-5.46,5.1v.36a5.11,5.11,0,0,0,4.84,5.35h.49M186.2,47.5a2.51,2.51,0,0,1,2-.93,2.25,2.25,0,0,1,2,1,2.94,2.94,0,0,1,.46,1.58h-5.2a4,4,0,0,1,.74-1.63"/><path id="Path_151" data-name="Path 151" class="cls-1" d="M55.07,56.12c2.82,0,4-1.6,4.86-3.46l-.34-.22A5.08,5.08,0,0,1,55.82,54a3.3,3.3,0,0,1-3.37-2.11,4.06,4.06,0,0,1-.25-1.51h8a6.22,6.22,0,0,0-.82-3,4.62,4.62,0,0,0-4.15-2.09,5.29,5.29,0,0,0-5.46,5.1v.36a5.1,5.1,0,0,0,4.85,5.35,3.84,3.84,0,0,0,.48,0M53,47.51a2.48,2.48,0,0,1,2-.93,2.27,2.27,0,0,1,2,1,3.15,3.15,0,0,1,.46,1.58H52.25A3.9,3.9,0,0,1,53,47.51"/><path id="Path_152" data-name="Path 152" class="cls-1" d="M197,56.1a4.47,4.47,0,0,0,3.4-1.64,2.78,2.78,0,0,0,1.31,1.71l2.48-1.86L204,54c-1.16-.49-1.18-1-1.18-2.27v-2.4a4.13,4.13,0,0,0-.64-2.84,4.06,4.06,0,0,0-3.3-1.26,11.05,11.05,0,0,0-3.82.71l-.36,2.35h.36a4.49,4.49,0,0,1,1.21-1.13,4.12,4.12,0,0,1,2.05-.58,1.76,1.76,0,0,1,1.64.8,1.83,1.83,0,0,1,.15.73c0,1.07-1.08,1.42-2.15,1.71l-.75.18c-1.05.27-3.44.89-3.44,3.2a2.84,2.84,0,0,0,2.83,2.88,2.36,2.36,0,0,0,.37,0m1.53-5.1a5.42,5.42,0,0,0,1.66-.8V53A3.11,3.11,0,0,1,198,54.28a1.36,1.36,0,0,1-1.42-1.3v0c0-1.27,1.4-1.74,2-1.94"/><path id="Path_153" data-name="Path 153" class="cls-1" d="M205,48.33v3.88a4,4,0,0,0,.71,2.65,3.51,3.51,0,0,0,3,1.26,4.75,4.75,0,0,0,3.86-2,3.38,3.38,0,0,0,1.47,2l2.44-1.82-.14-.22c-1.15-.22-1.15-1-1.15-2.13V45.29l-4.08.82v.31c1.08.16,1.3.58,1.3,1.64v3.58a2.28,2.28,0,0,1-2,2.52,2.16,2.16,0,0,1-.44,0,1.91,1.91,0,0,1-2-1.34,3.74,3.74,0,0,1-.16-1.2V45.29l-4,.82v.31c1.14.16,1.25.73,1.25,1.91"/><path id="Path_154" data-name="Path 154" class="cls-1" d="M99.88,48.58C90.3,49,77,56,77,56a65.73,65.73,0,0,1,15.47-4.47,2.71,2.71,0,0,0-.85,2.36c.41,2,4.7,3.22,8.44,2.44a18.9,18.9,0,0,0,2.92-1c-.78.29-6.94,0-6.82-2.38.09-1.79,4.14-2.7,7.14-1.62,2.49.9,4.3,4.15,3.64,5.58a3.64,3.64,0,0,0,.38-.66c1.13-2.46.17-8-7.4-7.72"/><path id="Path_155" data-name="Path 155" class="cls-1" d="M130.68,50.76c-.38-2-3.73-3-7.48-2.29a13.63,13.63,0,0,0-4.13,1.62,53.54,53.54,0,0,0-6.36,4.77A22.23,22.23,0,0,1,116,53.05c1.58-.74,8.91-3.62,9.79-1.14.39,1.11-1,2.64-4.76,3.12a6.24,6.24,0,0,1-3-.27c1.32,1,3.84,1.42,6.57.9,3.75-.73,6.49-2.92,6.11-4.9"/><path id="Path_156" data-name="Path 156" class="cls-1" d="M75.4,55.3s30.06-15.71,45-13.41A103.49,103.49,0,0,1,108,57c9.46-6.33,15.25-12.85,18.72-18.85C108,30.74,75.4,55.3,75.4,55.3"/><path id="Path_157" data-name="Path 157" class="cls-1" d="M130.06,13.62S127,9.56,119.71,6.67A32.79,32.79,0,0,0,118,0a21.68,21.68,0,0,1,.3,6.12,45.73,45.73,0,0,0-17.57-2.19S116.47,11.31,84.48,46c0,0,26.19-18,34.91-15.63,0,0,3.75.52,7.58,7,7.08-13.25,3.09-23.74,3.09-23.74M125.85,32c-3-4.72-6.46-5.51-6.46-5.51C110.67,24.2,96.56,36,96.56,36c18.74-22.4,12-28.65,12-28.65,14.17,0,19.91,7.47,19.91,7.47,1.76,5.45-.25,11.66-2.66,17.27"/></g></svg>