<svg id="Layer_1" data-name="Layer 1" xmlns="http://www.w3.org/2000/svg" viewBox="0 0 226.88 108.35"><defs><style>.cls-1{fill:#fff;}</style></defs><g id="logo"><path id="Path_87" data-name="Path 87" class="cls-1" d="M120.7,61.6h0c0,.1.19.07.31.09.12.52-.52.4-.82.57l.44.52.28.07a.14.14,0,0,1-.06.19h0l12.3,15a2,2,0,0,1,1-.53c0,.06.12.15.11.24a1.8,1.8,0,0,1-.59.89l.1.12.11.06v.09L144.64,92h12.68V87.25c-.06.34-.29.16-.29,0,.05-.34.27-.19.29,0V80.31h-.11v0h.11V42.62c-.07,0-.08,0-.11-.19l.11,0V32.84l-.11.09c-.08,0-.21.16-.23.14a2.9,2.9,0,0,1-.36-.34c.11-.12.2-.28.26-.28a.53.53,0,0,0,.44-.11v-7h-7.46l-.24.46c-.12-.06-.34-.1-.35-.17a2.54,2.54,0,0,1,0-.29h-7.15v40.5l-19-23.18h0l-.06,0h0L108.91,25.32H96.14V44.87a.72.72,0,0,1,.66-.49h.1c.61.08.66.8.48,1.39a1.66,1.66,0,0,1-.27.57h0a1,1,0,0,1-1-.59V92h3.57c.13-.22.43-.5.27-.82.48,0,.36.47.2.82h11.2V89.35a.09.09,0,0,1-.07,0,.18.18,0,0,1,.07-.25h0V51.53L120,62A4,4,0,0,0,120.7,61.6Zm13.92,17.09-.05-.21C134.76,78.52,134.76,78.52,134.62,78.69Zm1.64-6.92,0-.06.11-.06,0,.09Zm.67,8.14h-.08l.14-.07c0,.06-.05.08-.06.08Zm.87.42c.26-.11.37,0,.48.28-.3,0-.47,0-.48-.28Zm.69-7.34c-.2,0-.3-.16-.27-.44l.38.32Zm3.32,7.55c-.15-.16.21-.39.29-.3s-.2.38-.28.3Zm.29-3.18h0c-.33-.12-.15-.36,0-.36h0c.34.12.16.36,0,.36Zm.42-14.2h0l.26.05.38.07h0l-.1.71-.64-.12Zm.13-27.69h0l0,0h0Zm.51,14.36,0-.06v.08Zm-.3,17.93c.26.07.21.4.51.44a.1.1,0,0,1,0,0,2.45,2.45,0,0,0,.37.26c.81.7-2.1-.18-1.43-1.37a5.67,5.67,0,0,1,.59.61Zm.4-4.08,0-.63c.27.22.11.42,0,.62Zm0,.42v.08l0-.05s0,0,0,0Zm.62-8-.16,0,0-.07.13-.08Zm-.06-11.55h0v0s0,0,0,0,0,0,0,0Zm1.48,19.47c-.09.54-1.48-.46-1.86-.71.39-.8,1.35.55,1.86.7Zm-.3-11.8h0s0,0,0,0h0Zm.06-12.08,0,0v0Zm-.9,24.22-.34.22v-.32Zm-1.43,8.25-.1,0,0,0,.1-.06Zm-.5.66c.14.26.61.36.44.8-.34-.25-.34-.25-.44-.81Zm.41,14.64h0v-.09h0Zm.12-10.85-.22-.09h.24Zm.13-5.06s0-.07.06-.08,0,0,.1.07Zm.32,4.31v0l.06,0Zm.12-7.22-.06-.12,0,0,.09.1Zm.33,6.35h0c-.33-.13-.15-.36,0-.36h0c.33.11.14.34,0,.34Zm.46,3.86c-.15-.16.21-.39.29-.3s-.21.37-.29.29Zm.46-4.4.14-.4.2.28Zm.3-8c-.12-.36.32-.45.52-.27a.46.46,0,0,1-.52.26Zm.53,8.33h0s0,0,0-.07l0,0s0,0,0,0Zm0-32.63c-.07,0-.18-.08-.2-.14s0-.15.08-.3c.12.12.2.18.22.25s-.06.12-.1.18Zm.5,32.77-.2-.12.05-.08.2.11Zm.15-17-.06.06a.32.32,0,0,1-.12-.08s0-.09,0-.19ZM146,47l.31-.05v.08l-.3.08Zm.1,18.14,0,0v0Zm.05-1.46-.15,0v-.08h.16Zm.28-13.11.16.1-.12.12-.15-.11Zm0,8.18,0,.13h-.08l0-.12Zm-.05,4.66h.08l0,.25h-.13Zm.08,16.74h.07l0,.14h-.08Zm.07,10v0h.1v0ZM147,65.08l0-.21H147l0,.21ZM148.12,89l.24-.35.07.35Zm1.17-21.74-.08-.08,0,0,.08.09Zm.33,20.9-.19,0V88l.2,0Zm-.16-16.21a.51.51,0,0,1,.09-.16v.33c-.07-.1-.1-.14-.1-.16Zm.16-6.37-.09,0,.07-.16.08,0Zm0-1.07a.06.06,0,0,1,0,0l0,0v.07h0Zm1,18.27,0,0v0Zm.2.83a.31.31,0,0,1,.36-.23.33.33,0,0,1,.23.23c-.26.19-.52.37-.59,0Zm.59-1.52c.05-.35.29-.17.29,0,0,.35-.29.17-.29,0Zm.83.43-.48-.06v-.09l.51-.2Zm-.51-3.92.09-.08.12.12-.1.1Zm.65.5-.08-.11,0,0,.08.11Zm.29-29.93a2,2,0,0,1-.43-.17c.15-.12.27-.27.31-.25a.77.77,0,0,1,.28.26s-.12.17-.16.17Zm.79-8.25c.79.28-.3,1.07-.3,1.53-1.17-.34-.19-1.2.3-1.52Zm-.49-.35v0h.06v0Zm1.07.05c-.15-.16.21-.39.29-.31s-.21.4-.29.31Zm.41,22.6c-.16,0-.42,0-.46-.29Zm-.67-31.53a6.45,6.45,0,0,1-.74-.38l.38-.3.64.46c-.09.09-.23.25-.28.23Zm.07.68h0v0h0v0Zm-.42.43c-.07.12-.14.24-.22.35l-.12,0,.16-.34Zm-.18,25.12c.23-.06.44.33.72.42-.1.18-.2.25-.29.24s-.41-.33-.67-.42a.43.43,0,0,1,.24-.23Zm.21,28.74V86c.62-.14.55.44.58.91-.24-.05-.29-.3-.58-.3Zm.58-.92c0-.3.36-.23.59-.3,0,.3-.36.24-.59.31Zm.63-5.33h0Zm.32,2.61H155a1,1,0,0,1,0-.17h.07Zm-.13-39.24c-.2,0-.4-.33-.66-.41.1-.19.2-.25.3-.25s.41.34.66.42c-.1.2-.2.26-.3.25Zm-.4-8.23.06-.05,0,0Zm.3,6.16,0,0h0c.12-.23.35-.25.61-.21l-.62.23v0Zm.12-1.59-.21-.49.12-.08.52.5Zm-.2-3.84h-.07v-.17h.1Zm.53,42.45c0-.3.36-.24.58-.3,0,.3-.35.24-.58.31Zm.21-42.76c.28-.06.28-.06.44.19-.29.06-.29.06-.43-.18Zm.08,31.48c-.15-.16.21-.39.29-.31s-.2.4-.29.32Zm0,2.83.52.29a.4.4,0,0,1-.5-.25v0ZM156,51.78v-.07l.23,0Zm.13-10.54h0c0-.13.05-.23.33-.24Zm.64,42.47h-.28v-.09l.28,0a.45.45,0,0,1,0,.11Zm.14-.25h0a0,0,0,0,0,0,0h.06Zm.3-4.7h-.13l.06-.15.07,0Zm0-2.94c-.41.12-.41.12-.6-.06Zm-.45-32.74,0,0,0,.07s0,0,0,0l0-.06Zm0,.4,0,.12h-.2v-.09Zm-.82-11.92a1.8,1.8,0,0,1,.4,0s.09.05.14.06l.55.08-.73.33a2.08,2.08,0,0,1-.38-.22.24.24,0,0,1,0-.23Zm-.17,1.35s.11-.08.26-.18a1.6,1.6,0,0,1-.1.31.59.59,0,0,1-.18.13,1,1,0,0,1,0-.25Zm.17,2.4-.36.15c-.22.07-.45.13-.66.21l-.24.13c0-.09,0-.22,0-.25.25-.18.53-.32.8-.48Zm-.78-.73h0v0Zm-.33-4.83c0,.13-.19.24-.29.36l-.51-.38c.2-.11.35-.25.48-.25s.33.19.32.27Zm-1-2.23s.15.06.21.12a2,2,0,0,1,.28.31c.08.1.13.21.2.31l-.51.25a.15.15,0,0,1-.12-.05c-.07-.22-.13-.45-.22-.76a.69.69,0,0,1,.17-.17Zm-.52,3,.14,0,0,.07-.14,0Zm-.43-.64h.12l.12.49.09.37c-.08,0-.19,0-.22,0a.77.77,0,0,1-.17-.38,1.82,1.82,0,0,1,.06-.46Zm-.12,2.85.12,0v.07l-.13,0ZM152.55,36s.15,0,.29.1c-.13.13-.2.26-.29.27s-.18-.11-.27-.17a1.1,1.1,0,0,1,.28-.2Zm-.3,11.71h.06V48l-.13,0ZM152,34.45h.12v0H152a.06.06,0,0,0,0,0Zm.31,21.75a.2.2,0,0,0,.11,0h0c0,.22-.13.33-.25.36-.28.08-.71-.31-.92-.5l-.1-.09c.09-.25.17-.35.26-.36.25,0,.49.64.91.62Zm-.48-21a.21.21,0,0,1,0,.06l-.11,0,.08,0Zm-.5,11.48c0-.15,0-.23.05-.35l.34.22Zm.23-2.49-.13.08,0,0,.1-.1Zm-.48-9.9h0a.06.06,0,0,1,0,0h0Zm-.09,1h.23v.13l-.24,0a.13.13,0,0,0,0-.08Zm.39.73c0,.3,0,.3-.27.44-.11-.23,0-.36.27-.44Zm-.05,7.68c.05.12.12.23.1.25a1.58,1.58,0,0,1-.36.2.7.7,0,0,1-.14-.19Zm-.38,3,.26.34-.2.32a1.5,1.5,0,0,1-.19-.38c0-.08.09-.18.14-.27Zm.14,34,.44.06-.67.32-.06-.07Zm-.51-25.61h0c.33.13.15.36,0,.36h0c-.32-.13-.14-.36,0-.36Zm-.13,6.3v.06l-.18,0,0-.1Zm-.78-27.52h0l0,.1h0Zm.11,24.35.1,0,.06.45-.31,0Zm-1.34-22.82c0-.15,0-.45.33-.28a.56.56,0,0,1,.14.5c0,.19-.28.37-.26.54s-.1.6.41.56a.77.77,0,0,1,.45.22c.07.06.07.2.1.3l-.47.06c0-.4-.41-.38-.65-.54s-.11-.26-.13-.31c0-.43,0-.74.09-1Zm.59,35.2-.35.1c0-.15,0-.23.06-.37Zm-.45-16.19-.1,0-.08-.24.13,0Zm0,2.76-.3.62c-.12-.36-.12-.36.31-.62Zm0,18.78c.25.16.22.26.08.3a.86.86,0,0,1-.45,0c-.29-.17-.2-.28,0-.31A1,1,0,0,1,148.49,76ZM148,53.86l0,0,0,0,0-.05Zm-.1,9.31-.19-.12,0-.07.19.12Zm-.17-9,.15.36c-.21-.16-.21-.16-.15-.36Zm0-.72,0,.28-.1,0-.05-.28Zm-.12,10.21h.06v.16h-.06Zm-.41-13.25h.3l0,.12-.28,0a.34.34,0,0,0,0-.1ZM147,37.35l.05.06-.14.09-.05-.07ZM147,59c.07.1.2.21.19.31s-.13.21-.2.32l-.23-.4Zm-.35,29V87.9l.08,0Zm0-46.27c0,.13-.15.22-.21.35h0c-.15,0-.25-.33-.4-.28a.35.35,0,0,0-.11.1h0c-.2-.11.12-.27.41-.28a.42.42,0,0,1,.32.11Zm-.48-4.43s0,0,0,0l0,.13c-.11.11-.22.26-.45,0l.45,0h0a.28.28,0,0,1,0-.09Zm-.59-.6.06-.07.23.22-.07.06Zm-.06-6.51c.21.23.37.41.52.6l-.14.1c-.17-.15-.35-.31-.51-.47,0,0,.06-.1.14-.24Zm-.28,5.25,0,.18v0h0c.24,0,.26.2.16.4l-.16-.4h0v0a1.28,1.28,0,0,0,0-.19Zm-.24,3.5c.27.33.12.57,0,.92Zm0-13.18,0,0-.06-.07Zm-.2,22.14V48l-.15,0v-.06Zm-.11,13.84a.09.09,0,0,1-.07,0c-.16,0-.28-.37-.19-.45l.07,0c.16,0,.29.37.2.44Zm-.17-12.57-.13,0V49.1h.12Zm-.13-.66.1,0-.05.13-.06,0Zm0,10.5s0,0,0,0l0,0,0,0Zm-.21-10.38-.12-.12,0,0,.13.11Zm.05-15.11v0l0,0Zm-.36,4.4a1.72,1.72,0,0,1,.32.23c-.07.07-.18.22-.21.21a3.09,3.09,0,0,1-.37-.26c.13-.1.23-.2.27-.19Zm0,3.61c.09,0,.24.22.22.25-.18.22.08.68-.57.77-.1-.1-.33-.22-.36-.37-.06-.3.4-.7.71-.66ZM142.53,31a.09.09,0,0,1,.06,0c.09,0,.21.1.22.07s0,0,0-.1l0-.13h0a1,1,0,0,1,.27.22c.19.25-.17.41-.43.41s-.37-.13,0-.44Zm-.26,1.73,0,.06,0-.05Zm-.08,9.44c.07.18.14.35.2.53s0,.08,0,.12l-.18-.38,0-.27Zm.14,14.8v.07l-.18,0a.41.41,0,0,0,0-.11Zm-.21-6.28s0,0,0,0l0,0,0,0,0,0Zm0,22.16v.07H142v-.06ZM142,76.69l.11.22-.54.21c0-.32.2-.38.44-.43Zm-1.14,4.36v.06l-.16,0a.5.5,0,0,1,0-.12Zm-1-7.75.06.11s-.06,0-.07,0l-.06-.1Zm-.14,4.27,0,0v0Zm-.6-9.19c0,.17,0,.3-.14.34h-.17c0-.2,0-.35.22-.36h.09Zm-.87-4.18.16,0,0,.13-.14-.08ZM138,62.5l-.25-.45c.29.08.3.25.25.45Zm-.45,1.2a.11.11,0,0,1,.07,0c.17,0,.29.37.2.45h0c-.17.09-.33-.35-.23-.43Zm.15.73c.35,0,.89.29,1.24.29h.1a1.05,1.05,0,0,1-.58.43c-.29,0-.57-.16-1.06-.37,0-.25.14-.33.31-.34ZM137,80.68l0-.22h.09c0,.07,0,.14,0,.2Zm-.17-15.17.29.11,0,.1-.3-.1Zm-.59,4.9h0a.21.21,0,0,1,.16.11.36.36,0,0,1,0,.09,5.43,5.43,0,0,1,0,.57h0c-.25-.05-.22-.34-.21-.6v-.16Zm-1.7-12.63.27.11,0,.12-.27-.13Zm-.21,21,0,0s0,.07,0,.1h-.06Zm-4.63-23.54v-.08l.09,0Zm.73,9.09h-.59v-.61h.59Zm2.3,8h0c-.13-.06-.18-.12-.18-.19a.2.2,0,0,1,.2-.17,0,0,0,0,1,0,0c.34.12.16.35,0,.35ZM133,56V56l-.15,0V56Zm-.12,1.3.31,0,0,.17-.3-.09Zm-.44,1.34.14.21-.07,0-.14-.21Zm.18,2.22a4.83,4.83,0,0,1,.32.59s-.14.14-.22.21a2.16,2.16,0,0,1-.4-.4s.14-.2.3-.4Zm-.78,10.56c.15-.47.3,0,.29.3-.15.47-.3,0-.29-.3Zm-1.08-10.47-.07,0-.25-.39.12-.08Zm-.51-1.05.24.34-.34.53a2.29,2.29,0,0,1-.18-.6c0-.09.18-.18.28-.27Zm-.45-6.73s.06.08.09.12l-.06.05-.23-.13c.12,0,.18-.06.2,0Zm-.33-.39.13.1,0,.06-.13-.11Zm-.24.58h0c.21.56-.25.92-.44,1.31a.3.3,0,0,0,0,.08c-.1-.12-.15-.32-.31-.35.21-.43.36-.95.79-1ZM128.12,64.1s.1.08.2.16a1.23,1.23,0,0,1-.26.12s-.14-.11-.13-.12a.49.49,0,0,1,.19-.16Zm-.4-12.56.13.12-.07.06-.12-.13Zm-.48,17.8.09.3-.08,0-.1-.29Zm-1.72-20Zm.26,12-.12-.07.08-.11.11.08A1.33,1.33,0,0,1,126,61c.37-.46.19-.09,0,.3l0,0-.05.07h0c-.14.28-.28.54-.23.52-.62.28-.24-.26,0-.63Zm-.65,6.21v0l0,0v-.07Zm-.2-20.22h0v.09h0Zm-.09-.44.06.16-.08,0,0-.17Zm-.33,7.7.07.08-.15.15-.07-.08Zm-.18,2.81h0c-.21,0-.21-.24-.24-.46l.09,0c.17,0,.17.23.15.5Zm-.23-3.55s.09.06.19.13l-.33.17c0-.05-.09-.13-.07-.14a.49.49,0,0,1,.21-.16Zm-.32-2.76h0Zm-.36-7.61v0l0,0Zm-.51,3.26L123,47l-.11,0,0-.23Zm-.39,14.58a.11.11,0,0,1,.07,0c.15,0,.27.32.21.42a0,0,0,0,1,0,0c-.2.16-.37-.33-.27-.41Zm.16,3.39-.05.07s-.1,0-.12-.07,0-.08,0-.23Zm-.3-14.64v.23h0s0-.07,0-.23Zm.08,8.48,0,.06-.15.06,0-.08Zm-.29,5.78.13.08,0,.1-.13-.11Zm-.33-9.5.2,0v.08h-.2a.49.49,0,0,1,0-.12Zm.15,5.66h0c-.24-.44-1.16-.33-.8-1.25h0c.7.07,1,.48.8,1.25ZM121.66,48h.1v0h-.1v0Zm-.56-7.55.19.15-.07.1-.19-.15Zm-.41,8.28,0,0s0,0,0,0l0,0,0,0Zm.26,4.63v0h0Zm-.08-5.33h-.05v-.14h.05a.71.71,0,0,0,0,.14Zm-.2-7.82.19.11,0,.08-.22-.07Zm-.08,15.88h0a.1.1,0,0,1,0,0h-.05v0Zm-.28-7.93h.07v.19h-.07Zm0,7.09.07,0-.12.16-.07,0Zm-.21-2.83h.07v.2h-.09ZM96.24,39.75h0a.1.1,0,0,1,0,0h0l0,0Zm.7-7.7v-.11h.14V32Zm.49,1.39-.08,0,.08,0a.22.22,0,0,1,0,.08ZM96.26,66.33h0l0-.13h.05Zm22.61-14.4-.29-.25c.34,0,.34,0,.28.25Zm-.36,2.45.33.19c-.09.06-.15.13-.18.12a.41.41,0,0,1-.2-.14s0-.1,0-.16Zm-.24-1.57.13.23-.09.05-.1-.24Zm-.07-4,0,.07-.15-.07,0-.06Zm-.84-10.4.1-.05,0,.07-.11.06s0-.07,0-.08ZM116.73,48Zm-.75-3h.1l0,.12H116Zm-.5-5.66,0,.07-.3.12,0-.12Zm-.83,13,.1,0-.08.3-.08,0Zm-.17-16.29-.25.46c-.09-.2,0-.33.24-.46Zm-.5,2c0,.11-.06.18-.08.19h-.18l0-.07Zm-.1,2.79,0,.06-.13-.11,0-.06Zm-4,1.82Zm0,0h0Zm-.41-.87h0l.23.31c-.21,0-.35-.06-.22-.3h0Zm.25.44h0a.06.06,0,0,1,0,0s0,0,0,0a.11.11,0,0,1,0,.05Zm-.21,2.37-.08,0v-.07Zm0,.39-.16.21-.12-.21Zm-.34.87s0,.07,0,.1h0a.31.31,0,0,0,0-.1Zm.06,15.45.07,0-.11.52-.13-.06Zm-.28,1.34h0l0-.2h0a1.47,1.47,0,0,0,0,.21Zm-.14-17.36.11,0v0h-.11Zm.14,17.37-.19.12,0-.1ZM107.78,36v0l-.05,0Zm0,5.51-.22.06-.17-.49c.34.11.5.28.39.44ZM106,32.09l.1,0v0l-.12,0,0,0Zm-.22,5.17-.2.61-.13,0,.24-.59Zm-.13-4.58,0,.08-.22.08,0-.13Zm-.22,1.59.1.06-.06.06s-.06,0-.06,0,0-.05,0-.08Zm-.07,3.28.14.1,0,.06-.16-.05Zm-.11,1h0s0,0,0,0v0h0l-.1.2-.08-.09.18-.11Zm-.18-5.46.08,0-.07.11-.08,0Zm0,35.64a.11.11,0,0,1,.08,0c.11.17-.16.34-.3.33a.08.08,0,0,1-.07,0c-.11-.17.15-.34.29-.33Zm-.3-30.1v.07h0Zm-.42-2,.1.06,0,0-.1-.05Zm0-8-.09.37-.27-.25ZM104.19,40h0c-.11,0-.18.11-.24.16s-.12.07-.19,0a.09.09,0,0,1,0-.08l.14-.08c.07,0,.09,0-.1-.07,0-.13.22-.19.12-.22h-.12c0-.31.31-.1.24-.47.14,0,.16.2.16.42h0c0,.13,0,.27,0,.4Zm-.62,22,.14,0c0-.07,0-.14-.08-.23l0,0c.16-.11.3.58.37.85a.4.4,0,0,1-.23.08c-.12,0-.2-.1-.25-.31a.27.27,0,0,1,0-.16.41.41,0,0,1,0-.22Zm.34-.88,0,.08-.14.09-.06-.1Zm0-18.74,0,0,0,0,0,0ZM104,45.7v-.05h.14v.05Zm-.23-7.7c-.11-.28-.11-.28.18-.47a.31.31,0,0,1-.18.48Zm0-1.06-.25,0,0-.1.24,0Zm-.19-1.59,0,.08,0-.07ZM103.68,48a.67.67,0,0,1-.25.19s-.17-.12-.16-.16.12-.13.22-.24a1.09,1.09,0,0,1,.19.21Zm-.3,32,0,0,0,0h0a.43.43,0,0,1,0,0Zm.11-46.66c-.06.35-.29.17-.29,0C103.26,32.93,103.49,33.1,103.49,33.27Zm-.58-1.59.34.2c0,.13,0,.24,0,.35h-.11l-.26-.51Zm-.28,12.19.11.34-.4-.13Zm-.1.67c.29,0,.7.17.72-.34,0,0,0-.05.08-.07l0,.2a.69.69,0,0,1-.67.71h-.1c-.13,0-.25-.14-.38-.22.11-.09.21-.24.33-.27Zm.2,2.76a.69.69,0,0,1,0,.2.82.82,0,0,1-.12-.2,4,4,0,0,1-.16-.59.81.81,0,0,1,.09-.29,1,1,0,0,1,.23.26,1,1,0,0,1,0,.34h0v.28Zm.08,9.8,0,.07,0-.08Zm-.61-11.3a1.59,1.59,0,0,1-.4.18c-.08,0-.18-.09-.27-.14s0-.08,0-.12a5,5,0,0,1,.54-.08s.08.11.12.17Zm-.23,5h.08v0Zm.06,6v0H102v0Zm-.71,2.34c-.1.2-.19.11-.28,0a1,1,0,0,0-.2-.31c0-.07,0-.1.09-.1s.37.19.49.17.08-.06.06-.19h0c.51.25-.36.37-.16.47Zm-.3,4.65v0l0,0Zm.7-21.36-.08.1-.06-.09Zm-.17-4h.08l0,.07Zm.21,6.85.08.13-.06,0-.07-.13ZM101.32,33l.14-.46.32.54Zm.07,16.52v0h-.07v0Zm0,3.53h0c.07.09,0,.31.16.35.07.23-.4.23-.16.34a.08.08,0,0,1,0,.07s-.06,0-.09,0,0,0,0,.09h0c-.16-.11-.13-.47-.36-.47h0a.64.64,0,0,1,.06-.18c0-.09.07-.19.1-.28a.4.4,0,0,0,.27.12h.12Zm-.36,5.2a.2.2,0,0,1,.14-.25h0a.75.75,0,0,1,.26,0,.46.46,0,0,1,0,.28.25.25,0,0,1-.18.08h-.09c0-.07-.05-.08-.11-.08Zm.32-3.22h0a0,0,0,0,1,0,0h0s0,0,0,0ZM101,35.67l-.17-.06,0-.06.18,0Zm.64,20.39,0-.07a.25.25,0,0,1,0,.07l0,0a.07.07,0,0,1,0,0Zm.07-30s.18.17.16.19a1.26,1.26,0,0,1-.34.31,3.31,3.31,0,0,1-.3-.25,3.67,3.67,0,0,1,.48-.25Zm-.9,7.78c.13.19.27.3.28.42s-.2.22-.28.21-.25-.14-.37-.22Zm-.43,8.74h.06c.37.2.06.28-.06.54a.48.48,0,0,0,0,.17h0a.42.42,0,0,1-.15-.11c-.17-.21,0-.58.19-.6ZM100.44,55l0,.25h-.09l0-.25Zm-.59-11.6a.67.67,0,0,1,.37-.08,1.3,1.3,0,0,1-.83.89h0c.17-.25.19-.63.45-.8Zm-.12,7.38h0c-.14-.11-.17-.37-.16-.7.33,0,.42.24.56.46s0,.11,0,.13-.21,0-.29,0-.07,0-.06.14Zm-.54-12.84c.35,0,.35,0,.33.43-.23-.09-.39-.17-.33-.43Zm.43-.9,0,.1-.23.08,0-.14Zm-.91-9.29s.05,0,.06.06a2.52,2.52,0,0,1,.21-.54h0c.29,0,.44.16.41.45-.24,0-.38.17-.55.17a.37.37,0,0,1-.18-.08s0-.06,0-.06ZM99,35.31l0,0v0ZM98,49.5l-.07,0-.06.07,0,0h0a.19.19,0,0,1,0-.07l.07,0,0-.05c-.17-.21-.07-.76-.45-.9a1.36,1.36,0,0,1,.78-.5.39.39,0,0,1,.18,0s0,0,0,0c.06.23,0,.37.31.41-.38.12-.51.54-.83.9l0,0ZM98.68,37l.19-.09-.16.15Zm-.15,12.76c.1.16.42,0,.32.46C98.65,50.18,98.54,50,98.53,49.74Zm-.29-2.67h0c-.3-.19-.65-.5-.41-.9h0a.37.37,0,0,0,.28.09.42.42,0,0,0,.34-.26h0c.47.34-.11.55-.21,1.06Zm0-9h0v0h0l.3.25c-.26,0-.25-.13-.3-.25h0v0ZM97.9,37l0,.15v0h0v0c.2.06.19.21.2.35l-.11,0-.09-.38h0v0a.57.57,0,0,0,0-.14Zm-.25-2.65,0,.12-.13,0,0-.05Zm.22,7.34a4.31,4.31,0,0,1,.7.44c-.17.1-.27.2-.31.19-.27-.12-.52-.26-.77-.39.13-.09.3-.27.38-.24Zm-.37,5.54h0a0,0,0,0,1,0,.06,0,0,0,0,1,0,0c0,.05,0,.06,0,.07s.1-.09.19-.07h0v.34h0c-.13,0-.16-.1-.27-.11h0c0-.19.07-.2.08-.34Zm-.1.47h.2c.09.14.27.3.23.4a1.89,1.89,0,0,1-.38.5,1.56,1.56,0,0,1-.27-.51c0-.11.14-.26.22-.39ZM97.59,67c0,.15-.11.2-.17.21s-.17-.14-.15-.27a.32.32,0,0,1,0-.09c-.24.08-.29,0-.67-.44a1.06,1.06,0,0,1,.74.35l0,0c.1,0,.19.1.19.22v0Zm.51,2.12L97.89,69l0-.12.3,0Zm-.2-14.87h0c-.17,0-.16-.32-.32-.35H97.5c.12-.7,0-1.76.58-1.76l.13,0c.11.59.13,1.73-.31,2.08Zm.72,15.91L98.54,70l.08,0,.08.16ZM99,52.29l-.17.05c-.16,0-.17-.13-.4-.16h-.07c.2-.23.25-.66.46-.86l.1-.07.06.16a2.42,2.42,0,0,1,0,.89Zm.08-5.72.14.07,0,.07-.14-.07Zm.6,5.93h0c-.23.41.25.66.63.8a1.28,1.28,0,0,1-.94.45h0c-.27-.28.05-.62.21-.8h-.08c-.14,0-.17.12-.34.11l-.1,0c0-.37.19-.55.62-.54Zm-.24,19.62a3.78,3.78,0,0,1,.33-.22,5.68,5.68,0,0,1-.6.5s0-.05.27-.28Zm.64,6.57a5.15,5.15,0,0,0-.54.23.25.25,0,0,1-.15,0,2.71,2.71,0,0,1,.24-.71,2.06,2.06,0,0,1,.52-.35c.07.18.15.36.22.53s-.09.29-.29.35Zm.1-12.4-.2-.06c0-.26.09-.47.43-.46Zm.14-10.22.08-.21.21.21Zm.26-.72,0,0v.08l0,0ZM101,82a1,1,0,0,1-.23-.58.45.45,0,0,1,.35-.16c.2,0,.39.17.44.52-.12.11-.36,0-.49.15A.23.23,0,0,0,101,82Zm.28,10v0h.11v0Zm.17-2.58c.52.22,0,.55,0,.91-.53-.22,0-.55,0-.91Zm.2,2.64-.1-.1,0,0,.12.09Zm.71-15c-.33.23-.7.43-1,.58a2.41,2.41,0,0,1-.59-.14c-.06,0,0-.19-.07-.29s.19-.06.26,0c.59.21.57.21.79-.28,0-.1.32-.1.48-.15,0,.11.13.29.09.31Zm-.26-18.6.13,0v.1h-.12Zm.34-1.4s0,0,0,0a1.72,1.72,0,0,0,0,.9h-.09c-.34,0-.21-.3-.36-.5h0v0l-.1-.07a.55.55,0,0,1,.35-.2.48.48,0,0,0,.2-.14ZM102.62,83c-.15-.16.21-.39.29-.3s-.21.39-.3.3Zm.32-25.1,0-.08.17-.13.07.12Zm.17-.82c-.15-.22-.15-.22.07-.42Zm.14,23.87v-.09l.3,0v.11Zm.32-10.16-.1-.09,0,0,.1.09Zm.3-2.83a.24.24,0,0,1-.2.11c-.16,0-.3-.19-.29-.46h0a.06.06,0,0,0,.06,0,.12.12,0,0,0,.1-.11h0c0,.26.36.11.33.46Zm.23,5.1h0c-.21-.13,0-.6,0-.81h0c.18.1.29.29.24.7-.11,0-.22,0-.23.11Zm.28,7.89h-.08v-.19l.13,0ZM104.49,39l-.07,0,.09-.23.09,0Zm1.2,44.86a4.92,4.92,0,0,1-.79.91.66.66,0,0,1-.19.09s-.07-.08-.06-.12c.18-.53.36-1.07.56-1.61,0,0,.11-.07.2-.13s.2.09.22.15c0,.24.16.53.06.71Zm-.12-15a.09.09,0,0,1-.07,0,.15.15,0,0,1,0-.18.41.41,0,0,1,.29-.15.09.09,0,0,1,.07,0c.11.18-.16.34-.3.34Zm.44,12-.05,0s0,0,0,0h0s0,0,0,0Zm.26-1.2a.32.32,0,0,1-.36-.07.15.15,0,0,1,.07-.19h0l.19,0c.1,0,.19,0,.21-.11h0c.22.14.06.35-.15.43Zm.53,2.25,0-.13H107v.08ZM107,81h-.11c0-.1,0-.2.05-.31l.09,0,0,.31Zm.69-3.61.21.2a1.2,1.2,0,0,1-.26.18s-.12-.09-.19-.13Zm.53,3.4c0,.22-.26.26-.2.56a.27.27,0,0,1-.12,0c-.12,0-.2-.11-.25-.11s0,0,0,.08h0c-.22-.16.24-.5.31-.71l.13.07a.55.55,0,0,0,.18,0,.19.19,0,0,1,0,.07Zm0-21.31,0,0,0,0Zm.23-16.9,0,0v.09a.43.43,0,0,1,0-.07Zm0-5.17a.24.24,0,0,1,.08-.33l.07,0v.36h0v.34h-.1l.1-.31v0Zm.11,37.44c-.11-.17.15-.33.3-.33a.1.1,0,0,1,.07,0,.18.18,0,0,1-.06.24h0l0,0a.35.35,0,0,1-.19.06.12.12,0,0,1-.09,0ZM108.7,76c.15-.25.25-.36.33-.37.26,0,.11,1.14-.12,1.14s-.33-.57-.22-.77Zm.11,1.28h0A.23.23,0,0,1,109,77l.06,0a1.63,1.63,0,0,1,.31,0c-.13.16-.22.36-.52.36Zm.58,14.62h0a.05.05,0,0,1,0,0c-.07-.11,0-.21.11-.27s.23-.08.26,0-.16.34-.3.33Zm.36-48,.47.07c-.3.26-.38.2-.48-.07Zm1.47,9.91-.16,0v-.07l.17,0Zm.23-12.16h0c-.23.43-.4.53-.82.42a1.51,1.51,0,0,1,.82-.42v0h0Zm.26-12.08,0,0v.07h0s0,0,0,0Zm.24,12-.22-.09.23,0Zm.27,5.12h-.07s0-.09,0-.13h.08Zm-.1-6.85a.37.37,0,0,1-.28-.13c-.15-.4.06-.38.16-.69h0c.21.08.17.52.4.58a.24.24,0,0,1-.23.25h0Zm.83,7.64,0,.08a.42.42,0,0,1-.44.27,4.18,4.18,0,0,0,.16-.7h0c.06.07.09.09.11.08s.06-.06.13-.08H113c-.06.1-.13.32,0,.35Zm.22,3.88h.15v.06l-.15,0s0-.07,0-.1Zm.09,1,0-.08.07.07Zm.14-13.63s0,0,0-.06h.15v.07h-.14Zm.18,7.49.38-.36.1.09a.38.38,0,0,1-.46.28h0Zm1.68,8a.29.29,0,0,1,0,.16s0,0,0,0l0,0,0,0h0c-.1.07-.23.1-.29.22-.07-.33-.2-.58-.5-.59h-.14c0-.18,0-.44-.08-.46a.23.23,0,0,1,.16-.06.66.66,0,0,1,.56.75.11.11,0,0,0,.11,0c.09,0,.12-.17.29-.1Zm0-12.63-.14-.08,0-.07.14.07Zm.33,11.94h0c-.16-.1-.23-.58,0-.59h0c.08.36,0,.31-.09.58Zm.28,1.57-.15-.11.05-.08.15.11Zm-.36-7.83c0-.3.36-.24.58-.3,0,.29-.37.23-.59.3Zm.65-1.12H116l.11-.64h0Zm.51,6.84c-.06,0-.16-.05-.24-.07l-.12-.17a1.37,1.37,0,0,1,.29-.07.7.7,0,0,1,.23.11c-.06.07-.1.18-.17.2Zm.52-10.54c.11-.11.22-.27.28-.26a2.87,2.87,0,0,1,.57.24l-.65.29s-.12-.15-.21-.27Zm.65,9.18-.17-.27.26,0Zm-.12-3,.05,0v0ZM118,45.2h0c-.05.16-.15.14-.26,0H118Zm.18,8.49v.21h-.08l0-.22Zm1,5.07c-.26.13-.53.24-.8.35,0,0-.12,0-.28-.1a4.6,4.6,0,0,1,.6-.37,2.05,2.05,0,0,1,.49-.06c0,.07,0,.17,0,.19Zm0-10-.24,0,0-.15.24.07Zm.48,5.46c.07-.2.07-.2.29-.1Z"/><path id="Path_90" data-name="Path 90" class="cls-1" d="M185.44,63.82a.74.74,0,0,0-.39-.08,1.53,1.53,0,0,0-.39.18h.89A.27.27,0,0,0,185.44,63.82Z"/><path id="Path_91" data-name="Path 91" class="cls-1" d="M225.13,65.85a2,2,0,0,0-.36.19s-.13,0-.19,0l-1.13-.23-.32-.11a.83.83,0,0,1,.16-.21,5.16,5.16,0,0,1,.8-.51,1,1,0,0,1,.51,0l.08,0a14.42,14.42,0,0,0-1.38-2c-.24.07-.48.13-.73.18l-.43.07a1.33,1.33,0,0,1-.17-.43c0-.26,0-.6.14-.76a.26.26,0,0,1,.27-.09,18.29,18.29,0,0,0-7.7-4.63,15.94,15.94,0,0,0,8.51-11.08,1.42,1.42,0,0,1-.65.26c-.4-.12-.46-.44-.48-.78a4.88,4.88,0,0,0-.12-.75l.83,0c.3,0,.42-.11.31-.39a1,1,0,0,1-.06-.34,2.57,2.57,0,0,1,.06-.4l.37.16.05,0c0-.43.05-.88.05-1.34s0-.72,0-1.07c-.23,0-.37-.15-.43-.39a.31.31,0,0,0-.24-.2c-.67,0-.62-.5-.67-.94a3,3,0,0,1,.12-.43c.14-.32.53-.67-.23-.78-.17,0-.14-1.11,0-1.21a.57.57,0,0,1,.34,0,2.64,2.64,0,0,1,.4.12,15.15,15.15,0,0,0-.61-1.63,3.45,3.45,0,0,1-.2.32c-.19-.1-.52-.18-.54-.31-.07-.38-.33-.43-.65-.55s-.25-.41-.37-.63l.39-.14.5-.31c-.13-.21-.27-.42-.41-.63h0c-.84.53-1.5.41-1.83-.41-.18-.46-.33-.46-.65-.14s-.78.18-1.17,0a.43.43,0,0,1,.05-.27c.34-.46.26-.66-.24-.92s-1.24-.36-1.38-1.09c0-.09-.51-.1-.78-.15l-.2-.07c0-.06.1-.16.15-.16.35,0,.52-.24.36-.45-.36-.49,0-.85.2-1.24-3.54-2-8.23-3.27-14-3.6l.4.38c-.17.14-.33.32-.4.3s-.34-.2-.35-.32.11-.24.2-.36c-.52,0-1-.05-1.58-.06a5.16,5.16,0,0,1,.33.8,3.15,3.15,0,0,1,0,.81c0,.08,0,.17,0,.34a2.91,2.91,0,0,1-.24-.27c-.16-.31-.3-.63-.48-.92s-.2-.57-.65-.38c0,0-.1-.07-.16-.11a.54.54,0,0,1,.16-.1,1.37,1.37,0,0,0,.28-.05l.25-.14H183.45c.15.13.32.32.55.51-.37.15-.57.32-.76.31a3.46,3.46,0,0,1-.82-.28s-.09-.16-.07-.18.27-.25.4-.36H169.88a1.28,1.28,0,0,1,0,.19.25.25,0,0,1-.11.17,2.2,2.2,0,0,1-.31.15,1.11,1.11,0,0,1,0-.25,2.17,2.17,0,0,1,0-.26H165.7V39.55a.53.53,0,0,1,.28-.07h.15c-.12.42.32.37.21.8a.24.24,0,0,1-.17.09,3.56,3.56,0,0,1-.47-.05V44l.14-.15L166,44l-.27.25V46.5a1.22,1.22,0,0,1,.1,1.41l-.1,0V66.69h0l0,0h0v1.69l.25-.19.27.36-.1.18h.21v0h-.23l-.23.37c-.05-.09-.11-.18-.16-.28V92H181c.52-.2,1.08-.32,1.71-.49a.54.54,0,0,1,0,.22l-.1.27H200.2a48.23,48.23,0,0,0,11.91-1.31.48.48,0,0,0-.24-.07h-.09c0-.26.11-.69-.21-.71a.49.49,0,0,1,.39-.17.63.63,0,0,1,.53.73.53.53,0,0,1,0,.12c9.51-2.52,14.42-8.36,14.42-16.8A17.9,17.9,0,0,0,225.13,65.85ZM165.9,54.33h-.18v0h.18Zm56.91,11.42.05.1-.2.08,0-.08Zm-.26.4.32.5-.21.54c-.15-.14-.43-.3-.43-.44s.21-.4.32-.6Zm-3.62,1.58.24.19s-.1.08-.15.08a.62.62,0,0,1-.19-.07Zm-.33,8.43a1.25,1.25,0,0,1-.4.24c-.09,0-.2-.14-.31-.22l.49-.16ZM218,62c.15.23.27.33.26.43a1.4,1.4,0,0,1-.18.48c-.11-.1-.31-.2-.32-.31s.12-.31.24-.6Zm-.37,9,0,.07h-.13a.2.2,0,0,1,0-.07Zm-.91-1.6.1-.09c.17.08.33.16.25.44Zm.09,4.47V74h0l0-.1Zm.26-6.5v.08h-.42v-.07Zm-.55-1v0h0Zm-.39,7.72h0v.11h0Zm0,6.58,0,.09-.2,0v-.06Zm-.28-13.29.09.1-.12,0Zm-.12,14c0-.14.38-.2.12-.26a.27.27,0,0,1,.16-.1c.22,0,.4.41.16.55h-.08c-.16,0-.22-.07-.34-.1h0a.12.12,0,0,1,0-.1Zm-.54-26.35v.08H215l0-.12Zm-.06-6.84v-.05h0s0,0,0,0Zm.11,8.62-.11,0s0,0,0,0h.1Zm.42-11.34.24-.06.58.12c-.1.37-.41.26-.68.24a.39.39,0,0,1-.15,0l-.35-.2Zm-.12-2.08c.12.13.26.22.25.28s-.14.15-.22.23c-.07-.07-.18-.14-.2-.22S215.52,43.62,215.6,43.48Zm.88-2.37a1.12,1.12,0,0,1,.32,0s.08.07.12.12a.88.88,0,0,1-.23.07c-.05,0-.1-.07-.21-.15ZM216,54.6a1.06,1.06,0,0,1-.29.27s-.13-.07-.27-.16l.4-.3c.06.06.18.17.16.19ZM217,53.48a1.54,1.54,0,0,1-.36.36.9.9,0,0,1-1-.5c-.07-.12.13-.39.23-.57a3.68,3.68,0,0,1,.37-.51,2.45,2.45,0,0,1,.38-.24c0,.12.06.26,0,.36a.45.45,0,0,0,.11.63.24.24,0,0,0,.11.06c.13.07.25.32.2.4Zm-.15-15s-.06.13-.11.17a4.15,4.15,0,0,1-.43.3,1.1,1.1,0,0,1-.26.06c0-.08-.1-.2-.06-.24a1.22,1.22,0,0,0,0-1.57c-.06-.1.11-.3.23-.59.43.62.6.19.84,0,.07,0,.21-.08.23-.06a.33.33,0,0,1,.08.25,1.1,1.1,0,0,1-.22.43C216.82,37.63,216.53,38,216.85,38.49ZM216,35.65c.07-.2.17-.4.25-.6l.49.38c-.23.13-.39.24-.57.32,0,0-.18-.09-.17-.11Zm2,4.29c-.16-.26-.32-.52-.47-.8,0,0,.1-.11.16-.16l.37.62Zm1.75,11.44-.58-.35a3.52,3.52,0,0,1,.74-.49c.1,0,.33.22.49.34Zm0-9c-.24-.2-.56-.36-.55-.5s.25-.4.39-.6c.21.23.41.48.6.73a4,4,0,0,1-.45.37Zm.5,1.87a.79.79,0,0,1,.78.81v0a.66.66,0,0,1-.2.06c-.23,0-.79-.45-.78-.69a.29.29,0,0,1,.19-.2Zm1.19,5.3a6.45,6.45,0,0,1-.85.27c-.06,0-.16-.09-.26-.15.06-.07.09-.13.14-.16a5.38,5.38,0,0,1,.64-.31.27.27,0,0,1,.26.05.4.4,0,0,1,.06.3Zm-.2-12.51.1.26a1.18,1.18,0,0,1-.31.08c-.06,0-.13,0-.19-.07Zm-5.72-3h.28l-.1-.15-.16-.27c.22,0,.55-.22.64-.15.25.22.69.29.69.78,0,.29.31.56.64.1,0,0,.27,0,.39,0s.54.28.8.27a.64.64,0,0,1,.78.55c.05.22.15.43.21.64a.22.22,0,0,1,0,.15c-.76.12-.13.52-.12.73s.28.58.45.86c0,.08.13.22.16.21.8-.21.51.47.72.73s.6.53.47.95a.75.75,0,0,1-.25.44,1.17,1.17,0,0,1-1.44-.68c0-.15.17-.31.19-.48a1.64,1.64,0,0,0-.1-.49,3.52,3.52,0,0,0-.35.31,1.27,1.27,0,0,0-.18.27c-.07-.09-.18-.16-.22-.26a.8.8,0,0,0-1-.45l-.13.07a1.23,1.23,0,0,1-.26.12c-.06,0-.19,0-.2,0a.43.43,0,0,1,0-.25s.1,0,.13-.05c.42-.25,1-.36.91-1,0-.12.33-.26.38-.43.14-.42-.24-.92-.79-1.14-.15-.07-.37-.13-.41-.24a.69.69,0,0,0-.75-.45c-.28,0-.31-.11-.29-.34s-.13-.36-.26-.7c-.17.25-.26.33-.27.41,0,.34-.26.44-.55.44-.11,0-.22-.15-.33-.23a1.79,1.79,0,0,1,.34-.22ZM215,32.75l.12.12a1.08,1.08,0,0,1-.24.12s-.06-.06-.1-.1Zm0,1.82h-.08v-.16H215a.86.86,0,0,0,0,.16Zm-.17,0c.29.24.1.5-.06.73s-.33.18-.5,0c0,0-.2,0-.31,0a6.79,6.79,0,0,0,.55,1.23c.17.25.53.38.79.58a1.31,1.31,0,0,1,.2.28l-.31-.1h-.27c0,.34-.31.36-.57.44a.85.85,0,0,0-.72.78,1.82,1.82,0,0,1-.13.37l-.44-.24a4.07,4.07,0,0,0-.8-.42c-.2-.06-.53-.09-.48.32a.37.37,0,0,1-.23.3c-.56,0-.28.37-.26.6,0,.39.28.3.59.26s.44.16.47-.23c0-.1.35-.17.54-.26,0,.15.13.33.07.45-.26.5,0,.82.45,1s.38.45.14.76a2.73,2.73,0,0,1-2.82.53c-.31-.17-.33-.43,0-.54.69-.2.46-.91.91-1.23-.15-.15-.27-.38-.45-.43s-.7-.08-.84-.45c-.95.11-.59-.33-.46-.78.08-.26-.15-.68.24-.78a3.73,3.73,0,0,1,1.15.09c.16,0,.31.06.46.09a1.66,1.66,0,0,0-.19-.46c-.19-.24-.44-.44-.63-.68,0-.06,0-.2.05-.3s.17.07.2.13a1.94,1.94,0,0,0,1.5.93,1.29,1.29,0,0,0,1.33-.43.58.58,0,0,0-.07-.54c-.1-.14-.33-.19-.51-.27l-.59-.26a2,2,0,0,0,.58-.21,3.92,3.92,0,0,0,.52-.56,6.29,6.29,0,0,0,.37-.67c.14-.35.38-.19.52-.07Zm-6.15,15.65-.58-.25a4.13,4.13,0,0,1,.65-.36,5.08,5.08,0,0,1,.84-.19c.19.06.54.11.55.21a.68.68,0,0,1-.21.59,1.26,1.26,0,0,1-.7.22,1.55,1.55,0,0,1-.55-.22Zm.36,3.4-.06.09-.15-.12.06-.08Zm-.39-.27-.08-.17.08,0,.1.15Zm.05,4.92a3.62,3.62,0,0,1-.22.32l-.16-.16.28-.29s.12.11.11.13Zm-.45-21a1,1,0,0,0,.3,0c.36,0,.23,0,.22.38a2,2,0,0,1-.33,1.05s0,.12,0,.17.27,0,.35,0c.52-.39.41,0,.42.35l-.1.3a1.81,1.81,0,0,0-.19-.29.47.47,0,0,0-.3-.1c-.23,0-.58.17-.66.09a5.31,5.31,0,0,1-.68-1s0-.13,0-.2c-.07-1-.07-1,1-.82Zm-1.16-3.4a2.24,2.24,0,0,1-.23-.53c0-.09.11-.2.17-.31l.3.54Zm0,5.85-.31.13,0,0h0l0,0h0c.07-.1.12-.22.32-.13Zm2.46,4a3.71,3.71,0,0,1,.1,1.15c0,.14-.28.26-.39.34-.46,0-.83-.17-.75-.54a2.86,2.86,0,0,1,.55-1.12c.17-.22.44-.05.49.17Zm-.16-2.19a3.15,3.15,0,0,1,.57.64c0,.06-.19.24-.29.36-.16-.12-.4-.2-.45-.35s.08-.34.17-.65Zm-.17,5.76-.06.06-.1-.11,0,0Zm-.63,1.06h0v0Zm0-6.37s-.1-.07-.15-.11l.17-.18.2.16a.71.71,0,0,1-.22.13Zm-.7.27a.6.6,0,0,1,.32,0,8,8,0,0,1,.31.85l-.08.34a.82.82,0,0,1-.26-.1c-.16-.13-.39-.27-.43-.44a1.42,1.42,0,0,1,.14-.67Zm1.58,10.27c.2.3.37.45.38.6s-.22.28-.35.29-.39-.18-.39-.26.17-.31.36-.63Zm.31,14a3.64,3.64,0,0,1,.36-.49l.49.43c-.23.1-.47.22-.7.3,0,0-.17-.18-.15-.24Zm.43-17.36s-.11.11-.14.1c-.37-.09-.3-.36-.29-.61a.41.41,0,0,1,0-.11h0l0-.11h0v0a.33.33,0,0,1,.38-.18l.44,0,.35.2a4.23,4.23,0,0,1-.34.4,4.15,4.15,0,0,1-.43.3Zm-.09-5.7.05-.07.25.14-.08.1Zm-.44-11s.1-.14.12-.13a3.52,3.52,0,0,1,.45.3c-.18,0-.3.11-.36.08a.64.64,0,0,1-.21-.25Zm.6-.29a.71.71,0,0,1,.26-.09c.08,0,.12.13.18.2s-.17.14-.23.13-.11-.12-.21-.24Zm1.85.72a2.67,2.67,0,0,1,0,.4c-.23-.07-.57-.09-.68-.24s0-.44.05-.65.25-.18.39-.26l.24.32-.13.06a2.78,2.78,0,0,1,.12.38Zm-.28,3,.37.44-.32.5c-.1-.23-.19-.48-.27-.72,0,0,.14-.14.22-.22Zm-.28-1.92s-.11-.06-.16-.1l.24-.25.17.16a1.22,1.22,0,0,1-.25.2ZM213,35l.28-.3c.05.07.15.15.14.2a.52.52,0,0,1-.21.23A.74.74,0,0,1,213,35Zm1.16-5.57.26.08c-.17.13-.17.13-.26-.07Zm-3.47-1.82h0v0c.45.26.47.3.35.7a.88.88,0,0,1-.35-.7h0Zm-.14-.5v.06h-.14v-.05Zm-3.42-.76a1.54,1.54,0,0,1,.52-.09c.05,0,.09.19.13.29l-.59.18-.33-.2a1,1,0,0,1,.27-.17Zm-.35,3.45c.29,0,.58-.14.86-.21-.12-.2-.24-.4-.37-.59s-.2-.16-.25-.25a.91.91,0,0,1,0-.33l.3.09c.38.18.77.34,1.14.54a1.34,1.34,0,0,1,.51.38c.05.07-.15.28-.25.43s-.09,0-.11.08l-.43.54.69.32A10.68,10.68,0,0,0,210,30.5c.12-.05.26-.28.22-.38s-.28-.58-.42-.57c-.36,0-.45-.17-.47-.39s0-.57.09-.62c.31-.13.25-.33.32-.54s.28-.38.42-.37.38.16.38.47a2.22,2.22,0,0,0,.4.93.37.37,0,0,0,.32.07,4.6,4.6,0,0,1,2.17-.32,3.12,3.12,0,0,0,.44-.09l.42-.08a1.18,1.18,0,0,0-.25.25.45.45,0,0,0-.05.3,5.06,5.06,0,0,1,.17.67,2.82,2.82,0,0,1-.08.65c-.26-.08-.59-.1-.75-.27s-.41-.46-.77-.15a.45.45,0,0,1-.36,0c-.32-.16-.44,0-.6.22a1.24,1.24,0,0,1-.47.41c-.29.14-.3.27-.1.48a1.49,1.49,0,0,1,.18.3c-.23,0-.6.18-.66.11a.7.7,0,0,0-.37-.29l-.17.05v-.05a1.27,1.27,0,0,0-.47.32,1.05,1.05,0,0,1-.71.14,9.66,9.66,0,0,1-1.52-.26c-.13,0-.21-.26-.31-.4l-.26.17a1.91,1.91,0,0,0,.06-.33c0-.14,0-.27,0-.4l-.41.2c-.14.06-.29.1-.43.15,0-.11,0-.23,0-.34s0-.32,0-.47c0-.35.22-.48.58-.36.1,0,.19.16.27.14Zm-1-3,.36-.37.16.14-.47.41c0-.05-.07-.14,0-.17Zm-.41,8.06.05-.19.1,0a1.88,1.88,0,0,1,.12-.3c.06-.11.49-.14.7-.07s.33.31.48.48,0,.12,0,.19-.14,0-.18-.06-.24-.13-.37.09a3,3,0,0,1-.62.67,1,1,0,0,1-.3.14l-.05-.23c.07-.26.11-.5.16-.72Zm1.32,1.82a2.11,2.11,0,0,1-.19.23c0-.05-.13-.1-.12-.13a1,1,0,0,1,.15-.24c.07.06.17.13.16.14Zm-1.79-5.61s.05.09,0,.12a3.71,3.71,0,0,1-.23.32.51.51,0,0,1-.17-.07Zm-1-3a5.3,5.3,0,0,1,.42-.52c.1.16.21.28.19.3a5,5,0,0,1-.49.43c0-.07-.14-.17-.12-.2Zm0,2.76c.15.26.26.36.25.44a.74.74,0,0,0,.53.82c.09,0,.2.26.16.31a1.37,1.37,0,0,1-.45.34s-.21-.11-.26-.2a5.36,5.36,0,0,1-.47-1c-.05-.16.12-.37.24-.71Zm1,5.26a2.14,2.14,0,0,1-.38.23c-.33.08-.32-.18-.31-.34s.15-.24.23-.36Zm-.86-3a2,2,0,0,1-.38.32c-.07,0-.22,0-.47-.09a5.81,5.81,0,0,1,.61-.31c.06,0,.16.05.24.08Zm-.77-6.84c.12.17.23.25.24.34s-.1.17-.16.25a1,1,0,0,1-.17-.27c0-.06,0-.15.09-.32Zm-.24,8.05a2.2,2.2,0,0,1-.41.45l-.22-.38.34-.39c.1.12.32.28.29.33Zm-.34-1.19h0l0,.11h0s0-.08,0-.11Zm-.54-4.14.42.27a5.52,5.52,0,0,1-.55.26s-.13-.08-.2-.12Zm-.45,4h0s0,0,0,0h-.07Zm.36,3s.12.11.1.14-.19.35-.29.52l-.19-.21Zm-1.8-9.49h0c.35.09.75.13.83.45a.38.38,0,0,1-.17.08c-.2,0-.27-.29-.58-.27h-.08Zm.07,6,.09.11-.14,0-.06-.08Zm.08,1.27-.11.12-.06,0,.11-.12ZM200.16,35l.37.35-.62.38a6,6,0,0,1-.61-.52s.07-.21.16-.27a.47.47,0,0,1,.67,0s0,0,0,0Zm-.84-2.09v0l0,0Zm.29.92h0a1.49,1.49,0,0,0,0-.21h0l0,.21c-.11.12-.23.2-.39,0Zm-.46-1.12c.15.16-.21.39-.29.3s.21-.38.29-.3Zm-1.62-5.46a2.69,2.69,0,0,1,.55.31s0,.29,0,.29q-.63,0-1.26,0s-.07-.1-.09-.13c0-.25.58-.54.82-.43Zm-.72,7.29c.05.66-.24,1-.88.91.32-.28.1-1.11.88-.91Zm-4.09-2.76s.17.14.16.15a1.93,1.93,0,0,1-.27.3l-.27-.28a2.66,2.66,0,0,1,.39-.16Zm-.6.93c.16-.47.31,0,.3.3-.15.48-.3,0-.29-.3Zm-.67-6.58.26.32c-.07,0-.16.13-.2.12s-.23-.12-.23-.19.12-.16.18-.24Zm-1.37,5.36c0,.17-.24.34-.3,0Zm-.77-1.09,0,.14h-.06l0-.13Zm-.8-4.93.2.06,0,.09-.2-.07Zm.1,9.07c.15.16-.22.39-.3.3s.23-.38.31-.3Zm-.5-9.12.16.14-.2-.09Zm-1.75,4.35c0,.13.14.24.11.29s-.18.13-.27.2-.13-.15-.14-.22.13-.1.31-.26ZM186,35.4c-.15-.16.21-.39.29-.3s-.19.39-.27.31Zm.19-2.89a4.75,4.75,0,0,1-.51.83c-.09.1-.5-.56-.4-.9.05-.15.33-.29.53-.33s.26.25.4.4Zm-.42-1.64a1.42,1.42,0,0,1-.38.26.76.76,0,0,1,0-.3,1.9,1.9,0,0,1,.22-.33l.16,0c0,.12.07.26,0,.34Zm-.33-1.05s.11.12.21.25c-.11,0-.19.1-.24.09a1.28,1.28,0,0,1-.27-.16,1.41,1.41,0,0,1,.32-.17Zm-.63-3,.09.22-.53.21c0-.31.21-.37.46-.43Zm-.27,4.59h.29c0,.17-.22.35-.27,0Zm.3.63s-.09.08-.13.11l-.11-.18.16-.1c.05.07.1.13.1.18Zm0,3.64c.16.16-.21.39-.29.3s.24-.38.32-.3Zm-1.86-6.37c.52-.15.3-.5.28-.79a3.41,3.41,0,0,0-.1-.46c.17,0,.4-.09.5,0a1.48,1.48,0,0,1,.3.5s0,0,0,.15c0,.34-.54.65-.25,1.12a.08.08,0,0,1,0,.05,5.39,5.39,0,0,1-.79-.12c-.1,0-.17-.17-.25-.27a1.68,1.68,0,0,1,.33-.16Zm.69,3.62c-.05.35-.29.17-.29,0,.08-.34.32-.16.32,0Zm-1.2-5.22,0,0h0Zm-.85,4c.23-.07.58,0,.59-.3h.58c.36,1-.94.23-.58,1.22-.3,0-.35-.25-.59-.3Zm.73,1.83s.1.06.2.12a1.23,1.23,0,0,1-.25.14s-.12-.08-.11-.1a.47.47,0,0,1,.19-.15Zm-.14-.31c.05-.34.29-.17.29,0,0,.36-.27.18-.27,0Zm-1,2.49h0l0,0h0l.15-.19c.08.17,0,.22-.12.2Zm.1-1.88c.15.16-.21.39-.29.3s.24-.37.32-.28Zm-.72,8.07a2,2,0,0,1,.46-.57v-.66c0,.12-.26.24-.32.18s.21-.39.29-.3l0,0v-3.7h1.68a.41.41,0,0,1,.2-.21c.07,0,.19,0,.29.05v.16h12.33a.55.55,0,0,1-.3-.38c-.06-.37.23-.54.59-.53.12,0,.24.24.26.26,0,.42-.09.61-.32.65h.62c4.8,0,8.21,1.05,10,3.17.06,0,.16.09.33.16l-.14.06a7,7,0,0,1,1.4,4.43c0,3.56-1.89,5.93-5.46,7.08l.53.52-.67.52c-.11-.18-.34-.37-.32-.54a1,1,0,0,1,.27-.44,20.46,20.46,0,0,1-6,.77h-2a1.26,1.26,0,0,1,.24.22s0,.13,0,.16l0,.11c-.11.18-.22.36-.34.54,0-.19-.05-.39-.07-.58a.5.5,0,0,1,0-.21,2.44,2.44,0,0,1,.1-.24h-1a.27.27,0,0,1,0,.12c-.05.34-.29.16-.29,0a.53.53,0,0,1,0-.12H190l.06.14s-.11.13-.12.13l-.25-.16,0,.07-.13-.06,0,0,.14,0-.13-.1h-3.18a1.1,1.1,0,0,0-.15.16l-.16-.16h-5V42.33l-.12.07h0a.43.43,0,0,1,0,.11c0,.14,0,.29.05.44a.49.49,0,0,1-.18-.08c-.22-.2-.09-.34.11-.47v0h0c-.13-.16-.38-.35-.34-.45Zm26.23,8.39v.11h0v-.11Zm-.55,5.84,0,.13a.24.24,0,0,1-.12,0,1.38,1.38,0,0,1-.31-.28c0-.08,0-.21,0-.32a1,1,0,0,1,.24.17,2.13,2.13,0,0,1,.25.34Zm-2,7.32a3.36,3.36,0,0,1,.71-.08c0,.1.07.24,0,.3a1.14,1.14,0,0,1-.53.41c-.18,0-.41-.11-.74-.21.28-.2.4-.36.56-.41Zm-.66-5.67a.24.24,0,0,1-.05-.18s.08,0,.15-.06c.38.25.77.52,1.15.79,0,0,0,.13,0,.18a.24.24,0,0,1-.14,0c-.13-.49-.75-.43-1-.74Zm1.14,3.88.09-.13.38.29-.05.06Zm-2.19-1.24h.17c.05.11.15.23.12.32a4.19,4.19,0,0,1-.29.69c-.08-.15-.23-.3-.22-.45a1.66,1.66,0,0,1,.25-.56Zm-.29-2.16s.12-.16.14-.15a2.17,2.17,0,0,1,.3.23l-.26.18a1.28,1.28,0,0,1-.15-.25Zm-1.7-.23h0a.23.23,0,0,0,0-.11c0-.11-.11-.23-.17-.34l.21,0c.34.14,0,.27,0,.4v0h0l.3.25a1.24,1.24,0,0,1-.38.09c-.1,0-.19-.1-.29-.16l.37-.18Zm.34-3.46c.15.16-.21.39-.29.3s.24-.38.32-.29Zm-.28,1.32s.08-.18.13-.28l.44.38c-.1.07-.2.18-.23.17A.89.89,0,0,1,200.6,55.93Zm.58,3.45.17.11,0,.06-.17-.1Zm.79,2.93a.47.47,0,0,1,.28.09c-.15.25-.81.14-1,.53h0c-.17-.2.34-.63.77-.62Zm-2-2.24h-.11l0-.25h.1Zm-.57-4.72s.14,0,.29.07c-.11.12-.15.22-.22.24s-.15-.07-.22-.1.08-.17.15-.21Zm-.23-2.24,0-.2h.08l0,.2Zm-1.66,9.43c.13.14.34.26.37.41s-.17.3-.27.45l-.19-.44c0-.18.06-.3.09-.42Zm-.28-1.6.11-.36.26.28Zm.61-5.52a4,4,0,0,1,.38-.59,2.61,2.61,0,0,1,.24.66c0,.06-.28.16-.44.18s-.21-.19-.18-.25Zm-.66,6.3,0,.09-.21,0v-.1Zm-1-5.27c.16.15-.21.38-.29.3s.22-.39.3-.3Zm-.77-.78a.64.64,0,0,1-.24,0h0a.38.38,0,0,0,.09-.13c.12-.24.13-.58.53-.59h.1c-.11.26-.17.57-.47.67Zm.77-.5c.09-.07.16-.18.26-.2s.18.09.33.18c-.15.1-.25.22-.33.21s-.17-.12-.26-.19Zm-2.51,1.5h-.08l.05-.06Zm-.52,4.11c.14.25.23.4.3.56,0,0-.17.12-.2.1a1,1,0,0,1-.32-.31c0-.05.1-.17.22-.36ZM193,56.4a6.29,6.29,0,0,1,.22-.69c.12.19.2.26.19.31a2.43,2.43,0,0,1-.19.47c-.07,0-.23-.08-.22-.1Zm-.6,2a2.13,2.13,0,0,1-.3-.3s.09-.13.14-.2l.4.3Zm.22,4.5c0,.08-.15.14-.23.21l-.2-.21.28-.27c.06.09.17.19.15.27Zm-1.15.39a.28.28,0,0,1,0,.09l-.65-.05v0Zm-1.14-6.27c-.26-.12-.58-.31-.65-.53s.15-.45.49-.27c.64-.24.58.23.62.53s-.29.33-.45.26Zm0,6.41h-.1l.09-.24a2.14,2.14,0,0,0,0,.25Zm-1.1-6.71c-.15-.16.21-.39.3-.31s-.21.39-.29.3Zm-.56,2.49c-.1,0-.18-.11-.38-.25a2.34,2.34,0,0,1,.64-.18c.08,0,.14.23.21.35a2.54,2.54,0,0,1-.47.07Zm0,2.08c-.15-.16.21-.39.29-.3s-.21.38-.29.3Zm-.7-7.17.32.16c-.23,0-.23,0-.31-.16Zm-.18,5c-.15-.16.21-.39.29-.31s-.21.39-.29.3Zm-.59,3C188.13,61.51,186.44,63.27,187.15,62.25Zm-1.65-4.73h0a1.41,1.41,0,0,1-.3-.46c0-.09.18-.22.29-.33a2.78,2.78,0,0,1,.17.51c0,.09-.1.19-.16.28Zm.18,4.35h0a.36.36,0,0,1,.2.29.43.43,0,0,1,0,.16l-.06,0h0a.4.4,0,0,1-.24,0h0c-.16-.14,0-.35.11-.53Zm-2.43-4.67c.13.21.36.41.37.63s-.21.4-.34.61l-.36-.29a1.46,1.46,0,0,1,0-.36l.31-.59Zm.1-4.41c.15.16-.21.39-.3.3s.22-.39.31-.3Zm-2,6.36a.38.38,0,0,0-.27.07,1.88,1.88,0,0,0-.1.47c0,.16,0,.32-.07.49-.09-.07-.23-.12-.25-.2-.07-.25-.17-.7-.1-.72.68-.27.23-.33-.07-.45,0,0,0-.12,0-.18h0v0c-.37-.16-.42-.47-.19-.7s.49-.12.64.16h0v0a1.68,1.68,0,0,0,1.46.46.38.38,0,0,1,.3.21c0,.1-.1.33-.15.33-.38,0-.74.49-1.16.07Zm.51,3.7c-.16-.15.21-.39.29-.3s-.21.38-.29.3Zm.78-9.18c0-.05-.14-.1-.16-.17s0-.15.05-.28c.11.08.21.12.2.15a1.67,1.67,0,0,1-.08.3Zm-1.82.65a.48.48,0,0,1-.16.12l-.76.27c0-.06-.07-.17-.07-.17l.72-.26ZM180,59a.52.52,0,0,1,.11.1c-.16.17-.32.32-.49.48l-.22-.18.6-.4Zm-.84-1.46.4.26c-.33-.06-.33-.06-.4-.27Zm.74-7.69c0-.12.06-.15.12-.16s.23.08.32.06h0s0,0,0-.06h0c.2.08-.1.28-.33.27a.21.21,0,0,1-.18-.09Zm.62-8.38c-.13-.12-.49-.05-.62-.18s.56.07.52-.18c.15,0,.09.22.11.36Zm0-5.38-.55.17h0a.39.39,0,0,1,.53-.18h0Zm-.7-5.42.07,0,0,.16-.13,0Zm-.2,15.58a3.6,3.6,0,0,1,.7.3,3.19,3.19,0,0,1-.7.33c-.08,0-.25-.23-.27-.36s.2-.29.27-.28Zm-.45,5.58a2,2,0,0,1-.68.57.55.55,0,0,1-.46-.12c-.06-.07,0-.31.1-.41a9.87,9.87,0,0,1,.8-.65c.12.27.31.51.25.61ZM179,63.16c.15.16-.21.39-.29.3s.22-.39.3-.3Zm-.58-.92c.15-.46.3,0,.29.3-.15.48-.3,0-.29-.3Zm.16-36.11a4.21,4.21,0,0,1,.36.37c-.08,0-.18.14-.22.12a2.94,2.94,0,0,1-.41-.31l.27-.19Zm-.42,9h0v0l0,0a0,0,0,0,0,0,0ZM177.61,37a.81.81,0,0,0,.22,0,3.41,3.41,0,0,0,.46-.1,1.81,1.81,0,0,1-.33.5c-.07.06-.29,0-.42,0a1.28,1.28,0,0,1-.35-.26l.37-.19Zm-.1,5a.2.2,0,0,1,.18.19.49.49,0,0,1-.47.52h0c.08-.26.44-.28.32-.72Zm-.72-4.37c-.1-.08-.07-.22-.1-.54.26.16.15.23.62.27,0,.2-.45.08-.52.26Zm.83,35.48s.07,0,.11.06l-.28.28-.17-.14a3.12,3.12,0,0,1,.35-.2Zm-.32-46.41s.1.09.09.1l-.24.21a1.14,1.14,0,0,1-.11-.11ZM177,29h.05v.12H177Zm-.18,5.71a2.25,2.25,0,0,1,.14.44c0,.07-.1.16-.15.24l-.18-.35ZM175.73,29a.42.42,0,0,0,.09-.31c-.13-.38,0-.58.46-.64,0,0,.08.08.08.13-.05.24-.12.47-.17.71a.34.34,0,0,1-.35.32l-.13,0a1.51,1.51,0,0,1-.26-.12c.1,0,.24,0,.28,0Zm.65,4v.06H176a.21.21,0,0,1,.16-.25.21.21,0,0,1,.26.16Zm-1,6.05-.06.27-.16-.12Zm-.57,8.53.13.08-.16-.06Zm-.05-19.08v0h-.12v0ZM174.65,39v0h-.11v0Zm-.35-.72s0,0,0,0,0,0,0,0l0,0s0,0,.05,0Zm.16.91a.3.3,0,0,0,0,.1l-.3,0s0-.07,0-.11Zm-.26,13.65c.23,0,.46,0,.82-.06,0,.1.13.3.06.39A10.37,10.37,0,0,1,174,54.28c-.07.07-.28,0-.42,0,0-.1.08-.23.17-.28.5-.27.5-.63.24-1a.7.7,0,0,1-.05-.25.68.68,0,0,0,.26.12Zm1.25,8.49c-.3.32-.45-.13-.29-.3.31-.31.46.14.3.31Zm.13-15.46a1.83,1.83,0,0,1,.27.4c0,.06-.12.14-.19.21a1.41,1.41,0,0,1-.17-.32s0-.13.09-.29Zm-.07,26.44s-.12,0-.13,0-.18-.26-.14-.34a1.41,1.41,0,0,1,.35-.27v0l0,0,.19-.44.12.06-.31.38,0,.06h0a3.38,3.38,0,0,0-.11.34,1.53,1.53,0,0,0,0,.3ZM175.45,68l0,0v0Zm-.79-7.8h-.07l0-.19.1,0Zm.22,5.08,0,.26h-.12l-.05-.25ZM174.77,70c.11,0,.23.12.35.18l-.41.44-.25-.39c.12-.09.21-.23.31-.23Zm.17-2.59a3.9,3.9,0,0,1-.19-.35s.09-.07.13-.1l.25.33Zm.18-8.43c-.12.1-.27.25-.4.24A3.86,3.86,0,0,1,174,59h0l0,0-.51-.32.14-.13.37.45,0,0h0a2.69,2.69,0,0,1,.54-.26,1.63,1.63,0,0,1,.54,0c.05,0,.12.19.09.22Zm-.54,21.54c-.26.18-.53.36-.59,0a.3.3,0,1,1,.59,0ZM174,61.8c.15.2.16.33,0,.47-.18-.2-.18-.2,0-.47Zm.34,0h-.07l0-.08Zm-.87-17.91a1.6,1.6,0,0,1-.21-.26,3.49,3.49,0,0,1,.35-.32s.14.11.12.14a3.91,3.91,0,0,1-.26.44Zm.1,5V49h-.08v-.2ZM173.3,28a1.1,1.1,0,0,1-.2-.28s.06-.09.14-.19c.09.18.15.29.2.41a.42.42,0,0,1-.14.06Zm-.1,55.48h0l0,0a.19.19,0,0,1,.1,0,.76.76,0,0,0,.08-.15c.73,0,.09,1,0,1.22-.49,0-.35-.49-.19-.84a.22.22,0,0,1,0-.16Zm1.4-27.06.05,0h0Zm-2.16-30.77c.54-.34,1.05.07,1.45,0a1.44,1.44,0,0,1-1.55.44.54.54,0,0,0,.11-.44ZM172.34,45l.24,0v.09l-.24,0Zm-.11.4a2.55,2.55,0,0,1,.5.3c-.21.07-.36.16-.47.14s-.2-.16-.24-.26.18-.2.22-.18Zm0,12.45,0,.08-.12,0s0,0,0-.08Zm0-7.9h0v0Zm0,31.76a.1.1,0,0,1,0,0h0a.1.1,0,0,1,0,0Zm0-15.29c.12-.33.12-.33.35-.18Zm.27-16.11.08,0,.1.14-.08,0Zm-.54,16.81.22,0v.13l-.23,0Zm-.59-33.62c.12,0,.2.15.3.24-.07.05-.15.15-.22.15a2,2,0,0,1-.46-.18C171.11,33.59,171.22,33.46,171.3,33.49Zm-.44-6.06.22.21-.24.17c-.05-.07-.15-.13-.16-.2s.11-.13.18-.19Zm-1.28,14.7a1.45,1.45,0,0,1,.21-.41L170,42l-.3.4c-.06-.1-.17-.2-.16-.28Zm0,2.09-.09.06-.08,0Zm-.16-9.88c-.17,0-.35.15-.39.12a1.45,1.45,0,0,1-.33-.45s.09-.16.14-.24Zm-.06,49.34h-.08v0Zm-.74-51.53c.13.13.28.22.26.26a2.29,2.29,0,0,1-.28.41c-.1-.09-.27-.19-.27-.27s.15-.23.28-.41Zm-.15,5.45a5.59,5.59,0,0,1,.46.6c.06.1,0,.24,0,.37-.16,0-.43,0-.46-.09a3.31,3.31,0,0,1-.17-.77s.05-.05.14-.12Zm-.1.71v.07h0v-.07Zm-.13,3.37s.17.11.16.13a1.22,1.22,0,0,1-.24.32l-.42-.25a4.25,4.25,0,0,1,.49-.21Zm-.64,1.4a5,5,0,0,1,.68.53s0,.09,0,.14c-.35-.08-.7-.16-1-.26-.07,0-.09-.16-.19-.36.21,0,.41-.11.51-.05Zm-.53-3.95h0c0-.09.13-.07.21-.09S167.09,39,167,39c.07-.27.07-.17,0-.44h0c.22.14.52.2.52.53a.65.65,0,0,1-.43.09Zm0-9.92a7.3,7.3,0,0,1,.36.68s-.14.13-.22.2q-.18-.29-.33-.57c0-.05.07-.14.18-.31ZM166,38.51s-.08,0-.12-.06l.15-.19.2.11a1.49,1.49,0,0,1-.24.14Zm.32-5.62c0-.27.45-.59.74-.54,0,0,.07.15.09.23.08.41-.25.54-.63.7-.08-.13-.21-.26-.21-.39Zm-.24,42.42v-.06l.12,0v0Zm.08-4.67.45.4c-.37-.07-.37-.07-.45-.4Zm.5-22.83h.13v0h-.13s0,0,0,0Zm.3,24.64-.15,0,0-.06.15,0Zm.29-2.25a3.23,3.23,0,0,1-.37.37s-.14-.11-.13-.12c.1-.16.22-.32.4-.58,0,.19.12.29.09.33Zm.61,1.46h-.05l0-.12h0Zm.1,11.72h-.05l0-.11,0,0a.36.36,0,0,1,0,.1Zm0-30.81v0h.1v0Zm-.44-5.77a4.28,4.28,0,0,1-.64-.48c.15-.09.36-.28.45-.24a4.19,4.19,0,0,1,.76.57c-.28.08-.47.19-.57.15Zm.52-2.55a.52.52,0,0,0-.24,0h0a.79.79,0,0,1,.49-.35,2,2,0,0,1,.58-.09h.07c.08.38-.12.45-.39.44s-.36,0-.52,0Zm.57,13.1h0a.14.14,0,0,1,0-.06Zm.13,7.94C169.71,64.56,168,66.32,168.73,65.29Zm.3,23.79a2.09,2.09,0,0,1,.58.91c-.13.76-.63-.51-.59-.92Zm.72-28.27s-.11,0-.24-.07l.3-.24s.13.12.12.13a.47.47,0,0,1-.19.18Zm.45,27.35c-.16.47-.31,0-.3-.3s.3,0,.29.3Zm0-4.24,0-.07.14,0,0,.07Zm.27-31.35.07,0,0,0Zm0-9.84c0-.35.29-.17.29,0-.06.34-.3.16-.3,0Zm.58.61c.15.16-.21.39-.29.3s.21-.39.29-.3Zm-.15,22c0-.07-.13-.16-.11-.21s.13-.13.21-.19l.2.2Zm.22-20.26h0v0h0l0,0Zm0-3.33v0a.25.25,0,0,0-.1.18h0c-.47-.27.38-.33-.21-.62h.52a.3.3,0,0,1-.07.31l.19,0,0,.08Zm.41,3.56v0h.12v0ZM172,86.64c-.73-.13,0-1.19.59-.92-.11.4-.52.48-.59.91Zm.59-1.53c.05-.35.29-.17.29,0-.06.35-.3.17-.3,0Zm.39.52,0-.22.14,0-.09.21Zm.15,5.32.59-.24c-.13.27-.36.25-.59.23Zm1.06-.29,0,0v0Zm-.4-5.35c.29,0,.29,0,.5.22-.3.09-.45,0-.5-.22Zm.72,5.27-.05,0,.2-.17.06.09Zm.13-19.07a1.09,1.09,0,0,1-.29-.23l.29-.21c.09.1.21.18.2.25s-.17.2-.21.18Zm.9,1.82a1.71,1.71,0,0,1-.38-.38s.12-.16.19-.25l.49.45c-.12.07-.28.2-.31.18Zm.13,9.3v0l0,0Zm.43-3.62c.15.16-.22.39-.3.3s.21-.38.29-.3Zm.29,3.27-.43.4-.18-.16.58-.34s0,.08,0,.09Zm-.43-6.59c.2-.39.2-.39.55-.28ZM176,56.13l0-.11.05,0,0,.1Zm.08,8.74,0-.07.14.08,0,.06Zm-.34-12.64s-.12,0-.26-.1l.88-.67.12.12c-.24.22-.49.44-.75.65Zm.5-7.16c0,.08-.52.19-.8.17-.1,0-.2-.31-.28-.49s0-.22,0-.27c-.57-.61.15-1,.34-1.43a.27.27,0,0,1,.24-.09.8.8,0,0,1,.33.86c-.08.1-.2.29-.17.33a.91.91,0,0,0,.34.17h0l.06-.07c.45-.42.23-.17,0,.06l.31-.08c.19-.06.41-.16.43.15s0,.49-.36.5-.43-.22-.46.19Zm.81,28.14-.08.06-.13-.15.08-.06Zm.26,3.89-.56-.12.59-.27a3.89,3.89,0,0,0,0,.39Zm.18-3.45-.15,0v-.07l.15,0Zm0,8.39c0-.31.2-.36.45-.41l.08.26Zm.49-4.09-.05,0,0-.12.09,0Zm.1-9.59,0,0,.05,0Zm.43,10.73a1.12,1.12,0,0,1-.36-.79h0v0h0l0,0h0v0c.52.43.52.44.34.79Zm0-1.36c-.07,0-.16-.11-.25-.17l.33-.27.26.27a.91.91,0,0,1-.34.17Zm.57-9.57h0s0,0,0,0l0,0s0,0,0,0Zm0-2.18h-.07v0a.29.29,0,0,1-.13,0l-.3-.23.08-.09a2.27,2.27,0,0,1,.32.22s0,.07,0,.11h0l.05,0,.65.17-.12.16Zm.61,9s0,0,0,0l0,0a.09.09,0,0,1,0,0Zm-.62-13.55a.64.64,0,0,1,.35-.83l.09,0a.82.82,0,0,1,1,.53,3.08,3.08,0,0,1,0,.61h0a2.48,2.48,0,0,0,0,.47,2.14,2.14,0,0,0,.2.4l-.53-.22s-.1-.06-.13,0c-.81.14-.85-.4-1-.88ZM180,77.71l.07-.38c.07.1.12.14.11.17a2.31,2.31,0,0,1-.18.21Zm.77,7.4c-.15-.16.21-.39.29-.3s-.22.38-.3.3Zm-.14-5.29.09-.28.15,0,0,.29Zm1.89,5.44h0v-.1h.05Zm4.16,2.6v-.18h0Zm3.75,3.65c0,.07-.14.12-.2.17s-.17-.14-.15-.17a1.77,1.77,0,0,1,.3-.31c0,.17.07.26,0,.31Zm1.25-5.39a1.84,1.84,0,0,1-.38-.17c.16-.07.24-.14.31-.13s.14.09.22.14-.12.16-.16.16Zm.84,2.59,0-.12h.27v.08Zm0-1v0h0a.1.1,0,0,1,0,0h0Zm.3.71v0h0Zm.69.25-.07-.05.12-.13.06,0Zm2.17-4.35h0c-.31-.07-.18-.48-.21-.77h0C195.77,83.59,195.65,84,195.68,84.3Zm2.64,6.3-.4-.38.2-.2c.1.09.24.16.29.28s-.06.19-.1.3Zm.55-.91a.29.29,0,0,1,.32-.26.28.28,0,0,1,.26.26c-.13.44-.26,0-.59,0Zm1.35-8.25.19-.08,0,.08Zm1.51.4v-.12h0s0,.08,0,.12Zm1,.23-.06-.15h.08Zm.23-.89-.55-.15.65-.21Zm2.3,1.8,0,0s0,0,0,0h.05Zm.1.7.08-.16.1.08-.1.13Zm.6,5.56h0a.78.78,0,0,1-.26-.17h0l0-.07a1.2,1.2,0,0,1-.2-.48h0a2,2,0,0,0,.33.08.27.27,0,0,0,.19-.08h0c.2,0,.08.35.41.27a1.76,1.76,0,0,0-.41.45Zm-.32-7.56c0-.07,0-.14,0-.2h.14l-.08.2Zm.51,1.7c.31-.11.44,0,.49.23-.26.12-.38,0-.49-.23Zm.77,5.33h-.2v0l.17,0h0c-.06-.13,0-.23.2-.22l-.2.22Zm1-9.74v0l.17,0V79Zm.2,1.7,0,0h0Zm1.2-2.39-.21-.07,0-.08.21.09Zm.7,1.87c0-.31.2-.36.44-.43l.1.23Zm1.06-3a1.17,1.17,0,0,1-.41-.82c.14.25.62.35.4.82Zm-1.86.48v0h0v0c-2,1.88-5.45,2.74-10.16,2.74H181.79l0,0v0h-.71V69.77c-.24,0-.47-.08-.7-.14a.45.45,0,0,1-.24-.4c.06-.23.19-.21.42,0a.92.92,0,0,0,.52.07V65.17h0l-.39-.18.07-.11.32.18V63.92h1.57a.39.39,0,0,1,.27-.1.62.62,0,0,1,.22.1h.52a.53.53,0,0,0-.09-.3c-.31-.37-.66-.72-1-1.09a.42.42,0,0,1,0-.38c.29-.52.69-.57,1.31-.3a.8.8,0,0,0,1-.11.91.91,0,0,1,.46-.16,1.28,1.28,0,0,1,.13.29c-.5.66.32,1.23.16,1.87a1.13,1.13,0,0,0,0,.18h13.43c8,0,12.3,2.66,12.3,8.29a7.05,7.05,0,0,1-2.14,5.45Zm1.58-32.28c-.11-.13-.07-.36-.09-.55a2.81,2.81,0,0,1,.58,0,2.94,2.94,0,0,1,.51.23h0c0-.22.1-.43.14-.65s.23-.46.56-.34c.54.18,1,.56,1.67.23.11-.06.7-.06.32.42-.12.16-.05.43-.17.59a5.37,5.37,0,0,1-.81.84,4.09,4.09,0,0,1-.59.3c-.09,0-.14.17-.2.26-.1-.13-.26-.24-.28-.38a5.26,5.26,0,0,1,0-.89c0-.53,0-.53-.6-.38h0c-.4.54-.7.65-1,.3Zm1,10.88h0l0-.1h0Zm.73-6.72c.56-.42,1.16.15,1.72-.1.09,0,.42.2.47.36a.56.56,0,0,1-.23.52.7.7,0,0,1-.58,0c-.33-.54-.95-.31-1.42-.43l-.64-.1c.12-.38.51-.09.67-.21Zm.14,5.11.43.34c-.05,0-.14.13-.16.12a2.14,2.14,0,0,1-.39-.28s.06-.1.11-.18Zm-.19-.76-.24-.35a5.6,5.6,0,0,1,.42-.62c.07-.09.23-.11.36-.16,0,.15.12.31.08.44a1.21,1.21,0,0,1-.28.46,2.12,2.12,0,0,1-.35.23Zm.38,3.23c.23.15.45.31.79.55-.27.13-.4.26-.53.26-.44,0-.34-.38-.45-.6,0,0,.17-.22.19-.21Zm.78,1.14.28.13,0,.07-.3-.09Zm.26,1.38c.08.17.17.28.15.35a.41.41,0,0,1-.26.2c-.06,0-.22-.16-.2-.21s.16-.19.3-.35Zm.05-7.72c-.13-.14-.35-.27-.38-.42s.19-.28.3-.42l.41.48Zm-2.06-1a1.74,1.74,0,0,1,.14-.38c.1.1.19.16.18.18A3.87,3.87,0,0,1,212,51s-.13-.11-.12-.15Zm.43,20.71h0c-.26-.1-.2-.27-.08-.33a.32.32,0,0,1,.14,0c.32.12.14.36,0,.35Zm.54-4.55a2.17,2.17,0,0,1-.35-.15.25.25,0,0,1,0-.12l.32,0,.35,0c.12,0,.26,0,.39,0s0,.11,0,.12a2.29,2.29,0,0,1-.37.12.31.31,0,0,1-.15,0,.59.59,0,0,1-.23,0ZM213,78.78l0,0,0,.09-.05-.07ZM213,80.9l.08-.05a.22.22,0,0,0,0,.08Zm0-2.92.07-.4.3.24Zm.14-3.43v0l.11,0v0Zm.66-4.83a.63.63,0,0,1-.59.27h-.14a.54.54,0,0,1,.08-.19c.13-.2.35-.09.65-.26-.07.07-.13.15,0,.17Zm.31-8a1.36,1.36,0,0,1,.44.11l-.5.35-.23-.29c.09-.07.18-.17.28-.18Zm.2,16.7-.19-.08,0-.07.18,0Zm-.26-11.36.41-.19.48.26c-.14.07-.29.2-.41.18a1.52,1.52,0,0,1-.49-.25Zm.82,12.82c0,.11,0,.2,0,.4l-.25-.39Zm.06,3.44,0,0-.09-.1,0,0Zm.27.86-.42-.33a4.42,4.42,0,0,1,.6-.34s.28.23.26.26a3.44,3.44,0,0,1-.44.41Zm.87,2.8a.16.16,0,0,0,.09.18h0l-.05,0a.56.56,0,0,1-.46-.56h0a.93.93,0,0,1,.62.27c0,.09-.13.07-.21.09Zm.4-4.79a.33.33,0,0,1-.24-.24c0-.1.13-.2.2-.3l.51.37c-.21.08-.34.18-.47.16Zm2.57,3.62v0l0,0Zm.75-6.63c-.72.62-1.47,1.22-2.22,1.82-.19.16-.37.16-.44-.11s-.19-.48-.12-.67.39-.21.55-.35.5-.51.76-.75a3.72,3.72,0,0,1,.47-.34l.07.13.64-.07.41-.1c0,.14,0,.35-.12.43ZM220.29,65a1.33,1.33,0,0,1-.23.3c-.07-.1-.19-.21-.18-.31s.14-.19.29-.38c.06.2.14.31.12.39Zm1,.37a.52.52,0,0,1,.14-.2h.06c.28,0,.08.43.35.45,0,.18-.2.19-.41.19h-.21a1.09,1.09,0,0,1,.06-.44Zm1,4c-.31.06-.72.2-.89-.2a5.62,5.62,0,0,1,.77-.4l.77.24a2.76,2.76,0,0,1-.65.36Zm.71-4.68.35.17-.38.17Zm2.3,7.26.07,0s0,.07,0,.07-.05,0-.08,0Zm.34,5.68c-.26,0-.53.07-.79.1h-.05l-.72.14c-.07,0-.16-.06-.24-.09.07-.06.15-.17.21-.16.25,0,.5.07.75.11h.05a6.73,6.73,0,0,1,.63-.4,1.23,1.23,0,0,1,.42-.07s.1.16.08.17a.9.9,0,0,1-.34.2Z"/><path id="Path_92" data-name="Path 92" class="cls-1" d="M180.92,58.62c.27,0,.4-.13.08-.32-.05,0,0-.14-.05-.22h0l-.45.54h0A1.55,1.55,0,0,0,180.92,58.62Z"/><path id="Path_93" data-name="Path 93" class="cls-1" d="M165.7,47.1v.22l.1,0A1.24,1.24,0,0,0,165.7,47.1Z"/><path id="Path_94" data-name="Path 94" class="cls-1" d="M64.4,91.15h0a.64.64,0,0,1,.66-.51.49.49,0,0,1,.41.22V72l-5.12-5-5.12,5V84.82l.11-.1,0,.06-.11.14-.05,0v7h7.31a.28.28,0,0,1,.37-.12h0l-.21.11h1.72a.83.83,0,0,1-.09-.44A1,1,0,0,1,64.4,91.15Zm.9-9.24,0,.07-.21.11,0-.1Zm-.28.35,0,0H65ZM61.14,73.4c-.46,0-.46,0-.43-.32.26-.06.34.1.43.32Zm-.39-1.29.11,0-.14.32-.09,0Zm-.48,1.23s0,0,0,0h0a.06.06,0,0,1,0,0Zm-.51-.77.06,0-.15.16Zm-.45.6a.76.76,0,0,1,0,.15l-.16,0ZM59,69h.08v0H59Zm.38,9.81.08.46L59,78.93Zm-3-3.67s0,0,0,0l0,.07-.06,0,.06-.05Zm-.19-3.9,0,.08h-.07Zm-.48,20.12-.1-.11.07-.09.1.1s0,0-.08.1ZM56.08,83l0-.06.13-.1,0,.06Zm.2-.36-.09-.51.27,0Zm.94-11.09-.11,0,.08-.13.06,0Zm.42,10,0,0,.09,0a.18.18,0,0,1-.07,0Zm.3,8.24h-.07v-.18h.07Zm.54-6.18a.36.36,0,0,1,0-.1l0,0,0,.12Zm.12-2.9-.35,0-.2-.34.05-.06.5.27Zm.09,9.08.06-.2,0,0Zm.18-7,.2,0v.1l-.19.05Zm.25.42-.08,0,0-.23.12,0Zm.39-.53,0-.07.1-.08,0,.09Zm.08-9.52-.1-.1.12-.14.09.09Zm.17,10Zm.16-9.65-.1,0,0-.23.14,0Zm.1,6.1.58-.24.06.13-.61.2ZM60.69,83l-.07-.1s.06,0,.08,0,0,0,0,.07Zm.56,8.45-.06,0a.3.3,0,0,1,0-.1s.05,0,.08,0ZM60.5,81.14c.1-.4.52-.48.59-.91.71.12,0,1.18-.6.91Zm.87-2v0h0l0,0,.11-.18.09.08Zm.29-2.7v0h0Zm0,4.61V81l.07,0Zm.22-2.62,0-.18.06,0,.06.17Zm.47,6.81v0l0,0ZM62.5,70.1a0,0,0,0,1,0,0h0v0l0,0Zm0,18.3.07,0a.05.05,0,0,1,0,0Zm2.06-5h0s0-.05,0-.08h0v.08c.24-.13.3,0,.3.23Zm.3-2.54c.15.16-.21.39-.29.31s.2-.39.27-.3ZM64.71,79l.07,0-.08,0Zm-.34-3.36h0c.12.06.28,0,.24.3l-.24-.3h0ZM63.09,82l-.06-.1,0,0,.06.1Zm.09-.66,0-.25h.1l0,.25Zm.12-6,.14,0h0v0l.39.09,0,.11c-.13,0-.28,0-.35-.2h0l-.15,0Zm.35,12.56-.1-.13.06,0,.11.13Zm.15-1.76h-.38c.09-.21.21-.22.36-.16v.15h0l.31-.1v.1H63.8Zm.09-3.22.11,0L64,83,64,83Zm0-1.44a.17.17,0,0,1-.18,0c-.15-.16.22-.39.3-.3l0,0c.06,0,.13,0,.3,0-.1.21-.22.3-.46.19Zm.35,5.88h0v.13h0Zm0,1.8.06,0,.08.14-.08,0Z"/><path id="Path_95" data-name="Path 95" class="cls-1" d="M57.57,64.46l.44-.19v.11l2.33-2.33L76.21,77.91l7.22-7.22-7.31-7.32-.06,0c-.07,0-.15,0-.18,0a.17.17,0,0,1,0-.12h0a.31.31,0,0,1,0-.1L60.35,47.6l-1.9,1.9.08.07-.08.08-.06-.08-3.16,3.15V67.17l2.64-2.64Zm22.8,4.21v.09l0-.07Zm-1.1.4a.64.64,0,0,0,0,.07l0-.08Zm-2.39-4.82h.05s0,.09,0,.13h0Zm-.6,2c.48,0,.59,2-.29,1.52-.12-.73.54-.66.3-1.53ZM60.67,55.78h0v-.1h0Zm11.08,4.08v0h0Zm1.66,6.19-.12,0,0-.09.11,0Zm1.53,9.6-.12-.07.2-.38.1,0Zm.36-2.09,0-.08.19-.14,0,.13Zm.35-.71h.13a.41.41,0,0,1,0,.11l-.13,0Zm0-8-.37.37c.08-.39.08-.39.37-.38Zm-.44-1.18h0c.65.39-.06.92-.41,1.39a.73.73,0,0,0-.17.34h0a1.3,1.3,0,0,1-.43-.34c-.39-.57.52-1.17,1-1.4Zm-1,8.4v.08l-.31.1,0-.07S73.89,72,74,72a.46.46,0,0,1,.2,0Zm-.24-10.75,0,0v0Zm0,.4c0,.12.1.2.08.22s-.23.21-.35.3c0-.07-.13-.17-.11-.19a4,4,0,0,1,.37-.34Zm-.48-.11h.12v0l-.12,0Zm-.06,3.25v.39h-.07l0-.39Zm-.1.76v.05l0,0Zm-.95-.21h0l0,0h0Zm-.07,1.29a.05.05,0,0,1,0,0v.07l0,0s0,0,0,0ZM71.67,59l.17.24-.23.14Zm-.62,9.69a.71.71,0,0,1-.27.18s-.16-.14-.15-.16a2.26,2.26,0,0,1,.28-.25c.07.1.16.2.14.22ZM70.87,59a.58.58,0,0,1-.22-.08s0-.14.07-.28l.19.24Zm-.32-1a.31.31,0,0,1,.28.34v0a.21.21,0,0,1-.15.11c-.14,0-.26-.2-.33-.35a.2.2,0,0,1,.2-.13Zm-.11,8.25c.79.27-.14,1.24-.88.92-.09-.71.84-.35.88-.93ZM69,58.67l0,0,0,0Zm-.38,8.54c.18.16.18.16,0,.26,0-.1,0-.17,0-.27Zm-.41,0,.07.12-.08,0,0-.13Zm-.72-.76c.25.2.35.3.13.43h-.13ZM67.2,59.5l0,.07a.86.86,0,0,1-.14.13h-.17v-.07Zm-.54,8.23,0,0-.08,0,0,0Zm-.21-7,0,.08-.16.1,0-.09Zm-.25.41.06.06-.12.15-.06,0ZM66.05,65h0c-.17.43.15.24.09.79v0c-.17-.06-.26-.24-.4-.35,0-.3.11-.45.31-.47Zm-.61,1-.38-.91c.59.43.62.49.38.9ZM65,64.55v0h-.15v-.06Zm-.56-.23a.22.22,0,0,1,0,.08s0,0,0,0a.19.19,0,0,1,0-.08ZM64,62.51l.24-.3c.06.12.11.21.09.22a2.69,2.69,0,0,1-.27.2c0-.05-.07-.1-.06-.13Zm-.34-7.2h.13v0l-.14,0Zm-.27-.38c.52.23,0,.56,0,.92-.53-.24-.05-.57,0-.93ZM62.9,52v0h0v0h0c0,.2-.18.22-.37.33.07-.3.22-.34.37-.34Zm-.4,6.89,0,.15-.06,0-.07-.14ZM62,62.57v0h-.11v0Zm-.9-6.07,0,0h0ZM60.6,55h.14v.06H60.6a.13.13,0,0,1,0-.06Zm-2,8h0s0-.08,0-.12h0Zm.77-.89a.41.41,0,0,1-.25.18c-.28,0-.55-.47-.66-.83a1.26,1.26,0,0,1-.05-.28c.51-.43.78.47,1,.92Zm-3.85,3.44,0,0,.12-.1,0,0Zm.71.08h.33c-.11.2-.2.22-.33,0ZM56.78,57Zm.54,7.71-.1-.08.12-.14,0,0Zm.09-3.08-.08,0,.07-.22.09,0Z"/><path id="Path_96" data-name="Path 96" class="cls-1" d="M76.21,58.43l3.69-3.69a3,3,0,0,1-.51.25s-.11-.1-.17-.15a2.25,2.25,0,0,1,.36-.24s.14,0,.33.13l3.53-3.52-1.56-1.56a.78.78,0,0,0,0,.16l-.15-.08.07-.17-2.71-2.71a2.45,2.45,0,0,1-.5.34s-.21-.16-.41-.33c.25-.16.4-.33.57-.35h0L68.48,36.26a1,1,0,0,1-.27.31c-.43.25-.75.7-1.38.62-.1,0-.23.26-.36.39a1.67,1.67,0,0,1-.28.18c0-.12-.17-.25-.14-.35a2.91,2.91,0,0,1,2-1.45l.2.08-7.91-7.91-.36.36c.6.21,1.18.57,1,1.43h0a5.21,5.21,0,0,1-1.35-1.12l-3,3,.1.07s0,.09,0,.09l-.15-.06-1.32,1.32v3l.35-.29c.05,0,.24.06.46.13l-.81.82V45.4l.07-.06c0,.19,0,.26,0,.38l-.1,0v2l5.12-5.12Zm4.9-8.67-.09.06-.07,0Zm-.74,3.3.08.12-.07,0-.11-.11Zm-.71-4.35-.08.17-.24-.15.07-.14Zm-.5-1.23.24.25-.33.08Zm-1.34,9.08h.12v.06h-.13ZM77,48l.34.45c-.15.19-.25.47-.39.49s-.39-.17-.58-.27Zm-3.52-1,0,0s0,0,0,0h0a0,0,0,0,0,0,0Zm2.66-2.57,0,0v0ZM76,48.17l0,0h0Zm-2-4.72a.36.36,0,0,1-.22.47l0,0-.08-.09Zm0,2.45S74,46,74,46h-.67Zm-.88-3.36A.35.35,0,0,1,73,43l-.08,0Zm-.2,3.26.1.1-.08.08-.09-.1Zm-1.46,7.31.15.24-.17.08-.12-.25Zm-1-14.84v0h-.15Zm-.12,11.3c-.18.37-.18.37-.48,0Zm-.54-2.4s0,0,0,0h0a.06.06,0,0,1,0,0s0,0,0,0Zm0,2.18v.07l-.08,0Zm-1.06-1.62h-.12l.12-.65Zm-.14-1.17.1.09-.09.09-.1-.1Zm-2-11.7v.06l0-.05Zm-.12-.22,0,0-.06,0Zm-5.63-.52h0V34h.06Zm.08-.45,0-.07h0s0,0,0,0Zm.2,5.55c-.16-.19-.25-.39,0-.57a.9.9,0,0,0-.07.27,1.53,1.53,0,0,0,0,.3Zm7,9.89-.19,0,0-.1.19.06Zm-.13-8.2,0,.1-.29.07,0-.08Zm-.77,4.14.09,0-.07.29-.1,0Zm-.36-7.37.11,0-.19.37-.13-.05Zm-.38,1.92c-.06.23-.06.23-.25.11Zm0,3.79h0a.31.31,0,0,1,0-.1l0,0Zm0,4,.08.07a.37.37,0,0,1-.44.28h0Zm-.55-7.18h.1v.05l-.11,0s0,0,0,0Zm0,3.35c.12.19.12.19-.11.26Zm-.19.66v0h0c0,.15,0,.29-.27.26l.27-.26v0ZM65.51,33.5l.15,0,0,.09-.11-.07Zm-.06,1.67.08,0-.06.16-.07,0Zm.09,3.24-.3,0-.27.07c.17-.29.37-.19.56,0ZM64.37,44l.06.13-.37.19,0-.11Zm-.6-11.15v0h0Zm-.14,3.47v0h0a.1.1,0,0,0,0,0Zm-.43-2.93.07,0h-.09a.06.06,0,0,1,0,0Zm-.52,7.44s0,0,0,0h0v-.06h0Zm-.29-5.42.08,0-.09.25-.1,0Zm-.47,6.31h0c.33.13.15.36,0,.36h0l-.1,0c-.19-.13,0-.3.11-.3ZM60.8,31.25l.06,0c.08,0,.17.07.26.07a.19.19,0,0,0,.17-.1h0a1.94,1.94,0,0,1,.24,1.16h-.4a1.05,1.05,0,0,1-.13-.26c-.07-.18-.12-.38-.2-.54a.54.54,0,0,0-.07-.13.35.35,0,0,1,.06-.17ZM57,32.66h0l0,.11h0Zm-.81,4.2,0,0v.1l-.06-.07Zm.15,2.47,0-.14h0l.07.1Zm.17,4.56a.64.64,0,0,1,0-.07h0v.08h0Zm.6-3.44s0-.07,0-.08l.09-.08.06.07Zm.18.26,0-.09.16,0,0,.08Zm.14-.49v-.08l0,.06,0,0Zm-.26-4.85a.81.81,0,0,1-.27,0h0s-.06.08-.09.09l-.63.12a1.08,1.08,0,0,0,0-.16l.61-.06h.16l.22-.16a2.37,2.37,0,0,1,.35-.19.91.91,0,0,1,.11.16l-.41.2Zm.52,5.13-.08-.06.08-.1h0l0,0h0l0-.07.07.06ZM58,39.21l0-.08.17-.06,0,.08Zm.46-2.78c-.06,0-.24-.14-.23-.2s.12-.21.23-.37c.13.15.28.25.28.35s-.18.19-.29.22ZM59.19,41v0l0,0Zm0-6.78-.08,0,.06-.18.08,0Z"/><path id="Path_97" data-name="Path 97" class="cls-1" d="M76.21,39l7.23-7.22-6.92-6.91h0v0L60.35,8.65l-5.12,5.12V18l.19.13h0c0,.07,0,.14,0,.21h0l0-.21h0l-.2,0V28.22l5.12-5.12Zm2.22-10.21-.06,0,0,0Zm-.38,4.31h.12v0h-.12Zm-.26-.65h.12v0h-.12v0Zm-1.2,1.17a10.19,10.19,0,0,1,1.1-.22c.5-.08.63,0,.72.55-.08.27-.17.54-.24.81a.39.39,0,0,0,.07.23,2.31,2.31,0,0,0,.2.24,1.09,1.09,0,0,1-.39-.08c-.09-.07-.2-.24-.17-.31.25-.52-.16-.53-.51-.58a6,6,0,0,1-.74-.08,1.73,1.73,0,0,1-.41-.3,1.42,1.42,0,0,1,.38-.26ZM63.4,23.84v0h0s0,0,0,0Zm1.26,3.26h-.13l0-.22h.08Zm2.82.31,0,0h0Zm.9-1.43,0-.13h.21v.08Zm2.67.25-.15-.16L71,26l.16.14Zm.46,7.15h-.14v-.1l.14,0Zm-.15-.55V32.2l.08,0,0,.65Zm.92-.65-.12-.13.06,0,.13.1Zm.82-.57a.68.68,0,0,1-.17-.1h.31c-.09.06-.12.1-.15.09Zm2.51-7.1c.13.1.3.18.29.23s-.12.27-.22.29-.21-.12-.33-.18ZM75,31.57l.07.05-.07.14-.07-.05Zm-.36,5v0h0c0-.15,0-.3.32-.36-.11.18-.13.34-.32.36v0h0s0,0,0,0Zm-.44-8.24,0,.08-.17.06,0-.08Zm-.45,3.75-.39.4-.08-.1a.37.37,0,0,1,.46-.3ZM73.33,31c0,.06-.1.13-.15.2a1.5,1.5,0,0,1-.16-.34c0-.06,0-.13.13-.34a2.48,2.48,0,0,1,.17.48Zm-.26-1.08S73,30,73,30a.77.77,0,0,1-.25-.14l.26-.2a.65.65,0,0,1,.11.22Zm-.28-3.72v0l-.11,0v0Zm-.26-2.48c0,.15.12.25.09.31a.35.35,0,0,1-.22.19c-.05,0-.14-.07-.22-.11Zm-.25,3.91.61.33-.23.22-.54-.47s.12-.1.15-.08Zm-.67,4.88.3-.37.09.4ZM71,23.41a2.33,2.33,0,0,1,.52.13,2.08,2.08,0,0,1,.43.3,2.73,2.73,0,0,1-.56.3A.7.7,0,0,1,71,24a2.43,2.43,0,0,1-.34-.3Zm-.53,8.33,0,.08,0-.08Zm-.23-.34h0l0,0v0l.07.14-.52-.05c.26-.21.33-.26.42-.14ZM69.1,20.09,69,19.88l.08,0,.07.2ZM69,19.44l.09.2L69,19.48Zm-.18,2.69.15.07,0,.06-.15,0Zm-.52-3.32.4-.08c-.15.33-.25.31-.4.08Zm.34-1.38,0,.06,0-.07Zm-.34.32c.16,0,.31.13.12.43h0c-.11-.05,0-.15,0-.35a.52.52,0,0,0-.23.35h0c-.2-.27,0-.42.11-.43Zm-.47-1c-.31.09-.31.09-.76-.4a.8.8,0,0,1,.75.41Zm-.72,7.87a.14.14,0,0,0,0,0h0v0l0,0ZM66,22.18l0,0-.1.11,0,0Zm-.15-4,0,0,0,.08-.07-.05.06-.05Zm-.76,8.91Zm-.45-13.37-.46.2-.27-.16c.12-.1.23-.25.35-.26s.25.14.38.22ZM63.53,12.5h.08c.14,0,.17-.14.32-.14H64c0,.6-.35.74-.64.93h0c-.09-.58.37-.32.15-.81Zm-.75,3.3,0,.07-.13.07,0-.06Zm-7.07,3.64L55.54,19l.13-.06.11.52Zm3.07,3-.08-.1.07-.06.07.12ZM59,14.83l-.09-.06.16-.25.08.06ZM60,15l0,0v0Z"/><path id="Path_98" data-name="Path 98" class="cls-1" d="M47.11,45.07,47,45.3c-.08.09-.21.26-.25.24a4.89,4.89,0,0,1-.64-.34c.16-.23.28-.4.41-.56l.64-.75v-20C47,24,47,24.05,47,24c-.24-.16-.47-.34-.69-.52.08-.07.23-.21.25-.19a6.47,6.47,0,0,1,.6.44V20.92l-11.54,17,0,0c.27.2.23.73.8.66,0,.07,0,.19-.08.2a5.06,5.06,0,0,1-.52.08l-.09.1c-.2-.15-.41-.29-.59-.44l-4.62,6.78s.05,0,.07,0a2.46,2.46,0,0,1,.6.27l-.54.37c-.1-.11-.24-.22-.26-.35a.11.11,0,0,1,0-.08l-1.35,2a.57.57,0,0,1,.11.38.89.89,0,0,1-.58.57h-.17L13.63,70.1H47.11ZM19.67,65.27l-.3.11,0-.07s.09-.11.14-.13a.41.41,0,0,1,.19,0Zm.8,3.56-.11-.08.2-.36.08,0Zm.39-2.12-.05-.1.2-.09,0,.08Zm.32-.46-.05,0,.13-.19.06.06Zm1.28-8.67-.1-.06.1-.13.06,0Zm2.88.7h-.09v-.05l.1,0a0,0,0,0,1,0,0Zm.28.65H25.5v0h.12a.07.07,0,0,1,0,0Zm.23-4.37,0,0h-.08Zm0,12.17v0h0v0h0ZM25.8,67.8c0-.21,0-.4,0-.59.15.36.15.36,0,.59Zm2.42-16.27-.36-.35.57-.59c.07.18.23.37.2.52s-.26.28-.41.42Zm.53,15.77-.15,0V67.2l.15,0Zm.5-1.18,0,0v0Zm.33-.11h-.1l0-.21h.07Zm.55-3.84v-.11h0v.11Zm.1,5c0-.07,0-.13,0-.19l.06,0,.07.18Zm.16,2.48a.1.1,0,0,1,0,0h0s0,0,0,0h-.05Zm0-19c-.15-.15.21-.39.29-.3s-.2.39-.28.3Zm.7,5.32v-.09l.08,0ZM47,31.31l-.08.06c-.19-.17-.38-.33-.55-.5s0-.1.12-.27c.21.29.37.49.51.71ZM44.25,27c.16,0,.43,0,.47.07.19.32.43.18.7.18a4.37,4.37,0,0,1,1.2.2,2.63,2.63,0,0,1-.1.56h0l0,0c0,.1.13.22.1.3a2.81,2.81,0,0,1-.34.55.28.28,0,0,1-.13,0,5.22,5.22,0,0,1,.18-.56,1.05,1.05,0,0,1,.2-.27h0v0c-.27-.19-.52-.38-.8-.55-.08-.05-.32-.05-.33,0-.22.46-.41.42-.64,0,0-.06-.18-.07-.27-.11a2,2,0,0,1-.32-.18s.06-.16.08-.16Zm.2,1,.77.54c-.17.2-.31.51-.51.55S44,29,44,28.62s.3-.44.47-.68ZM43.2,34.87a2.88,2.88,0,0,1,.46.24c-.14.1-.23.21-.26.2a2.6,2.6,0,0,1-.4-.23c.06-.07.16-.22.2-.21ZM44,42.58h0l0-.17h0c-.13.06-.23.05-.22-.2l.22.2h0v0s0,.1,0,.16ZM44,55.89l0,.07-.13-.12.05-.06Zm-.14-9.81s-.18.16-.25.14-.2-.12-.37-.24l.43-.32a2,2,0,0,1,.19.42Zm-.1,10.51h0v-.16a.61.61,0,0,0,0,.15Zm-.7.26v0h0v0h0ZM41.17,30.12l0,0h0Zm-2.46,4.17,0,0-.1.09,0,0ZM38.3,44l.05,0,0,0,0,0v0Zm-1.92-4.37c.1-.19.21-.38.34-.6a1.8,1.8,0,0,1,.19.2c-.16.19-.33.36-.49.54,0,0-.06-.11,0-.14Zm-1.92,4.17v.08l0-.07Zm-1.31,2.37-.09.12L33,46.22l.12-.09ZM33,43.64c.16.16-.21.39-.29.3s.21-.38.29-.3Zm-.33,2.92.07.06-.12.17-.07-.06ZM32.23,62l0,0-.08.1,0,0Zm-.12-3.12,0,.18h-.05L32,58.91Zm-.85,1.62v-.34l.35.07ZM32.38,64h0c-.28,0-.34-.28-.56-.35,0-.72.38-.84.72-1h0c.33.4-.09.91-.16,1.39Zm.35,5.46c.1-.07.14-.12.17-.11s.08.07.21.18Zm.28-6H32.7c.06-.35.43-.2.69-.24h0c0,.22-.21.24-.38.24Zm1.36-22.26v.17h-.06l0-.16Zm-.06,3.31.55-.63a2.39,2.39,0,0,1,.2.35,2.9,2.9,0,0,1-.53.39s-.15-.07-.23-.1Zm.51,2.6c.13.25.21.41.28.57s0,.1,0,.16l-.29-.27Zm.39,21.76-.28-.09,0-.15.29,0Zm-.1-30.06.23-.1.2.54c-.32,0-.37-.2-.44-.43Zm.43,29.29.08,0v.07Zm0-.4.13-.24.13.23Zm0-26.91h0a1.15,1.15,0,0,1,.18-.62.21.21,0,0,1,.06-.08c.07,0,.06.14.08.23h.06c.05,0,.08-.05.1-.11h0c.08.11-.17.58-.44.58Zm.49.39v0h0Zm.38,5.71-.21-.65.36.1Zm.4,2.22-.07-.19.07,0Zm.25-5.47h-.2v-.13l.2.07Zm0,3.92h.11v0H37.1s0,0,0,0Zm.06,4.7h0c0-.22.13-.39,0-.58,0-.23.31-.09.24-.47h0a1.81,1.81,0,0,0,.4.47.81.81,0,0,1-.65.58Zm.13-5.71.15,0-.14.06Zm.65-8.82a1.79,1.79,0,0,0-.28-.2c-.21-.11-.45-.19-.66-.32a1.58,1.58,0,0,1-.3-.28l.32-.18c.55,0,.84.21.92.6a1.6,1.6,0,0,1,0,.38Zm.62,21.44c-.15-.16.21-.39.29-.31s-.22.4-.3.31Zm.51-14h-.49a.22.22,0,0,0-.15.23h0a.65.65,0,0,1,.08-.91.6.6,0,0,1,.26-.14.44.44,0,0,1,.38.12c.05.36-.14.35-.09.7Zm-.32-2.06c-.11-.32,0-.44.23-.5.11.27,0,.39-.24.5Zm.34.72,0,.08-.16-.09.07-.1Zm0-1.21L38.58,42l.32-.25a4.25,4.25,0,0,1,.43.59c0,.07-.14.21-.21.31Zm.4-4.56-.33-.38.55-.39s.17.12.16.14c-.13.22-.26.42-.39.63Zm0-4.12a1.33,1.33,0,0,1-.19-.14c.16-.14.29-.25.43-.35s.12.1.19.16c-.15.12-.29.23-.44.33ZM40.61,67l-.1,0V67l.1,0Zm.1-12.17a1,1,0,0,1-.37-.35s.19-.19.29-.28l.43.38c-.18.13-.33.28-.36.26ZM41.45,70h-.08c-.16,0-.1-.32-.24-.36.12-.26.29-.4.47-.4a.47.47,0,0,1,.33.17C41.84,69.74,41.53,69.71,41.45,70Zm.45-26.13c-.15,0-.31-.3-.29-.65h0c.26,0,.16.5.43.48-.05.13-.12.18-.19.18Zm1,15.57a3.89,3.89,0,0,1,.49-.12c.07,0,.15.07.22.11a3.5,3.5,0,0,1-.54.29c-.07,0-.18,0-.28-.06Zm.3,3.35H43v0Zm0,7c-.34,0-.42-.86-.07-.92a.09.09,0,0,1,.07,0c-.06.4.07.51.24.58,0,.26-.23.12-.24.34ZM44,67s0-.06-.08-.07h0s-.05,0-.06.08a2.13,2.13,0,0,0,0,.27H43.6c0-.1,0-.11-.08-.12,0-.18.21-.34.35-.32a.2.2,0,0,1,.13.09C44,67,44,67,44,67Zm0-10v-.27H44l0,.26Zm.39-13.27-.17-.48.12,0,.14.47Zm.12-2.17c0,.05-.12.06-.19.09s-.1-.16-.08-.21c.11-.2.12-.35-.16-.42s-.35-.25-.21-.46.3-.27.34-.25a1.24,1.24,0,0,1,.4.39c.06.09,0,.23,0,.34l.06,0a4.2,4.2,0,0,1-.17.5Zm1-5.16c-.49-.07-.66.22-.8.57,0,.12-.2.2-.3.3-.07-.15-.19-.29-.19-.44,0-.63.74-.73,1.05-1.16.07-.09.68.15,1,.24a4.51,4.51,0,0,1-.44.54c-.05,0-.23,0-.36,0ZM46,37.89a8.46,8.46,0,0,1-.1-.88s.1-.08.21-.18c.12.19.31.35.31.5a1.77,1.77,0,0,1-.24.64c-.06,0-.18,0-.18-.09Z"/><path id="Path_99" data-name="Path 99" class="cls-1" d="M47.1,91.89V77.49H22.68v.15h-.09l0-.15H0l2.8,4.88a19,19,0,0,0,16.46,9.52h7l0-.16.12,0-.08.12ZM.65,78.4a.06.06,0,0,1,0,0s0,0,0,0,0,0,0,0ZM.85,78V77.9h0V78ZM2.6,80.91h0c-.33,0,.06-.49-.15-.58a.06.06,0,0,1,0-.06c.1-.07.3.47.11.64Zm.83,2h0v-.13h0ZM5.17,85.1l0,0h.07ZM8.12,79v.09a.16.16,0,0,1,0-.07l0,0Zm0,2.65h0V81.5h0Zm1.74,2.23h0v-.17h0ZM11,85.52a4.2,4.2,0,0,1-.33-.49s.11-.12.17-.18l.48.42Zm.6-3.66h0a.07.07,0,0,1,0,0ZM12,85.27l-.07,0,0-.2.12,0Zm.13-.4c-.08,0-.16-.12-.28-.22.13-.07.23-.16.28-.14a.91.91,0,0,1,.24.2c-.08.06-.17.17-.24.16Zm.33,3.67h0v0ZM12.86,81l-.06,0,.07,0a.1.1,0,0,1,0,0ZM13,88.54l0,0h.09l-.07,0Zm.71-3.41h-.05l0-.12h0Zm.09-.45h0s0,0,0,0,0,0,0,0,0,0,0,0Zm1.38,2.08-.1,0,.11-.33.09,0Zm.89-5.49c-.1,0-.27-.21-.25-.23a9.57,9.57,0,0,1,.67-.77c.18.23.33.33.36.46s-.41.6-.78.54Zm6,2.61v0l0,0Zm0-.45L21.77,83c.12-.1.23-.25.36-.27s.25.11.46.22Zm5.64-.64-.06,0,0-.15.08,0Zm17.63,2.82h0l.64.12-.1.71h0l-.63-.11Zm-3.66-4a1.16,1.16,0,0,1,.24-.2c.18-.07-.76,1.15-.73,1.21h0a.56.56,0,0,1-.31,0c-.29-.1.76-1,.79-1Zm-2.57-2.46,0,.14-.06,0-.05-.14Zm-.2,1h0v.08h0Zm-.39,1.43h.1v.05l-.11,0,0,0Zm-1,10s0,0,0,0h.1l-.07,0Zm0-4.43h0l0,.11h0Zm0-3.23v.34a.56.56,0,0,1-.09-.17s0-.06.1-.17ZM37,85.49l-.34.19c0-.12,0-.19,0-.34Zm-2,5.44,0,.27-.1,0Zm-.34.35,0,0-.05,0Zm-1.72-3.23h0l0,0a.18.18,0,0,1-.07.25h0a.36.36,0,0,1-.23.08s-.05,0-.07,0c-.11-.18.16-.34.3-.33Zm-1.66-1h0v.08h0Zm-.39-3H31v0h-.13Zm-.2-.65,0,.12-.05,0,0-.13Zm-2.92-2,.44.26a3.19,3.19,0,0,1-.58.3c-.1,0-.25-.13-.38-.2Zm-.79.32h.11v0l-.11,0Zm-.39,9.51.1,0v0l-.1,0Zm0,.3v0l0,0ZM24.2,83.23h0v.44h0Zm.11,1.2-.11,0,0-.1.11.06Zm.47,6.12,0-.1.28-.1,0,.11Zm1.29-7.12.4-.45c-.06.37-.06.37-.39.46Z"/><path id="Path_100" data-name="Path 100" class="cls-1" d="M124.57,12.8h-8.38V9.24h7.15V6.47h-7.15V3.12h8.09V.26H112.65v15.4h11.92Z"/><path id="Path_101" data-name="Path 101" class="cls-1" d="M129.59,15.66l3.64-5.34L137,15.66h4.11l-5.74-8L140.69.27h-3.85l-3.47,5-3.54-5h-4.05l5.41,7.56-5.7,7.83Z"/><path id="Path_102" data-name="Path 102" class="cls-1" d="M146,11.42h3.1c4.11,0,6.69-2.14,6.69-5.57S153.25.26,149.14.26h-6.66v15.4H146Zm0-8.25h2.9c2.18,0,3.28,1,3.28,2.68s-1.1,2.66-3.28,2.66H146Z"/><path id="Path_103" data-name="Path 103" class="cls-1" d="M169.64,12.76h-7.72V.26h-3.56v15.4h11.28Z"/><path id="Path_104" data-name="Path 104" class="cls-1" d="M178.84,15.92c4.84,0,8.42-3.36,8.42-8s-3.58-8-8.42-8-8.42,3.39-8.42,8S174,15.92,178.84,15.92Zm0-12.89a4.93,4.93,0,1,1-4.82,5V8A4.69,4.69,0,0,1,178.49,3Z"/><path id="Path_105" data-name="Path 105" class="cls-1" d="M193.51,11.37h3.28l3,4.29h3.83l-3.46-4.95a5,5,0,0,0,3.17-4.86c0-3.45-2.57-5.59-6.69-5.59H190v15.4h3.56Zm0-8.2h2.9c2.18,0,3.28,1,3.28,2.69s-1.1,2.68-3.28,2.68h-2.9Z"/><path id="Path_106" data-name="Path 106" class="cls-1" d="M218,12.8h-8.38V9.24h7.15V6.47h-7.15V3.12h8.09V.26H206.12v15.4H218Z"/><path id="Path_107" data-name="Path 107" class="cls-1" d="M98.29,15.66h2.88V12.93H104v2.73h2.87V12.93h1.86V10.05h-1.86V5.86h1.86V3h-1.86V.28H104V3h-2.87V.28H98.29V3H95.93V5.86h2.36v4.19H95.93v2.88h2.36Zm2.88-9.8H104v4.19h-2.87Z"/><path id="Path_108" data-name="Path 108" class="cls-1" d="M107.76,106.71c.48-.37,1.85-1.57,1.85-1.57l-.39-.2c-.16-.07-.13-.16-.07-.39s.29-1.07.29-1.07l-1.07.23a.16.16,0,0,1-.2-.12h0l-.16-.49-.85,1c-.13.16-.36.16-.29-.2l.35-2-.49.26a.22.22,0,0,1-.32-.06l-.69-1.3-.68,1.3c-.07.16-.2.13-.36.07l-.49-.26.4,2c.07.35-.14.34-.29.2s-.88-1-.88-1l-.12.48a.17.17,0,0,1-.19.13,11.12,11.12,0,0,1-1.09-.22s.22.81.3,1.08.11.3-.07.39l-.39.2s1.42,1.15,1.86,1.56a.26.26,0,0,1,.1.26l-.16.55c.62-.06,1.2-.16,1.86-.2.07,0,.13,0,.13.1,0,.23-.06.92-.06.92h.29l0-.92c0-.06,0-.1.13-.1.66,0,1.21.13,1.86.19l-.16-.55A.23.23,0,0,1,107.76,106.71Z"/><path id="Path_109" data-name="Path 109" class="cls-1" d="M121.4,104.76l-2.55-3.07h-1.34v5.77h1.6v-3.08l2.55,3.08H123v-5.77h-1.6Z"/><path id="Path_110" data-name="Path 110" class="cls-1" d="M127.07,101.57a3.12,3.12,0,1,0,.18,0Zm0,4.66a1.65,1.65,0,1,1,1.56-1.75v.1a1.53,1.53,0,0,1-1.44,1.64Z"/><path id="Path_111" data-name="Path 111" class="cls-1" d="M134.91,104.84c0,1-.41,1.39-1.09,1.39s-1.1-.41-1.1-1.39v-3.15h-1.63v3.2a2.72,2.72,0,0,0,5.43,0v-3.2h-1.61Z"/><path id="Path_112" data-name="Path 112" class="cls-1" d="M140.27,105.45l-1.57-3.76h-1.77l2.47,5.77H141l2.47-5.77h-1.62Z"/><path id="Path_113" data-name="Path 113" class="cls-1" d="M145.45,105.14H148v-1.22h-2.56v-1h2.91v-1.26h-4.53v5.77h4.64V106.2h-3Z"/><path id="Path_114" data-name="Path 114" class="cls-1" d="M151.23,101.69l-2.55,5.77h1.67l.45-1.12h2.44l.46,1.12h1.7l-2.56-5.77Zm.05,3.45.74-1.85.74,1.85Z"/><path id="Path_115" data-name="Path 115" class="cls-1" d="M159.5,104.84c0,1-.41,1.39-1.09,1.39s-1.1-.41-1.1-1.39v-3.15h-1.63v3.2a2.72,2.72,0,0,0,5.43,0v-3.2H159.5Z"/><rect id="Rectangle_63" data-name="Rectangle 63" class="cls-1" x="162.04" y="104.51" width="2.41" height="1.21"/><path id="Path_116" data-name="Path 116" class="cls-1" d="M169.86,104.45a1.37,1.37,0,0,0,.78-1.25c0-.89-.74-1.51-2.26-1.51h-3v5.77h3.12c1.55,0,2.38-.58,2.38-1.58A1.46,1.46,0,0,0,169.86,104.45ZM167,102.87h1.12c.55,0,.83.19.83.55s-.28.56-.83.56H167Zm1.37,3.41H167v-1.17h1.37c.56,0,.86.19.86.59s-.3.58-.86.58Z"/><path id="Path_117" data-name="Path 117" class="cls-1" d="M177,103.82c0-1.32-1-2.13-2.57-2.13h-2.64v5.77h1.63v-1.53h.89l1.05,1.54h1.75l-1.25-1.82A1.92,1.92,0,0,0,177,103.82Zm-2.67.85h-.91V103h.91c.68,0,1,.31,1,.84s-.34.85-1,.85Z"/><path id="Path_118" data-name="Path 118" class="cls-1" d="M181.65,104.84c0,1-.42,1.39-1.09,1.39s-1.1-.41-1.1-1.39v-3.15h-1.63v3.2a2.72,2.72,0,0,0,5.43,0v-3.2h-1.61Z"/><path id="Path_119" data-name="Path 119" class="cls-1" d="M188.26,104.76l-2.55-3.07h-1.35v5.77H186v-3.08l2.55,3.08h1.35v-5.77h-1.6Z"/><path id="Path_120" data-name="Path 120" class="cls-1" d="M192.33,103.37c0-.29.24-.52.93-.52a3.34,3.34,0,0,1,1.6.44l.5-1.21a4.28,4.28,0,0,0-2.1-.5c-1.72,0-2.56.84-2.56,1.87,0,2.15,3.28,1.48,3.28,2.39,0,.28-.26.47-.94.47a3.58,3.58,0,0,1-1.9-.57l-.54,1.2a4.54,4.54,0,0,0,2.43.64c1.72,0,2.56-.86,2.56-1.87C195.6,103.58,192.33,104.25,192.33,103.37Z"/><path id="Path_121" data-name="Path 121" class="cls-1" d="M202.64,105.41l-1.16-3.72H200l-1.22,3.69-1.17-3.69h-1.68l1.87,5.77h1.75l1.16-3.51,1.1,3.51h1.75l1.88-5.77h-1.56Z"/><rect id="Rectangle_64" data-name="Rectangle 64" class="cls-1" x="206" y="101.69" width="1.63" height="5.78"/><path id="Path_122" data-name="Path 122" class="cls-1" d="M211.76,102.92a1.73,1.73,0,0,1,1.36.68l1-.94a3.06,3.06,0,0,0-2.48-1.09,3,3,0,1,0-.33,6,1.82,1.82,0,0,0,.33,0,3.06,3.06,0,0,0,2.48-1.09l-1-.94a1.7,1.7,0,0,1-1.36.68,1.65,1.65,0,0,1,0-3.3Z"/><path id="Path_123" data-name="Path 123" class="cls-1" d="M220.54,101.69h-1.8l-2.24,2.4v-2.4h-1.61v5.77h1.61V106l.61-.65,1.65,2.1h1.9l-2.48-3.22Z"/><path id="Path_124" data-name="Path 124" class="cls-1" d="M18.91,104.76l-2.55-3.07H15v5.77h1.6v-3.08l2.55,3.08h1.34v-5.77h-1.6Z"/><path id="Path_125" data-name="Path 125" class="cls-1" d="M23.29,105.14h2.56v-1.22H23.29v-1H26.2v-1.26H21.67v5.77h4.64V106.2h-3Z"/><path id="Path_126" data-name="Path 126" class="cls-1" d="M33.42,105.41l-1.16-3.72h-1.5l-1.22,3.69-1.17-3.69H26.69l1.87,5.77h1.75L31.47,104l1.1,3.51h1.75l1.88-5.77H34.64Z"/><path id="Path_127" data-name="Path 127" class="cls-1" d="M43.74,104.45a1.37,1.37,0,0,0,.78-1.25c0-.89-.74-1.51-2.26-1.51h-3v5.77h3.12c1.55,0,2.38-.58,2.38-1.58A1.46,1.46,0,0,0,43.74,104.45Zm-2.82-1.58H42c.55,0,.83.19.83.55s-.28.56-.83.56H40.92Zm1.37,3.41H40.92v-1.17h1.37c.56,0,.86.19.86.59s-.3.58-.86.58Z"/><path id="Path_128" data-name="Path 128" class="cls-1" d="M50.86,103.82c0-1.32-1-2.13-2.57-2.13H45.65v5.77h1.63v-1.53h.89l1,1.54H51l-1.25-1.82A1.92,1.92,0,0,0,50.86,103.82Zm-2.67.85h-.91V103h.91c.68,0,1,.31,1,.84s-.34.85-1,.85Z"/><path id="Path_129" data-name="Path 129" class="cls-1" d="M55.53,104.84c0,1-.41,1.39-1.09,1.39s-1.1-.41-1.1-1.39v-3.15H51.71v3.2a2.72,2.72,0,0,0,5.43,0v-3.2H55.53Z"/><path id="Path_130" data-name="Path 130" class="cls-1" d="M62.14,104.76l-2.55-3.07H58.24v5.77h1.6v-3.08l2.55,3.08h1.35v-5.77h-1.6Z"/><path id="Path_131" data-name="Path 131" class="cls-1" d="M66.21,103.37c0-.29.24-.52.93-.52a3.34,3.34,0,0,1,1.6.44l.5-1.21a4.28,4.28,0,0,0-2.1-.5c-1.72,0-2.56.84-2.56,1.87,0,2.15,3.28,1.48,3.28,2.39,0,.28-.26.47-.94.47a3.58,3.58,0,0,1-1.9-.57l-.54,1.2a4.55,4.55,0,0,0,2.44.64c1.71,0,2.55-.86,2.55-1.87C69.48,103.58,66.21,104.25,66.21,103.37Z"/><path id="Path_132" data-name="Path 132" class="cls-1" d="M76.52,105.41l-1.16-3.72h-1.5l-1.22,3.69-1.16-3.69H69.79l1.87,5.77h1.75L74.57,104l1.1,3.51h1.75l1.88-5.77H77.74Z"/><rect id="Rectangle_65" data-name="Rectangle 65" class="cls-1" x="79.88" y="101.69" width="1.63" height="5.78"/><path id="Path_133" data-name="Path 133" class="cls-1" d="M85.64,102.92a1.74,1.74,0,0,1,1.36.68l1-.94a3.06,3.06,0,0,0-2.48-1.09,3,3,0,1,0-.33,6,1.82,1.82,0,0,0,.33,0A3.06,3.06,0,0,0,88,106.49l-1-.94a1.69,1.69,0,0,1-1.36.68,1.66,1.66,0,0,1-1.59-1.71,1.64,1.64,0,0,1,1.59-1.59Z"/><path id="Path_134" data-name="Path 134" class="cls-1" d="M94.42,101.69h-1.8l-2.23,2.4v-2.4H88.77v5.77h1.62V106l.61-.65,1.65,2.1h1.9l-2.49-3.22Z"/></g></svg>