<?xml version="1.0" standalone="no"?>
<!DOCTYPE svg PUBLIC "-//W3C//DTD SVG 20010904//EN"
 "http://www.w3.org/TR/2001/REC-SVG-20010904/DTD/svg10.dtd">
<svg version="1.0" xmlns="http://www.w3.org/2000/svg"
 width="598.000000pt" height="598.000000pt" viewBox="0 0 598.000000 598.000000"
 preserveAspectRatio="xMidYMid meet">
<metadata>
Created by potrace 1.11, written by Peter Selinger 2001-2013
</metadata>
<g transform="translate(0.000000,598.000000) scale(0.100000,-0.100000)"
fill="#000000" stroke="none">
<path d="M4047 5771 l-177 -178 2 -502 3 -502 75 75 c41 42 81 73 88 71 7 -3
10 0 7 6 -4 5 17 33 45 62 29 29 49 46 45 38 -5 -9 -4 -12 3 -7 7 4 12 13 12
20 0 16 42 56 59 56 7 0 9 -5 6 -10 -4 -6 -11 -7 -17 -4 -7 4 -8 2 -4 -4 7
-11 36 -6 36 7 0 4 -5 12 -12 19 -21 21 7 13 40 -11 17 -13 29 -27 25 -30 -3
-4 2 -7 11 -7 14 0 17 -5 13 -21 -4 -16 -3 -18 8 -9 10 8 15 6 20 -9 3 -12 11
-21 16 -21 16 0 69 -62 62 -73 -3 -5 -1 -7 5 -3 13 8 44 -22 37 -35 -4 -5 1
-9 9 -9 17 0 166 -146 158 -155 -3 -3 0 -5 6 -5 14 0 122 -108 122 -123 0 -5
3 -7 7 -4 7 8 39 -34 35 -46 -1 -5 2 -6 7 -3 12 8 202 -184 194 -197 -3 -5 -1
-7 5 -3 5 3 81 -65 169 -152 153 -154 159 -158 183 -145 14 7 21 13 16 13 -5
0 8 16 28 35 21 19 42 33 47 30 5 -4 6 2 2 11 -4 11 -3 15 5 10 6 -3 13 3 17
14 3 11 13 20 21 20 8 0 13 5 12 12 -2 6 8 17 22 25 14 7 21 13 16 13 -5 0 1
11 14 25 12 13 27 22 31 19 5 -3 9 2 9 10 0 8 9 18 20 21 11 4 18 10 15 15 -3
5 -1 11 5 15 5 3 10 -1 10 -9 0 -8 4 -17 9 -20 4 -3 6 6 3 20 -5 26 33 78 49
68 5 -3 9 -1 9 5 0 19 53 72 67 67 8 -3 11 -1 8 4 -3 5 6 22 20 36 l26 26 -25
27 c-15 15 -23 31 -19 36 5 4 3 6 -2 2 -12 -6 -241 221 -237 235 1 5 -1 7 -6
4 -12 -7 -164 148 -155 158 4 4 3 6 -3 4 -14 -4 -320 300 -316 314 1 5 -1 7
-6 4 -11 -7 -484 469 -475 478 5 4 3 6 -3 4 -15 -4 -164 143 -157 155 3 6 2 7
-4 4 -5 -3 -30 15 -55 41 -25 26 -67 68 -94 94 l-49 47 -178 -178z"/>
<path d="M3148 4862 c-182 -266 -500 -734 -863 -1267 -142 -209 -292 -429
-333 -490 -41 -60 -275 -404 -520 -763 -244 -359 -442 -655 -440 -657 2 -3 43
-5 91 -6 69 -1 90 -5 98 -18 9 -14 10 -14 5 2 -4 12 0 17 14 17 14 0 18 -5 14
-17 -5 -15 -4 -15 4 -4 6 8 23 16 38 18 25 4 26 3 13 -14 -13 -17 -13 -17 5
-3 25 19 71 26 60 8 -6 -10 -4 -10 7 -2 19 15 75 12 72 -3 -2 -7 4 -10 13 -6
13 5 13 7 2 14 -7 5 30 9 89 9 93 0 102 -2 97 -17 -5 -15 -4 -15 4 -4 6 8 22
16 36 18 21 3 25 0 20 -14 -5 -14 -4 -15 4 -4 14 19 67 27 56 9 -5 -10 -4 -11
7 0 17 15 43 16 33 0 -5 -7 -3 -8 7 -2 8 5 24 10 36 12 18 2 21 -1 17 -15 -5
-15 -4 -15 4 -3 14 18 72 26 72 9 0 -10 3 -10 12 -1 18 18 38 15 32 -6 -5 -14
-4 -14 4 -3 13 18 67 28 56 10 -5 -8 -3 -9 7 -3 8 5 24 10 36 12 18 2 21 -1
17 -15 -5 -14 -4 -15 4 -4 13 18 67 28 56 10 -5 -8 -3 -9 7 -3 8 5 25 10 37
12 17 2 22 -1 16 -10 -6 -10 -5 -10 7 -2 8 6 28 12 46 12 25 1 31 -3 26 -16
-4 -14 -3 -14 5 -3 13 18 67 28 56 10 -5 -8 -3 -9 7 -3 8 5 24 10 36 12 18 2
21 -1 17 -15 -5 -14 -4 -15 4 -4 13 18 67 28 56 10 -5 -8 -3 -9 7 -3 24 15 62
17 53 2 -5 -10 -4 -11 7 0 8 8 45 12 106 12 83 0 92 -2 87 -17 -5 -17 -5 -17
6 0 12 19 46 25 34 5 -5 -7 -3 -8 7 -2 23 14 62 17 53 3 -5 -8 -3 -9 7 -3 8 5
24 10 36 12 18 2 21 -1 17 -15 -5 -14 -4 -15 4 -4 14 19 67 27 56 9 -6 -10 -4
-10 7 -2 19 15 75 12 72 -3 -2 -7 4 -10 13 -6 13 5 13 7 2 15 -8 5 45 8 135 6
l147 -3 0 33 c0 20 4 31 10 27 6 -4 9 -1 8 7 -2 7 3 12 10 10 8 -1 11 2 7 8
-5 8 -11 7 -21 -1 -18 -15 -20 11 -1 30 10 11 10 13 0 7 -8 -5 -13 -1 -13 9 0
10 5 13 13 9 9 -6 9 -5 0 7 -14 18 -14 189 1 208 8 11 8 13 -1 7 -8 -4 -13 -1
-13 9 0 9 5 13 10 10 6 -3 10 -1 10 4 0 6 -4 11 -10 11 -5 0 -10 14 -10 30 0
17 5 30 10 30 6 0 10 5 10 11 0 5 -4 7 -10 4 -14 -9 -12 28 3 44 9 11 9 13 0
7 -9 -5 -13 2 -13 26 0 19 6 40 13 47 10 11 10 13 0 7 -8 -5 -13 -1 -13 9 0 9
4 14 9 10 5 -3 13 -1 16 5 4 6 1 9 -7 8 -17 -4 -22 180 -5 201 9 12 9 13 0 7
-8 -4 -13 -1 -13 9 0 9 5 13 10 10 6 -3 10 -1 10 4 0 6 -4 11 -10 11 -5 0 -10
14 -10 30 0 17 5 30 10 30 6 0 10 5 10 11 0 5 -4 7 -10 4 -14 -9 -12 28 3 44
10 11 10 13 0 7 -9 -5 -13 2 -13 26 0 19 6 40 13 47 10 11 10 13 0 7 -9 -5
-13 3 -13 27 0 35 20 63 35 49 5 -4 5 -1 1 6 -6 10 -11 10 -22 1 -17 -14 -19
2 -1 20 10 11 10 13 0 7 -9 -5 -13 -1 -13 11 0 11 6 25 13 32 10 11 10 13 0 7
-8 -5 -13 -1 -13 9 0 9 5 13 10 10 6 -3 10 -1 10 4 0 6 -4 11 -10 11 -5 0 -10
14 -10 30 0 17 5 30 10 30 6 0 10 5 10 11 0 5 -4 7 -10 4 -14 -9 -12 28 3 44
10 11 10 13 0 7 -9 -5 -13 3 -13 27 0 35 20 63 35 49 5 -4 5 -1 1 6 -6 10 -11
10 -22 1 -17 -14 -19 2 -1 20 10 11 10 13 0 7 -9 -5 -13 -1 -13 11 0 11 6 25
13 32 10 11 10 13 0 7 -8 -5 -13 -1 -13 9 0 9 5 13 10 10 6 -3 10 -1 10 4 0 6
-4 11 -10 11 -5 0 -10 14 -10 30 0 17 5 30 10 30 6 0 10 5 10 11 0 5 -4 7 -10
4 -14 -9 -12 28 3 44 10 11 10 13 0 7 -9 -5 -13 3 -13 27 0 35 20 63 35 49 5
-4 5 -1 1 6 -6 10 -11 10 -22 1 -17 -14 -19 2 -1 20 10 11 10 13 0 7 -9 -5
-13 -1 -13 11 0 11 6 25 13 32 10 11 10 13 0 7 -8 -5 -13 -1 -13 9 0 9 5 13
10 10 6 -3 10 -1 10 4 0 6 -4 11 -10 11 -5 0 -10 14 -10 30 0 17 5 30 10 30 6
0 10 5 10 11 0 5 -4 7 -10 4 -14 -9 -12 28 3 44 10 11 10 13 0 7 -9 -5 -13 3
-13 27 0 35 20 63 35 49 5 -4 5 -1 1 6 -6 10 -11 10 -22 1 -17 -14 -19 2 -1
20 10 11 10 13 0 7 -9 -5 -13 -1 -13 11 0 11 6 25 13 32 10 11 10 13 0 7 -8
-5 -13 -1 -13 9 0 9 5 13 10 10 6 -3 10 -1 10 4 0 6 -4 11 -10 11 -5 0 -10 14
-10 30 0 17 5 30 10 30 6 0 10 5 10 11 0 5 -4 7 -10 4 -14 -9 -12 28 3 44 10
11 10 13 0 7 -9 -5 -13 2 -13 26 0 19 6 40 13 47 10 11 10 13 0 7 -8 -5 -13
-1 -13 9 0 9 5 13 10 10 6 -3 10 -1 10 4 0 6 -4 11 -10 11 -5 0 -10 14 -10 30
0 17 5 30 10 30 6 0 10 5 10 11 0 5 -4 7 -10 4 -14 -9 -12 28 3 44 10 11 10
13 0 7 -9 -5 -13 2 -13 26 0 19 6 40 13 47 10 11 10 13 0 7 -8 -5 -13 -1 -13
9 0 9 4 14 9 10 5 -3 13 -1 16 5 4 6 1 9 -7 8 -17 -4 -21 180 -4 201 8 11 8
13 -1 7 -8 -4 -13 -1 -13 9 0 9 5 13 10 10 6 -3 10 -1 10 4 0 6 -4 11 -10 11
-5 0 -10 14 -10 30 0 27 9 35 33 31 5 -1 6 3 2 8 -3 6 -12 8 -19 5 -11 -4 -14
30 -15 187 -1 106 -3 194 -5 196 -1 2 -72 -99 -158 -225z"/>
<path d="M4170 4868 c-12 -22 -12 -22 6 -6 10 10 15 20 12 24 -4 3 -12 -5 -18
-18z"/>
<path d="M4231 4873 c-2 -20 16 -24 30 -5 13 15 12 16 -3 4 -13 -10 -17 -10
-21 0 -4 9 -6 9 -6 1z"/>
<path d="M4174 4835 c-4 -8 -11 -12 -17 -8 -6 3 -7 1 -3 -5 10 -16 14 -15 26
8 6 11 8 20 5 20 -3 0 -8 -7 -11 -15z"/>
<path d="M4100 4805 c-9 -10 -9 -15 -1 -15 6 0 11 5 11 11 0 6 9 9 20 6 11 -3
18 -1 14 4 -8 14 -30 11 -44 -6z"/>
<path d="M3333 4775 c0 -8 4 -12 9 -9 5 3 6 10 3 15 -9 13 -12 11 -12 -6z"/>
<path d="M4076 4771 c-3 -5 1 -11 9 -14 9 -4 12 -1 8 9 -6 16 -10 17 -17 5z"/>
<path d="M4090 4720 c0 -5 5 -10 11 -10 5 0 7 5 4 10 -3 6 -8 10 -11 10 -2 0
-4 -4 -4 -10z"/>
<path d="M4035 4709 c-4 -6 -5 -12 -2 -15 2 -3 7 2 10 11 7 17 1 20 -8 4z"/>
<path d="M4056 4678 c3 -5 10 -6 15 -3 13 9 11 12 -6 12 -8 0 -12 -4 -9 -9z"/>
<path d="M4043 4413 l-173 -175 0 -499 c0 -274 2 -499 4 -499 2 0 41 38 87 85
61 61 86 81 95 74 9 -8 11 -5 7 10 -3 13 -1 21 6 21 7 0 9 -5 5 -12 -5 -7 -3
-8 5 -4 7 5 10 15 7 23 -5 12 -1 14 14 10 23 -6 36 8 19 19 -8 5 -9 3 -4 -6 5
-9 4 -11 -3 -6 -16 9 -16 8 17 40 21 20 31 24 36 15 6 -8 4 -10 -5 -4 -9 5
-11 4 -6 -4 10 -16 26 -4 19 15 -5 15 40 63 60 64 20 1 3 -23 -25 -35 -19 -8
-26 -14 -15 -15 17 0 20 -7 20 -42 0 -10 3 -15 8 -13 8 6 5 38 -7 57 -5 8 -2
9 10 5 9 -4 15 -3 12 2 -3 5 1 12 9 15 18 7 30 -17 19 -36 -6 -11 -5 -11 8 0
12 10 17 10 27 -1 6 -8 7 -18 3 -22 -4 -5 -2 -6 3 -2 14 7 898 -877 888 -888
-5 -4 -3 -5 3 -2 6 4 37 -20 68 -53 55 -58 78 -66 90 -34 3 9 10 13 15 9 5 -3
12 4 16 15 4 11 10 18 15 15 4 -3 11 2 14 11 3 8 11 12 17 8 7 -4 10 -3 6 2
-3 5 5 22 18 38 16 20 25 25 30 16 6 -9 4 -11 -6 -6 -8 4 -6 1 3 -7 10 -8 14
-18 10 -22 -4 -5 -1 -5 6 -1 9 5 9 12 1 27 -12 23 3 49 27 49 8 0 14 5 14 11
0 5 -5 7 -12 3 -7 -4 -8 -3 -4 5 4 6 10 9 14 7 4 -2 13 2 20 10 7 8 9 14 5 14
-4 0 4 8 20 18 15 10 24 22 20 27 -5 4 -2 5 5 1 7 -4 12 -1 12 9 0 9 5 13 10
10 6 -3 10 2 11 12 0 10 3 13 6 6 2 -7 9 -13 14 -13 4 0 6 6 3 14 -3 7 6 23
20 34 14 11 26 25 26 32 0 7 7 10 15 7 8 -4 17 -1 21 5 5 7 2 8 -7 4 -8 -4 -3
2 11 14 14 12 18 18 10 14 -8 -4 -1 6 15 22 63 60 69 46 -99 215 -85 84 -152
158 -149 164 4 5 2 7 -2 2 -10 -9 -196 173 -189 185 3 5 1 7 -4 6 -14 -4 -961
945 -955 956 4 5 2 6 -3 3 -5 -3 -39 23 -74 59 -35 35 -69 64 -75 63 -5 0 -88
-80 -182 -176z"/>
<path d="M3330 4520 c0 -5 5 -10 11 -10 5 0 7 5 4 10 -3 6 -8 10 -11 10 -2 0
-4 -4 -4 -10z"/>
<path d="M3330 4440 c0 -5 5 -10 11 -10 5 0 7 5 4 10 -3 6 -8 10 -11 10 -2 0
-4 -4 -4 -10z"/>
<path d="M5745 4250 c-10 -11 -14 -20 -9 -20 5 0 15 9 22 20 7 11 11 20 9 20
-2 0 -12 -9 -22 -20z"/>
<path d="M5799 4253 c-13 -16 -12 -17 4 -4 9 7 17 15 17 17 0 8 -8 3 -21 -13z"/>
<path d="M5675 4180 c-10 -11 -16 -22 -14 -24 2 -2 12 7 22 20 22 29 17 32 -8
4z"/>
<path d="M5699 4173 c-13 -16 -12 -17 4 -4 16 13 21 21 13 21 -2 0 -10 -8 -17
-17z"/>
<path d="M5690 4120 c0 -5 5 -10 11 -10 5 0 7 5 4 10 -3 6 -8 10 -11 10 -2 0
-4 -4 -4 -10z"/>
<path d="M5620 4099 c0 -5 5 -7 10 -4 6 3 10 8 10 11 0 2 -4 4 -10 4 -5 0 -10
-5 -10 -11z"/>
<path d="M5596 4073 c-6 -14 -5 -15 5 -6 7 7 10 15 7 18 -3 3 -9 -2 -12 -12z"/>
<path d="M5650 4080 c0 -5 5 -10 11 -10 5 0 7 5 4 10 -3 6 -8 10 -11 10 -2 0
-4 -4 -4 -10z"/>
<path d="M5554 4058 l-19 -23 23 19 c12 11 22 21 22 23 0 8 -8 2 -26 -19z"/>
<path d="M5559 4033 c-13 -16 -12 -17 4 -4 16 13 21 21 13 21 -2 0 -10 -8 -17
-17z"/>
<path d="M5593 4035 c0 -8 4 -12 9 -9 5 3 6 10 3 15 -9 13 -12 11 -12 -6z"/>
<path d="M5506 4012 c-2 -4 4 -8 14 -8 10 0 16 4 14 8 -3 4 -9 8 -14 8 -5 0
-11 -4 -14 -8z"/>
<path d="M5500 3980 c-9 -6 -10 -10 -3 -10 6 0 15 5 18 10 8 12 4 12 -15 0z"/>
<path d="M5466 3944 c-9 -24 -2 -26 12 -4 7 11 8 20 3 20 -5 0 -12 -7 -15 -16z"/>
<path d="M5495 3920 c3 -5 8 -10 11 -10 2 0 4 5 4 10 0 6 -5 10 -11 10 -5 0
-7 -4 -4 -10z"/>
<path d="M5439 3893 c-12 -16 -12 -17 2 -6 9 7 20 9 24 5 5 -4 5 -1 1 6 -9 16
-11 15 -27 -5z"/>
<path d="M4137 3493 c-4 -3 -7 -11 -7 -17 0 -6 5 -5 12 2 6 6 9 14 7 17 -3 3
-9 2 -12 -2z"/>
<path d="M4149 3463 c-13 -16 -12 -17 4 -4 16 13 21 21 13 21 -2 0 -10 -8 -17
-17z"/>
<path d="M4170 3446 c0 -2 7 -7 16 -10 8 -3 12 -2 9 4 -6 10 -25 14 -25 6z"/>
<path d="M4040 3380 c8 -5 20 -10 25 -10 6 0 3 5 -5 10 -8 5 -19 10 -25 10 -5
0 -3 -5 5 -10z"/>
<path d="M4035 3340 c3 -5 8 -10 11 -10 2 0 4 5 4 10 0 6 -5 10 -11 10 -5 0
-7 -4 -4 -10z"/>
<path d="M4047 3062 l-177 -177 2 -498 3 -498 67 65 c36 35 69 62 73 58 3 -3
8 4 12 16 7 27 11 27 30 5 13 -17 13 -16 4 3 -12 25 -5 37 34 55 17 8 30 19
31 24 3 37 43 60 45 26 0 -11 2 -12 6 -3 3 7 -1 20 -9 29 -9 12 -9 15 0 9 6
-4 12 -2 12 3 0 6 5 11 11 11 6 0 8 -9 4 -22 -5 -20 -5 -21 5 -5 8 12 8 22 2
30 -11 13 4 33 25 32 17 0 253 -237 247 -247 -3 -5 -1 -7 4 -6 13 4 142 -124
135 -135 -3 -6 -2 -7 4 -4 13 8 66 -47 56 -58 -5 -4 -3 -5 3 -2 14 8 67 -46
57 -58 -5 -4 -3 -6 2 -2 12 6 142 -121 137 -135 -1 -4 4 -7 10 -6 7 2 12 -3
10 -10 -1 -8 1 -11 6 -8 12 7 144 -128 135 -138 -4 -4 -3 -6 3 -4 15 4 105
-83 97 -95 -3 -6 -2 -7 4 -4 13 8 56 -37 46 -48 -5 -4 -3 -5 3 -2 6 3 39 -23
73 -59 61 -62 81 -75 81 -53 0 6 7 8 16 5 8 -3 12 -2 9 3 -3 5 4 16 15 24 11
7 17 17 13 20 -3 4 3 7 15 7 12 0 21 6 20 13 -2 6 3 11 10 9 8 -1 11 2 8 7 -3
5 7 21 24 34 16 14 30 30 30 36 0 6 5 11 11 11 5 0 7 -5 3 -12 -4 -7 -3 -8 4
-4 7 4 12 14 12 22 0 8 4 14 9 14 5 0 13 9 16 20 3 11 13 20 21 20 8 0 14 5
14 11 0 5 5 7 10 4 6 -3 10 0 10 7 0 23 157 171 172 162 9 -6 9 -3 -2 12 -8
10 -10 16 -6 12 12 -10 57 52 49 66 -4 6 -20 21 -35 34 -15 13 -25 29 -21 34
3 6 2 8 -4 5 -11 -7 -66 46 -58 56 3 4 2 5 -1 2 -11 -7 -144 127 -137 138 3 6
2 7 -4 4 -11 -7 -66 46 -58 56 3 4 2 5 -2 2 -10 -8 -103 88 -96 98 3 6 2 7 -4
4 -12 -8 -125 107 -115 118 4 5 2 5 -4 2 -14 -8 -67 46 -57 58 5 4 3 5 -3 2
-14 -8 -146 127 -136 138 4 5 2 5 -4 2 -12 -7 -187 166 -179 176 3 4 2 5 -1 2
-11 -7 -163 148 -157 159 3 6 2 8 -2 3 -11 -10 -66 43 -58 56 3 6 2 7 -4 4
-11 -7 -85 67 -77 77 2 3 1 4 -3 1 -9 -7 -183 167 -177 177 3 5 1 7 -5 6 -5
-2 -50 36 -99 85 -49 48 -91 87 -93 87 -2 0 -84 -80 -182 -178z m73 -946 c0
-3 -4 -8 -10 -11 -5 -3 -10 -1 -10 4 0 6 5 11 10 11 6 0 10 -2 10 -4z"/>
<path d="M5794 2928 l-19 -23 23 19 c12 11 22 21 22 23 0 8 -8 2 -26 -19z"/>
<path d="M5762 2878 c-15 -15 -15 -28 0 -28 6 0 8 3 5 7 -4 3 -2 12 4 20 14
16 7 17 -9 1z"/>
<path d="M5723 2843 c-16 -6 -17 -29 -1 -39 7 -4 8 -3 4 5 -4 6 -2 18 4 26 13
16 12 16 -7 8z"/>
<path d="M5676 2807 c3 -10 9 -15 12 -12 3 3 0 11 -7 18 -10 9 -11 8 -5 -6z"/>
<path d="M5615 2739 c-4 -6 -4 -13 -1 -16 3 -4 6 -1 6 6 0 8 8 11 20 8 11 -3
18 -1 14 4 -7 12 -31 11 -39 -2z"/>
<path d="M5581 2704 c0 -11 3 -14 6 -6 3 7 2 16 -1 19 -3 4 -6 -2 -5 -13z"/>
<path d="M5596 2667 c3 -10 9 -15 12 -12 3 3 0 11 -7 18 -10 9 -11 8 -5 -6z"/>
<path d="M5470 2581 c0 -6 4 -13 10 -16 6 -3 7 1 4 9 -7 18 -14 21 -14 7z"/>
<path d="M3330 2440 c0 -5 5 -10 11 -10 5 0 7 5 4 10 -3 6 -8 10 -11 10 -2 0
-4 -4 -4 -10z"/>
<path d="M3330 2360 c0 -5 5 -10 11 -10 5 0 7 5 4 10 -3 6 -8 10 -11 10 -2 0
-4 -4 -4 -10z"/>
<path d="M4222 2213 c-10 -4 -10 -8 -1 -19 14 -17 29 -18 29 -3 0 5 -5 7 -12
3 -8 -5 -9 -2 -5 9 3 10 5 17 4 16 -1 0 -8 -3 -15 -6z"/>
<path d="M4214 2158 c-4 -7 -3 -10 1 -5 5 4 18 -1 29 -10 21 -18 21 -18 2 5
-22 26 -23 26 -32 10z"/>
<path d="M4273 2155 c0 -8 4 -12 9 -9 4 3 8 9 8 15 0 5 -4 9 -8 9 -5 0 -9 -7
-9 -15z"/>
<path d="M4115 2081 c-3 -5 -2 -12 3 -15 5 -3 9 1 9 9 0 17 -3 19 -12 6z"/>
<path d="M3330 1960 c0 -5 5 -10 11 -10 5 0 7 5 4 10 -3 6 -8 10 -11 10 -2 0
-4 -4 -4 -10z"/>
<path d="M4048 1726 l-178 -172 0 -692 0 -692 28 -1 c15 -1 44 -1 65 -1 25 0
35 -3 31 -11 -5 -8 -2 -8 7 0 16 16 33 17 23 2 -4 -8 -1 -8 12 -2 29 15 124
10 136 -7 8 -12 9 -11 4 3 -4 12 -2 17 6 14 7 -2 12 -10 10 -16 -1 -7 2 -10 8
-6 6 3 8 10 6 14 -3 4 21 7 54 7 36 -1 56 -5 53 -11 -3 -5 0 -4 8 3 16 15 33
16 23 0 -5 -7 -3 -8 7 -2 20 12 73 12 81 0 5 -7 8 -6 8 3 0 11 4 9 15 -5 10
-13 13 -14 10 -3 -4 10 0 16 10 16 8 0 15 -5 15 -11 0 -7 3 -8 8 -1 4 6 25 10
47 10 l40 1 0 77 c0 44 4 77 10 77 7 0 7 3 0 8 -15 11 -12 66 5 79 8 6 12 15
7 19 -4 4 -7 2 -7 -4 0 -7 -3 -12 -8 -12 -11 0 -9 64 3 72 7 5 7 8 0 8 -13 0
-7 80 7 97 6 7 15 10 21 6 6 -3 7 -1 3 6 -6 9 -11 9 -22 0 -8 -6 -17 -9 -21
-5 -4 3 2 13 13 22 10 8 14 13 7 10 -6 -4 -14 -2 -18 4 -3 5 0 10 7 10 8 0 9
3 3 8 -16 11 -13 66 4 79 9 6 13 15 8 19 -4 4 -7 2 -7 -4 0 -7 -3 -12 -8 -12
-11 0 -9 64 3 72 6 5 6 8 -1 8 -7 0 -9 10 -6 25 2 14 8 22 12 20 5 -3 12 -1
15 5 4 6 3 10 -2 9 -23 -4 -31 3 -29 26 0 15 7 25 16 26 13 0 13 1 0 7 -20 9
-21 65 -1 57 10 -4 9 1 -4 15 -16 18 -17 23 -5 30 13 8 13 10 0 10 -13 0 -13
2 0 9 8 6 18 7 24 4 5 -3 6 -1 2 6 -4 6 -11 9 -16 6 -4 -3 -11 7 -14 21 -5 19
-2 30 11 39 10 7 15 17 10 21 -4 4 -7 2 -7 -4 0 -7 -3 -12 -8 -12 -11 0 -9 64
3 72 7 5 7 8 0 8 -5 0 -10 22 -10 49 0 30 4 47 10 43 5 -3 3 3 -5 13 -14 17
-13 18 2 12 12 -4 15 -2 11 9 -3 7 -9 14 -14 14 -5 0 -9 5 -9 11 0 6 7 8 17 5
14 -6 14 -3 -3 15 -19 22 -19 22 3 17 13 -4 26 -2 29 3 3 5 2 9 -3 8 -28 -5
-38 3 -37 29 0 16 4 35 9 42 6 9 4 11 -6 5 -12 -7 -12 -6 -1 7 8 10 9 18 3 22
-6 4 -8 12 -5 20 3 7 -37 54 -88 106 -51 51 -92 97 -90 102 1 5 -1 7 -6 4 -4
-3 -40 25 -78 62 -38 37 -76 72 -84 79 -12 9 -47 -20 -192 -161z"/>
<path d="M3330 1880 c0 -5 5 -10 11 -10 5 0 7 5 4 10 -3 6 -8 10 -11 10 -2 0
-4 -4 -4 -10z"/>
<path d="M3326 1838 c3 -5 10 -6 15 -3 13 9 11 12 -6 12 -8 0 -12 -4 -9 -9z"/>
<path d="M1496 1658 c3 -5 10 -6 15 -3 13 9 11 12 -6 12 -8 0 -12 -4 -9 -9z"/>
<path d="M1556 1658 c3 -5 10 -6 15 -3 13 9 11 12 -6 12 -8 0 -12 -4 -9 -9z"/>
<path d="M2616 1658 c3 -5 10 -6 15 -3 13 9 11 12 -6 12 -8 0 -12 -4 -9 -9z"/>
<path d="M2676 1658 c3 -5 10 -6 15 -3 13 9 11 12 -6 12 -8 0 -12 -4 -9 -9z"/>
<path d="M3176 1658 c3 -5 10 -6 15 -3 13 9 11 12 -6 12 -8 0 -12 -4 -9 -9z"/>
<path d="M1290 1646 c0 -2 7 -7 16 -10 8 -3 12 -2 9 4 -6 10 -25 14 -25 6z"/>
<path d="M1530 1640 c0 -5 5 -10 11 -10 5 0 7 5 4 10 -3 6 -8 10 -11 10 -2 0
-4 -4 -4 -10z"/>
<path d="M1710 1646 c0 -2 7 -7 16 -10 8 -3 12 -2 9 4 -6 10 -25 14 -25 6z"/>
<path d="M1770 1646 c0 -2 7 -7 16 -10 8 -3 12 -2 9 4 -6 10 -25 14 -25 6z"/>
<path d="M2010 1646 c0 -2 7 -7 16 -10 8 -3 12 -2 9 4 -6 10 -25 14 -25 6z"/>
<path d="M2115 1640 c3 -5 8 -10 11 -10 2 0 4 5 4 10 0 6 -5 10 -11 10 -5 0
-7 -4 -4 -10z"/>
<path d="M2170 1646 c0 -2 7 -7 16 -10 8 -3 12 -2 9 4 -6 10 -25 14 -25 6z"/>
<path d="M2330 1646 c0 -2 7 -7 16 -10 8 -3 12 -2 9 4 -6 10 -25 14 -25 6z"/>
<path d="M2435 1640 c3 -5 8 -10 11 -10 2 0 4 5 4 10 0 6 -5 10 -11 10 -5 0
-7 -4 -4 -10z"/>
<path d="M2490 1646 c0 -2 7 -7 16 -10 8 -3 12 -2 9 4 -6 10 -25 14 -25 6z"/>
<path d="M2650 1640 c0 -5 5 -10 11 -10 5 0 7 5 4 10 -3 6 -8 10 -11 10 -2 0
-4 -4 -4 -10z"/>
<path d="M2890 1646 c0 -2 7 -7 16 -10 8 -3 12 -2 9 4 -6 10 -25 14 -25 6z"/>
<path d="M5816 1558 c3 -5 10 -6 15 -3 13 9 11 12 -6 12 -8 0 -12 -4 -9 -9z"/>
<path d="M5750 1540 c-11 -7 -11 -10 -2 -10 7 0 10 -5 6 -12 -4 -7 -3 -8 5 -4
6 4 8 12 5 18 -5 8 -1 9 10 5 10 -4 15 -3 11 3 -8 12 -16 12 -35 0z"/>
<path d="M5730 1511 c0 -6 4 -13 10 -16 6 -3 7 1 4 9 -7 18 -14 21 -14 7z"/>
<path d="M5710 1481 c0 -6 4 -12 8 -15 5 -3 9 1 9 9 0 8 -4 15 -9 15 -4 0 -8
-4 -8 -9z"/>
<path d="M5657 1453 c-10 -9 -9 -23 1 -23 5 0 9 7 9 15 0 17 -1 18 -10 8z"/>
<path d="M5620 1386 c0 -2 8 -10 18 -17 15 -13 16 -12 3 4 -13 16 -21 21 -21
13z"/>
<path d="M5566 1362 c-2 -4 -1 -14 3 -21 6 -10 10 -9 14 3 6 16 -8 32 -17 18z"/>
<path d="M5535 1299 c-4 -6 -4 -13 -1 -16 3 -4 6 -1 6 5 0 6 8 13 18 15 15 4
15 5 0 6 -9 0 -20 -4 -23 -10z"/>
<path d="M5465 1259 c-4 -6 -4 -13 -1 -16 3 -4 6 -1 6 6 0 7 5 9 12 5 7 -4 8
-3 4 4 -9 15 -13 15 -21 1z"/>
<path d="M5417 1193 c-10 -9 -9 -23 1 -23 5 0 9 7 9 15 0 17 -1 18 -10 8z"/>
<path d="M40 1166 c0 -2 43 -78 95 -170 52 -92 95 -171 95 -177 0 -5 5 -9 10
-9 6 0 10 -4 10 -10 0 -8 56 -96 70 -110 38 -38 98 -119 92 -125 -4 -5 -2 -5
4 -2 6 3 20 -4 31 -16 10 -12 40 -40 66 -61 25 -22 43 -44 40 -49 -3 -6 -1 -7
4 -4 6 4 47 -18 92 -48 45 -30 87 -55 92 -55 6 0 7 -4 4 -10 -3 -6 1 -7 9 -4
9 3 16 1 16 -6 0 -6 4 -8 10 -5 6 3 10 1 10 -5 0 -6 4 -9 9 -5 5 3 16 -2 25
-10 8 -9 18 -16 21 -15 21 1 25 -1 20 -10 -3 -6 1 -7 9 -4 9 3 16 2 16 -4 0
-6 8 -8 19 -5 10 3 22 0 25 -6 4 -6 18 -11 32 -11 13 0 24 -5 24 -11 0 -5 4
-8 9 -4 6 3 14 -3 20 -12 6 -10 11 -12 11 -5 0 6 7 12 16 12 8 0 13 -3 11 -8
-3 -4 16 -8 41 -9 26 -2 48 -6 50 -11 1 -4 16 -7 32 -6 17 1 30 -1 30 -4 0 -4
24 -6 52 -6 36 1 59 -3 73 -15 16 -13 18 -13 8 0 -11 13 -7 15 27 15 22 0 36
-4 33 -10 -4 -5 -1 -6 8 0 20 12 80 14 72 1 -4 -6 -1 -7 8 -1 23 14 150 12
145 -3 -3 -7 -1 -15 5 -18 5 -4 9 -3 8 2 -3 19 2 33 12 33 5 0 7 -5 3 -12 -5
-7 -3 -8 7 -2 21 13 42 11 62 -5 14 -12 20 -12 30 -2 9 10 9 11 -4 6 -10 -4
-19 -2 -23 3 -7 12 137 9 146 -3 5 -7 8 -6 8 0 0 7 41 10 113 10 85 -1 111 -4
109 -14 -1 -7 2 -10 8 -6 6 3 8 10 5 14 -6 11 86 8 104 -3 9 -6 12 -5 8 1 -4
7 10 10 39 8 32 -1 49 -7 56 -19 8 -13 13 -15 24 -5 7 6 12 15 9 19 -6 10 87
6 104 -4 9 -6 12 -5 8 1 -10 16 83 9 95 -8 8 -11 9 -10 4 4 -4 12 -2 17 6 14
7 -2 12 -10 10 -16 -1 -7 2 -10 8 -6 6 3 8 10 6 14 -3 4 21 7 54 7 36 -1 56
-5 53 -11 -3 -5 0 -4 8 2 16 16 33 17 23 1 -5 -7 -3 -8 7 -3 20 13 51 14 73 3
13 -7 16 -7 12 1 -11 18 6 13 20 -6 10 -13 13 -14 9 -3 -5 13 10 15 102 15 82
-1 107 -4 105 -14 -1 -7 2 -10 8 -6 6 3 8 10 6 13 -2 4 45 8 104 8 60 0 112 3
116 7 4 3 6 32 5 63 -1 57 12 89 32 77 6 -3 7 -1 3 6 -6 9 -11 9 -21 1 -11 -9
-13 14 -14 130 0 104 3 140 12 140 7 0 6 4 -3 10 -11 6 -15 20 -12 49 2 23 8
41 13 41 5 0 9 5 9 11 0 5 -5 7 -10 4 -6 -4 -10 18 -10 59 0 42 4 66 12 69 8
3 5 6 -5 6 -10 1 -15 6 -12 11 5 9 6 190 2 298 l-1 22 -1633 0 c-898 0 -1633
-2 -1633 -4z m2315 -1005 c3 -5 1 -12 -4 -15 -5 -3 -11 1 -15 9 -6 16 9 21 19
6z"/>
<path d="M4595 1100 c3 -5 8 -10 11 -10 2 0 4 5 4 10 0 6 -5 10 -11 10 -5 0
-7 -4 -4 -10z"/>
<path d="M4599 893 c-13 -16 -12 -17 4 -4 16 13 21 21 13 21 -2 0 -10 -8 -17
-17z"/>
<path d="M4595 700 c3 -5 8 -10 11 -10 2 0 4 5 4 10 0 6 -5 10 -11 10 -5 0 -7
-4 -4 -10z"/>
<path d="M4610 220 c0 -5 5 -10 11 -10 5 0 7 5 4 10 -3 6 -8 10 -11 10 -2 0
-4 -4 -4 -10z"/>
<path d="M1255 151 c-3 -5 -2 -12 3 -15 5 -3 9 1 9 9 0 17 -3 19 -12 6z"/>
<path d="M1549 143 c-13 -16 -12 -17 4 -4 16 13 21 21 13 21 -2 0 -10 -8 -17
-17z"/>
<path d="M1795 151 c-3 -5 -2 -12 3 -15 5 -3 9 1 9 9 0 17 -3 19 -12 6z"/>
<path d="M2255 149 c-4 -6 -5 -12 -2 -15 2 -3 7 2 10 11 7 17 1 20 -8 4z"/>
<path d="M3193 145 c0 -8 4 -12 9 -9 5 3 6 10 3 15 -9 13 -12 11 -12 -6z"/>
<path d="M1366 138 c3 -5 10 -6 15 -3 13 9 11 12 -6 12 -8 0 -12 -4 -9 -9z"/>
<path d="M1675 141 c-3 -5 -2 -12 3 -15 5 -3 9 1 9 9 0 17 -3 19 -12 6z"/>
<path d="M1976 138 c3 -5 10 -6 15 -3 13 9 11 12 -6 12 -8 0 -12 -4 -9 -9z"/>
<path d="M2070 141 c0 -6 4 -13 10 -16 6 -3 7 1 4 9 -7 18 -14 21 -14 7z"/>
<path d="M2540 146 c0 -2 8 -10 18 -17 15 -13 16 -12 3 4 -13 16 -21 21 -21
13z"/>
<path d="M2936 138 c3 -5 10 -6 15 -3 13 9 11 12 -6 12 -8 0 -12 -4 -9 -9z"/>
<path d="M3030 141 c0 -6 4 -13 10 -16 6 -3 7 1 4 9 -7 18 -14 21 -14 7z"/>
<path d="M4140 146 c0 -2 8 -10 18 -17 15 -13 16 -12 3 4 -13 16 -21 21 -21
13z"/>
<path d="M1705 120 c-3 -6 1 -7 9 -4 18 7 21 14 7 14 -6 0 -13 -4 -16 -10z"/>
<path d="M1850 126 c0 -2 7 -7 16 -10 8 -3 12 -2 9 4 -6 10 -25 14 -25 6z"/>
<path d="M2105 120 c-3 -6 1 -7 9 -4 18 7 21 14 7 14 -6 0 -13 -4 -16 -10z"/>
<path d="M2175 120 c-3 -5 -1 -10 4 -10 6 0 11 5 11 10 0 6 -2 10 -4 10 -3 0
-8 -4 -11 -10z"/>
<path d="M2585 120 c-3 -6 1 -7 9 -4 18 7 21 14 7 14 -6 0 -13 -4 -16 -10z"/>
<path d="M2851 127 c2 -1 13 -9 24 -17 19 -14 19 -14 6 3 -7 9 -18 17 -24 17
-6 0 -8 -1 -6 -3z"/>
<path d="M3065 120 c-3 -6 1 -7 9 -4 18 7 21 14 7 14 -6 0 -13 -4 -16 -10z"/>
<path d="M3133 115 c0 -8 4 -12 9 -9 5 3 6 10 3 15 -9 13 -12 11 -12 -6z"/>
<path d="M4055 120 c-3 -5 -1 -10 4 -10 6 0 11 5 11 10 0 6 -2 10 -4 10 -3 0
-8 -4 -11 -10z"/>
<path d="M4185 120 c-3 -6 1 -7 9 -4 18 7 21 14 7 14 -6 0 -13 -4 -16 -10z"/>
<path d="M4451 127 c2 -2 11 -8 20 -15 12 -9 16 -9 16 1 0 7 -9 14 -20 14 -11
1 -18 1 -16 0z"/>
</g>
</svg>
