<svg alt="Twitter" xmlns="http://www.w3.org/2000/svg" viewBox="0 0 80.94 65.76"><path id="Path_17" data-name="Path 17" class="fill" d="M80.94,7.79a34.79,34.79,0,0,1-9.56,2.62,16.53,16.53,0,0,0,7.3-9.18,33.14,33.14,0,0,1-10.52,4,16.59,16.59,0,0,0-28.7,11.34h0a16.56,16.56,0,0,0,.38,3.78A46.94,46.94,0,0,1,5.64,3a16.59,16.59,0,0,0,5.1,22.17,16.41,16.41,0,0,1-7.5-2v.18a16.66,16.66,0,0,0,13.29,16.3,16.37,16.37,0,0,1-4.35.55A15.1,15.1,0,0,1,9,39.91,16.77,16.77,0,0,0,24.55,51.47,33.36,33.36,0,0,1,4,58.54a31,31,0,0,1-4-.23,46.72,46.72,0,0,0,25.46,7.45c30.53,0,47.22-25.29,47.22-47.22,0-.73,0-1.44-.06-2.14a32.8,32.8,0,0,0,8.32-8.62Z"/></svg>